<?xml version="1.0" encoding="UTF-8"?>
<!DOCTYPE svg PUBLIC "-//W3C//DTD SVG 1.1//EN" "http://www.w3.org/Graphics/SVG/1.1/DTD/svg11.dtd">
<svg xmlns="http://www.w3.org/2000/svg" version="1.1" width="602px" height="285px" style="shape-rendering:geometricPrecision; text-rendering:geometricPrecision; image-rendering:optimizeQuality; fill-rule:evenodd; clip-rule:evenodd" xmlns:xlink="http://www.w3.org/1999/xlink">
<g><path style="opacity:1" fill="#fdfdfd" d="M -0.5,0.5 C -0.5,0.166667 -0.5,-0.166667 -0.5,-0.5C 30.5,-0.5 61.5,-0.5 92.5,-0.5C 92.5,67.5 92.5,135.5 92.5,203.5C 92.5,229.5 92.5,255.5 92.5,281.5C 61.5,281.5 30.5,281.5 -0.5,281.5C -0.5,256.833 -0.5,232.167 -0.5,207.5C 28.8352,207.667 58.1686,207.5 87.5,207C 88.4927,188.243 88.826,169.41 88.5,150.5C 58.8333,150.5 29.1667,150.5 -0.5,150.5C -0.5,107.167 -0.5,63.8333 -0.5,20.5C 28.8352,20.6666 58.1686,20.5 87.5,20C 88.146,16.9189 88.4793,13.7522 88.5,10.5C 88.4464,7.06061 87.7797,3.89394 86.5,1C 57.5019,0.500022 28.5019,0.333355 -0.5,0.5 Z"/></g>
<g><path style="opacity:1" fill="#f8f9fa" d="M 99.5,-0.5 C 264.5,-0.5 429.5,-0.5 594.5,-0.5C 594.5,93.1667 594.5,186.833 594.5,280.5C 588.5,280.5 582.5,280.5 576.5,280.5C 576.5,264.167 576.5,247.833 576.5,231.5C 527.167,231.5 477.833,231.5 428.5,231.5C 428.5,247.833 428.5,264.167 428.5,280.5C 422.833,280.5 417.167,280.5 411.5,280.5C 411.333,89.8345 410.833,89.8345 410,280.5C 409.831,232.929 409.331,185.429 408.5,138C 308.834,137.5 209.167,137.333 109.5,137.5C 109.5,185.5 109.5,233.5 109.5,281.5C 106.167,281.5 102.833,281.5 99.5,281.5C 99.4595,255.666 99.4595,229.666 99.5,203.5C 99.5,135.5 99.5,67.5 99.5,-0.5 Z"/></g>
<g><path style="opacity:1" fill="#f3f4f4" d="M -0.5,0.5 C 28.5019,0.333355 57.5019,0.500022 86.5,1C 87.7797,3.89394 88.4464,7.06061 88.5,10.5C 88.4793,13.7522 88.146,16.9189 87.5,20C 58.1686,20.5 28.8352,20.6666 -0.5,20.5C -0.5,13.8333 -0.5,7.16667 -0.5,0.5 Z"/></g>
<g><path style="opacity:1" fill="#c0c0c0" d="M 601.5,5.5 C 601.5,77.5 601.5,149.5 601.5,221.5C 599.833,221.5 598.167,221.5 596.5,221.5C 596.5,149.5 596.5,77.5 596.5,5.5C 598.167,5.5 599.833,5.5 601.5,5.5 Z"/></g>
<g><path style="opacity:1" fill="#cfcfcf" d="M 601.5,4.5 C 601.5,4.83333 601.5,5.16667 601.5,5.5C 599.833,5.5 598.167,5.5 596.5,5.5C 596.5,77.5 596.5,149.5 596.5,221.5C 598.167,221.5 599.833,221.5 601.5,221.5C 601.5,221.833 601.5,222.167 601.5,222.5C 599.5,222.5 597.5,222.5 595.5,222.5C 595.5,149.833 595.5,77.1667 595.5,4.5C 597.5,4.5 599.5,4.5 601.5,4.5 Z"/></g>
<g><path style="opacity:1" fill="#bbbbbc" d="M 28.5,9.5 C 34.1236,9.81255 35.1236,12.1459 31.5,16.5C 29.248,14.7033 28.248,12.3699 28.5,9.5 Z"/></g>
<g><path style="opacity:1" fill="#21373b" d="M 134.5,11.5 C 133.391,11.5569 132.391,11.8902 131.5,12.5C 130.833,11.8333 130.167,11.1667 129.5,10.5C 129.5,10.1667 129.5,9.83333 129.5,9.5C 131.743,8.14161 133.409,8.80828 134.5,11.5 Z"/></g>
<g><path style="opacity:1" fill="#acabab" d="M 52.5,8.5 C 53.7498,8.57735 54.5831,9.24402 55,10.5C 57.2686,10.2741 59.7686,9.94079 62.5,9.5C 62.6219,13.8383 62.9553,14.1716 63.5,10.5C 65.1667,10.5 66.8333,10.5 68.5,10.5C 68.5,11.8333 68.5,13.1667 68.5,14.5C 66.1667,14.5 63.8333,14.5 61.5,14.5C 61.3068,10.551 60.8068,10.551 60,14.5C 59.6667,13.5 59.3333,12.5 59,11.5C 56.9419,12.1095 56.1086,13.1095 56.5,14.5C 51.7027,14.6116 47.0361,14.4449 42.5,14C 41.219,9.61107 42.3856,8.77774 46,11.5C 48.4152,10.8681 50.5819,9.86811 52.5,8.5 Z"/></g>
<g><path style="opacity:1" fill="#a2a2a6" d="M 15.5,9.5 C 16.552,9.35055 17.552,9.51722 18.5,10C 17.3044,10.6543 17.3044,11.1543 18.5,11.5C 19.7362,10.7542 21.0695,10.4208 22.5,10.5C 22.762,11.9778 22.4287,13.3112 21.5,14.5C 20.1667,13.1667 18.8333,13.1667 17.5,14.5C 17.2378,13.0442 16.5711,11.3775 15.5,9.5 Z"/></g>
<g><path style="opacity:1" fill="#a7a0a5" d="M 35.5,9.5 C 37.0174,9.51056 38.1841,10.1772 39,11.5C 39.3333,10.8333 39.6667,10.1667 40,9.5C 40.6667,11.1667 40.6667,12.8333 40,14.5C 38.6841,11.972 37.5174,11.972 36.5,14.5C 35.5481,12.9547 35.2148,11.288 35.5,9.5 Z"/></g>
<g><path style="opacity:1" fill="#8f6b1f" d="M 129.5,9.5 C 129.5,9.83333 129.5,10.1667 129.5,10.5C 126.916,11.0483 125.916,12.715 126.5,15.5C 125.566,14.4324 125.232,13.099 125.5,11.5C 126.287,9.89578 127.62,9.22911 129.5,9.5 Z"/></g>
<g><path style="opacity:1" fill="#565451" d="M 109.5,10.5 C 111.048,10.8212 111.715,11.8212 111.5,13.5C 112.5,13.5 113.5,13.5 114.5,13.5C 115.833,13.8333 115.833,14.1667 114.5,14.5C 113.5,14.5 112.5,14.5 111.5,14.5C 111.719,15.675 111.386,16.675 110.5,17.5C 109.526,15.2573 109.192,12.924 109.5,10.5 Z"/></g>
<g><path style="opacity:1" fill="#6a6a6a" d="M 4.5,8.5 C 6.838,5.86086 9.00467,6.1942 11,9.5C 11.1429,15.2889 8.4762,16.9556 3,14.5C 2.59826,13.1279 2.09826,11.7946 1.5,10.5C 2.00475,9.08149 3.00475,8.41483 4.5,8.5 Z"/></g>
<g><path style="opacity:1" fill="#d7d7d7" d="M 4.5,8.5 C 8.22621,7.55133 9.89288,9.218 9.5,13.5C 5.0107,14.1166 3.34403,12.4499 4.5,8.5 Z"/></g>
<g><path style="opacity:1" fill="#a5a3a6" d="M 23.5,10.5 C 24.8333,10.5 26.1667,10.5 27.5,10.5C 27.9783,13.2776 26.9783,15.2776 24.5,16.5C 23.9684,14.9245 23.6351,12.9245 23.5,10.5 Z"/></g>
<g><path style="opacity:1" fill="#e1b032" d="M 129.5,10.5 C 130.167,11.1667 130.833,11.8333 131.5,12.5C 133.075,14.1137 133.741,16.1137 133.5,18.5C 131.833,19.8333 130.167,19.8333 128.5,18.5C 127.833,17.5 127.167,16.5 126.5,15.5C 125.916,12.715 126.916,11.0483 129.5,10.5 Z"/></g>
<g><path style="opacity:1" fill="#906f1d" d="M 134.5,11.5 C 134.802,14.0593 134.468,16.3926 133.5,18.5C 133.741,16.1137 133.075,14.1137 131.5,12.5C 132.391,11.8902 133.391,11.5569 134.5,11.5 Z"/></g>
<g><path style="opacity:1" fill="#314143" d="M 125.5,11.5 C 125.232,13.099 125.566,14.4324 126.5,15.5C 127.167,16.5 127.833,17.5 128.5,18.5C 127.312,19.6843 126.145,19.6843 125,18.5C 124.204,15.9615 124.371,13.6282 125.5,11.5 Z"/></g>
<g><path style="opacity:1" fill="#cccdce" d="M 108.5,26.5 C 113.67,27.4219 119.337,27.4219 125.5,26.5C 125.762,27.9778 125.429,29.3112 124.5,30.5C 123.676,28.2524 122.676,28.0858 121.5,30C 117.33,30.3247 113.33,30.4914 109.5,30.5C 108.571,29.3112 108.238,27.9778 108.5,26.5 Z"/></g>
<g><path style="opacity:1" fill="#c8c9ca" d="M 127.5,26.5 C 129.46,27.1383 131.293,27.1383 133,26.5C 134,27.1667 135,27.8333 136,28.5C 137.011,27.6634 138.178,27.33 139.5,27.5C 139.719,28.675 139.386,29.675 138.5,30.5C 136.612,30.0549 134.612,30.0549 132.5,30.5C 131.328,30.0814 130.328,29.4147 129.5,28.5C 128.808,29.0253 128.308,29.6919 128,30.5C 127.51,29.2068 127.343,27.8734 127.5,26.5 Z"/></g>
<g><path style="opacity:1" fill="#cccdce" d="M 145.5,26.5 C 148.338,27.404 151.005,27.7373 153.5,27.5C 152.548,29.5116 150.881,30.5116 148.5,30.5C 146.9,30.4493 145.4,30.1159 144,29.5C 143.632,30.91 142.799,31.91 141.5,32.5C 141.563,31.3395 141.23,30.0062 140.5,28.5C 142.291,27.8302 143.958,27.1635 145.5,26.5 Z"/></g>
<g><path style="opacity:1" fill="#c9c9ca" d="M 156.5,26.5 C 158.097,27.0905 159.431,28.0905 160.5,29.5C 162.999,26.0548 165.832,25.7215 169,28.5C 171.173,25.723 171.673,25.8897 170.5,29C 171,29.1667 171.5,29.3333 172,29.5C 173.419,28.0795 175.086,27.0795 177,26.5C 179.668,26.5076 182.502,26.841 185.5,27.5C 185.587,30.5983 185.087,30.9316 184,28.5C 174.848,30.1569 165.515,31.1569 156,31.5C 155.36,29.735 155.527,28.0683 156.5,26.5 Z"/></g>
<g><path style="opacity:1" fill="#dcddde" d="M 194.5,26.5 C 198.599,27.1269 202.933,27.1269 207.5,26.5C 208.881,26.9996 209.547,27.9996 209.5,29.5C 209.566,31.2664 208.732,32.2664 207,32.5C 202.554,31.5879 198.054,31.2546 193.5,31.5C 193.366,29.7085 193.699,28.0418 194.5,26.5 Z"/></g>
<g><path style="opacity:1" fill="#988fd9" d="M 7.5,31.5 C 7.5,33.1667 7.5,34.8333 7.5,36.5C 6.16667,36.5 4.83333,36.5 3.5,36.5C 2.53862,34.7354 2.20528,32.7354 2.5,30.5C 4.41467,30.2155 6.08134,30.5489 7.5,31.5 Z"/></g>
<g><path style="opacity:1" fill="#877fd3" d="M 13.5,33.5 C 11.9582,34.3007 10.2915,34.634 8.5,34.5C 8.5,33.5 8.5,32.5 8.5,31.5C 9.60093,30.4017 10.9343,30.235 12.5,31C 13.2524,31.6708 13.5858,32.5041 13.5,33.5 Z"/></g>
<g><path style="opacity:1" fill="#b6b5e1" d="M 38.5,32.5 C 40.0862,33.6753 41.5862,35.0086 43,36.5C 45.4016,33.7419 47.4016,34.0752 49,37.5C 51.4368,33.6896 52.6035,34.3562 52.5,39.5C 47.8333,39.5 43.1667,39.5 38.5,39.5C 38.5,37.1667 38.5,34.8333 38.5,32.5 Z"/></g>
<g><path style="opacity:1" fill="#d1ceee" d="M 7.5,31.5 C 7.83333,31.5 8.16667,31.5 8.5,31.5C 8.5,32.5 8.5,33.5 8.5,34.5C 10.2915,34.634 11.9582,34.3007 13.5,33.5C 13.8016,36.0593 13.4682,38.3926 12.5,40.5C 12.5,38.8333 12.5,37.1667 12.5,35.5C 11.1667,35.5 9.83333,35.5 8.5,35.5C 8.5,37.1667 8.5,38.8333 8.5,40.5C 8.16667,40.5 7.83333,40.5 7.5,40.5C 7.5,39.5 7.5,38.5 7.5,37.5C 6.16667,37.5 4.83333,37.5 3.5,37.5C 3.5,37.1667 3.5,36.8333 3.5,36.5C 4.83333,36.5 6.16667,36.5 7.5,36.5C 7.5,34.8333 7.5,33.1667 7.5,31.5 Z"/></g>
<g><path style="opacity:1" fill="#a9a9de" d="M 23.5,34.5 C 23.0954,35.5498 22.4288,35.5498 21.5,34.5C 20.3162,36.467 20.6495,38.1336 22.5,39.5C 21.1667,39.5 19.8333,39.5 18.5,39.5C 18.5,37.5 18.5,35.5 18.5,33.5C 20.4147,33.2155 22.0813,33.5489 23.5,34.5 Z"/></g>
<g><path style="opacity:1" fill="#7269cc" d="M 12.5,40.5 C 11.8386,39.2825 11.1719,37.9492 10.5,36.5C 9.26899,37.6507 9.26899,38.8173 10.5,40C 9.90558,40.4643 9.23891,40.631 8.5,40.5C 8.5,38.8333 8.5,37.1667 8.5,35.5C 9.83333,35.5 11.1667,35.5 12.5,35.5C 12.5,37.1667 12.5,38.8333 12.5,40.5 Z"/></g>
<g><path style="opacity:1" fill="#c8c6e7" d="M 22.5,39.5 C 20.6495,38.1336 20.3162,36.467 21.5,34.5C 22.4288,35.5498 23.0954,35.5498 23.5,34.5C 24.2679,35.2625 24.7679,36.2625 25,37.5C 25.3598,34.5722 26.6932,33.9055 29,35.5C 30.8974,35.1036 32.3974,34.1036 33.5,32.5C 36.5471,33.8751 37.8804,36.2084 37.5,39.5C 32.289,39.3649 27.289,39.3649 22.5,39.5 Z"/></g>
<g><path style="opacity:1" fill="#afaadc" d="M 59.5,33.5 C 60.4614,35.2646 60.7947,37.2646 60.5,39.5C 59.1667,39.5 57.8333,39.5 56.5,39.5C 56.0283,36.6421 57.0283,34.6421 59.5,33.5 Z"/></g>
<g><path style="opacity:1" fill="#837ad2" d="M 3.5,37.5 C 4.83333,37.5 6.16667,37.5 7.5,37.5C 7.5,38.5 7.5,39.5 7.5,40.5C 6.39907,41.5983 5.06574,41.765 3.5,41C 2.20891,39.7083 2.20891,38.5417 3.5,37.5 Z"/></g>
<g><path style="opacity:1" fill="#b5afe4" d="M 12.5,40.5 C 11.1667,41.8333 9.83333,41.8333 8.5,40.5C 9.23891,40.631 9.90558,40.4643 10.5,40C 9.26899,38.8173 9.26899,37.6507 10.5,36.5C 11.1719,37.9492 11.8386,39.2825 12.5,40.5 Z"/></g>
<g><path style="opacity:1" fill="#111111" d="M 500.5,41.5 C 525.833,41.5 551.167,41.5 576.5,41.5C 576.5,47.5 576.5,53.5 576.5,59.5C 551.164,59.6666 525.831,59.5 500.5,59C 499.187,53.167 499.187,47.3337 500.5,41.5 Z"/></g>
<g><path style="opacity:1" fill="#fdfdfd" d="M 109.5,44.5 C 209.167,44.3333 308.834,44.5 408.5,45C 409.081,45.8926 409.415,46.8926 409.5,48C 408.538,70.7475 408.204,93.4141 408.5,116C 308.834,116.5 209.167,116.667 109.5,116.5C 109.5,92.5 109.5,68.5 109.5,44.5 Z"/></g>
<g><path style="opacity:1" fill="#7f7d7e" d="M 540.5,48.5 C 543.394,48.0423 545.894,48.709 548,50.5C 549.018,49.2941 549.518,49.6274 549.5,51.5C 548.831,54.0278 547.998,54.0278 547,51.5C 545.582,54.001 544.582,53.6677 544,50.5C 541.563,54.3104 540.397,53.6438 540.5,48.5 Z"/></g>
<g><path style="opacity:1" fill="#585858" d="M 513.5,47.5 C 515.355,47.272 516.188,47.9387 516,49.5C 514.261,51.7411 512.094,53.4078 509.5,54.5C 508.592,53.21 508.759,51.8767 510,50.5C 511.145,49.3636 512.312,48.3636 513.5,47.5 Z"/></g>
<g><path style="opacity:1" fill="#636a6e" d="M 535.5,48.5 C 536.649,48.7911 537.316,49.6244 537.5,51C 537.167,51.8333 536.833,52.6667 536.5,53.5C 535.548,51.9547 535.215,50.288 535.5,48.5 Z"/></g>
<g><path style="opacity:1" fill="#7c706a" d="M 560.5,50.5 C 562.435,49.8505 564.435,49.5172 566.5,49.5C 566.66,51.1992 566.494,52.8659 566,54.5C 564.951,55.5171 563.784,55.6838 562.5,55C 564.283,53.9335 564.783,52.4335 564,50.5C 563.517,51.448 563.351,52.448 563.5,53.5C 562.5,53.5 561.5,53.5 560.5,53.5C 560.5,52.5 560.5,51.5 560.5,50.5 Z"/></g>
<g><path style="opacity:1" fill="#807c76" d="M 522.5,48.5 C 524.646,51.7625 526.146,51.7625 527,48.5C 527.333,49.8333 527.667,51.1667 528,52.5C 529.508,50.1616 531.675,49.1616 534.5,49.5C 534.5,50.8333 534.5,52.1667 534.5,53.5C 530.31,53.2936 526.31,53.127 522.5,53C 523.167,52.6667 523.833,52.3333 524.5,52C 523.027,51.2904 522.36,50.1238 522.5,48.5 Z"/></g>
<g><path style="opacity:1" fill="#6d6c63" d="M 560.5,50.5 C 558.952,50.8212 558.285,51.8212 558.5,53.5C 555.833,53.5 553.167,53.5 550.5,53.5C 550.543,45.9465 552.043,45.6131 555,52.5C 556.366,49.8792 558.199,49.2125 560.5,50.5 Z"/></g>
<g><path style="opacity:1" fill="#a29f9d" d="M 123.5,68.5 C 120.203,68.3683 118.537,66.7016 118.5,63.5C 121.598,63.4125 121.932,63.9125 119.5,65C 120.76,66.113 121.927,66.2797 123,65.5C 123.483,66.448 123.649,67.448 123.5,68.5 Z"/></g>
<g><path style="opacity:1" fill="#f7f8f6" d="M 219.5,64.5 C 220.5,64.5 221.5,64.5 222.5,64.5C 222.5,65.8333 222.5,67.1667 222.5,68.5C 220.088,68.3059 219.088,66.9726 219.5,64.5 Z"/></g>
<g><path style="opacity:1" fill="#818694" d="M 243.5,67.5 C 242.25,67.5774 241.417,68.244 241,69.5C 240.505,67.5273 240.338,65.5273 240.5,63.5C 243.598,63.4125 243.932,63.9125 241.5,65C 242.756,65.4169 243.423,66.2502 243.5,67.5 Z"/></g>
<g><path style="opacity:1" fill="#a79d95" d="M 319.5,63.5 C 320.552,63.3505 321.552,63.5172 322.5,64C 318.5,65.6667 318.5,67.3333 322.5,69C 318.537,69.1177 317.537,67.2843 319.5,63.5 Z"/></g>
<g><path style="opacity:1" fill="#aca9b0" d="M 123.5,68.5 C 125.301,67.2423 126.801,65.5756 128,63.5C 131.184,64.4061 132.017,66.2394 130.5,69C 127.961,69.7958 125.628,69.6291 123.5,68.5 Z"/></g>
<g><path style="opacity:1" fill="#b3b1b4" d="M 141.5,63.5 C 143.799,64.1379 145.966,65.1379 148,66.5C 149.793,64.4284 151.96,64.0951 154.5,65.5C 156.552,65.6162 157.885,66.6162 158.5,68.5C 157.635,69.5827 156.635,69.7494 155.5,69C 156.604,67.8687 156.271,67.0354 154.5,66.5C 153.749,67.376 153.249,68.376 153,69.5C 152.374,67.0087 151.541,67.0087 150.5,69.5C 147.617,69.1277 144.617,69.1277 141.5,69.5C 141.167,65.5 140.833,65.5 140.5,69.5C 138.061,68.9475 135.727,68.9475 133.5,69.5C 133.646,68.5083 133.313,67.3417 132.5,66C 133.424,64.1886 134.257,64.3553 135,66.5C 136.079,64.6063 137.413,64.273 139,65.5C 139.995,64.9341 140.828,64.2674 141.5,63.5 Z"/></g>
<g><path style="opacity:1" fill="#727272" d="M 10.5,61.5 C 13.0764,61.7218 13.9098,63.0551 13,65.5C 10.3526,69.348 6.85256,71.6814 2.5,72.5C 1.88941,68.9711 3.22274,67.1378 6.5,67C 4.73966,67.9653 4.40632,69.132 5.5,70.5C 7.14869,69.3523 8.64869,68.019 10,66.5C 10.4561,65.2559 9.95608,64.4226 8.5,64C 9.38053,63.2917 10.0472,62.4584 10.5,61.5 Z"/></g>
<g><path style="opacity:1" fill="#9b99a0" d="M 18.5,64.5 C 19.7899,65.0577 20.6232,66.0577 21,67.5C 21.9486,63.6221 23.1153,63.6221 24.5,67.5C 25.2508,66.624 25.7508,65.624 26,64.5C 27.0312,65.7003 27.8645,67.0337 28.5,68.5C 27.8311,71.0278 26.9978,71.0278 26,68.5C 24.9826,71.028 23.8159,71.028 22.5,68.5C 21.8333,69.1667 21.1667,69.8333 20.5,70.5C 18.9137,68.8273 18.2471,66.8273 18.5,64.5 Z"/></g>
<g><path style="opacity:1" fill="#a0a4a1" d="M 243.5,67.5 C 244.859,66.9935 245.859,65.9935 246.5,64.5C 248.217,65.6685 248.884,67.3352 248.5,69.5C 246.219,69.9227 244.552,69.256 243.5,67.5 Z"/></g>
<g><path style="opacity:1" fill="#d6d2cd" d="M 331.5,63.5 C 331.5,65.5 331.5,67.5 331.5,69.5C 329.064,68.6151 326.398,68.6151 323.5,69.5C 323.5,67.1667 323.5,64.8333 323.5,62.5C 324.5,62.5 325.5,62.5 326.5,62.5C 326.343,63.8734 326.51,65.2068 327,66.5C 328.271,65.1175 329.771,64.1175 331.5,63.5 Z"/></g>
<g><path style="opacity:1" fill="#938a9a" d="M 331.5,63.5 C 332.309,64.4687 333.309,65.3021 334.5,66C 333.359,66.7412 333.359,67.5745 334.5,68.5C 333.675,69.3857 332.675,69.719 331.5,69.5C 331.5,67.5 331.5,65.5 331.5,63.5 Z"/></g>
<g><path style="opacity:1" fill="#989895" d="M 219.5,64.5 C 219.088,66.9726 220.088,68.3059 222.5,68.5C 221.458,69.7911 220.292,69.7911 219,68.5C 218.235,66.9343 218.402,65.6009 219.5,64.5 Z"/></g>
<g><path style="opacity:1" fill="#a6a7a1" d="M 219.5,64.5 C 219.917,63.8761 220.584,63.5427 221.5,63.5C 223.892,64.7253 226.392,65.7253 229,66.5C 229.667,65.8333 230.333,65.1667 231,64.5C 233.041,65.4231 235.208,65.7564 237.5,65.5C 237.669,70.0407 237.002,70.374 235.5,66.5C 234.749,67.376 234.249,68.376 234,69.5C 233.667,68.8333 233.333,68.1667 233,67.5C 230.614,69.0911 227.947,70.0911 225,70.5C 224.925,68.065 224.092,67.3984 222.5,68.5C 222.5,67.1667 222.5,65.8333 222.5,64.5C 221.5,64.5 220.5,64.5 219.5,64.5 Z"/></g>
<g><path style="opacity:1" fill="#a09fa4" d="M 249.5,64.5 C 250.75,64.5774 251.583,65.244 252,66.5C 252.423,65.0439 253.256,64.5439 254.5,65C 254.835,66.5026 254.835,67.836 254.5,69C 253.065,68.6888 251.732,68.8555 250.5,69.5C 249.548,67.9547 249.215,66.288 249.5,64.5 Z"/></g>
<g><path style="opacity:1" fill="#a7a9ac" d="M 337.5,63.5 C 338.833,63.5 340.167,63.5 341.5,63.5C 341.331,68.0407 341.998,68.374 343.5,64.5C 345.217,65.6685 345.884,67.3352 345.5,69.5C 343.179,69.7711 341.179,69.1045 339.5,67.5C 338.914,67.7093 338.414,68.0426 338,68.5C 337.506,66.8659 337.34,65.1992 337.5,63.5 Z"/></g>
<g><path style="opacity:1" fill="#9d999c" d="M 346.5,64.5 C 347.75,64.5774 348.583,65.244 349,66.5C 350.183,65.269 351.349,65.269 352.5,66.5C 351.975,67.1924 351.308,67.6924 350.5,68C 350.833,68.3333 351.167,68.6667 351.5,69C 350.065,68.6888 348.732,68.8555 347.5,69.5C 346.548,67.9547 346.215,66.288 346.5,64.5 Z"/></g>
<g><path style="opacity:1" fill="#a7a5a8" d="M 30.5,63.5 C 33.0497,65.6254 35.7164,66.7921 38.5,67C 38.0946,67.9454 37.428,68.6121 36.5,69C 37.1667,69.3333 37.8333,69.6667 38.5,70C 35.9387,69.5988 33.2721,69.7655 30.5,70.5C 30.5,68.1667 30.5,65.8333 30.5,63.5 Z"/></g>
<g><path style="opacity:1" fill="#ddfbe6" d="M 171.5,73.5 C 179.507,73.3336 187.507,73.5003 195.5,74C 200.778,78.1581 200.778,82.4915 195.5,87C 187.833,87.6667 180.167,87.6667 172.5,87C 166.317,82.921 165.983,78.421 171.5,73.5 Z"/></g>
<g><path style="opacity:1" fill="#6f727c" d="M 428.5,73.5 C 429.833,73.5 431.167,73.5 432.5,73.5C 432.34,75.1992 432.506,76.8659 433,78.5C 433.589,76.1367 435.089,75.1367 437.5,75.5C 437.657,76.8734 437.49,78.2068 437,79.5C 435.602,80.0509 434.268,80.3842 433,80.5C 432.167,79.5 431.333,78.5 430.5,77.5C 429.808,78.0253 429.308,78.6919 429,79.5C 428.505,77.5273 428.338,75.5273 428.5,73.5 Z"/></g>
<g><path style="opacity:1" fill="#797681" d="M 456.5,75.5 C 457.239,75.369 457.906,75.5357 458.5,76C 456.326,80.5592 455.66,80.3925 456.5,75.5 Z"/></g>
<g><path style="opacity:1" fill="#a7beb0" d="M 185.5,77.5 C 188.836,78.1687 192.003,78.1687 195,77.5C 196.48,79.6631 196.48,81.6631 195,83.5C 193.667,82.8333 192.667,81.8333 192,80.5C 190.104,83.9462 187.77,84.2795 185,81.5C 184.586,81.9574 184.086,82.2907 183.5,82.5C 182.571,81.3112 182.238,79.9778 182.5,78.5C 183.791,78.7373 184.791,78.404 185.5,77.5 Z"/></g>
<g><path style="opacity:1" fill="#888587" d="M 438.5,75.5 C 441.062,76.3715 443.728,76.3715 446.5,75.5C 446.884,77.6648 446.217,79.3315 444.5,80.5C 442.509,79.5731 440.509,79.4064 438.5,80C 439.413,78.5861 439.413,77.0861 438.5,75.5 Z"/></g>
<g><path style="opacity:1" fill="#8d8b8c" d="M 460.5,75.5 C 462.821,76.6249 465.154,76.7916 467.5,76C 467.167,76.3333 466.833,76.6667 466.5,77C 468.481,77.6054 468.815,78.6054 467.5,80C 465.687,79.9536 464.021,80.1203 462.5,80.5C 459.807,79.4682 459.14,77.8015 460.5,75.5 Z"/></g>
<g><path style="opacity:1" fill="#a7abac" d="M 387.5,77.5 C 388.688,78.6843 389.855,78.6843 391,77.5C 395.763,82.5574 395.597,83.5574 390.5,80.5C 388.795,84.281 387.462,84.281 386.5,80.5C 386.685,79.4163 387.018,78.4163 387.5,77.5 Z"/></g>
<g><path style="opacity:1" fill="#8d8380" d="M 447.5,75.5 C 448.794,79.2229 449.961,79.2229 451,75.5C 451.494,77.1341 451.66,78.8008 451.5,80.5C 448.09,80.6162 446.756,78.9496 447.5,75.5 Z"/></g>
<g><path style="opacity:1" fill="#81e1a2" d="M 173.5,78.5 C 178.154,78.3954 178.654,79.7287 175,82.5C 174.5,81.3333 173.667,80.5 172.5,80C 173.056,79.6174 173.389,79.1174 173.5,78.5 Z"/></g>
<g><path style="opacity:1" fill="#a9a9aa" d="M 287.5,77.5 C 290.513,77.7637 292.846,79.097 294.5,81.5C 294.167,81.8333 293.833,82.1667 293.5,82.5C 292.5,81.8333 291.5,81.1667 290.5,80.5C 288.795,84.281 287.462,84.281 286.5,80.5C 286.685,79.4163 287.018,78.4163 287.5,77.5 Z"/></g>
<g><path style="opacity:1" fill="#9a9ea4" d="M 319.5,79.5 C 320.5,79.5 321.5,79.5 322.5,79.5C 322.949,81.9775 322.283,83.9775 320.5,85.5C 318.261,83.8669 317.928,81.8669 319.5,79.5 Z"/></g>
<g><path style="opacity:1" fill="#dedede" d="M 92.5,-0.5 C 94.8333,-0.5 97.1667,-0.5 99.5,-0.5C 99.5,67.5 99.5,135.5 99.5,203.5C 99.1667,203.5 98.8333,203.5 98.5,203.5C 98.5,137.5 98.5,71.5 98.5,5.5C 96.8333,5.5 95.1667,5.5 93.5,5.5C 93.5,71.5 93.5,137.5 93.5,203.5C 93.1667,203.5 92.8333,203.5 92.5,203.5C 92.5,135.5 92.5,67.5 92.5,-0.5 Z"/></g>
<g><path style="opacity:1" fill="#c0c0c0" d="M 98.5,203.5 C 96.8333,203.5 95.1667,203.5 93.5,203.5C 93.5,137.5 93.5,71.5 93.5,5.5C 95.1667,5.5 96.8333,5.5 98.5,5.5C 98.5,71.5 98.5,137.5 98.5,203.5 Z"/></g>
<g><path style="opacity:1" fill="#837978" d="M 218.5,80.5 C 219.794,84.2229 220.961,84.2229 222,80.5C 222.72,82.1124 222.554,83.6124 221.5,85C 220.551,85.6172 219.718,85.4506 219,84.5C 218.51,83.2068 218.343,81.8734 218.5,80.5 Z"/></g>
<g><path style="opacity:1" fill="#fdfdfd" d="M 429.5,88.5 C 478.168,88.3333 526.834,88.5 575.5,89C 576.491,104.756 576.825,120.589 576.5,136.5C 527.167,136.5 477.833,136.5 428.5,136.5C 428.183,120.422 428.516,104.422 429.5,88.5 Z"/></g>
<g><path style="opacity:1" fill="#cdcdcd" d="M 138.5,94.5 C 139.5,94.5 140.5,94.5 141.5,94.5C 141.351,95.552 141.517,96.552 142,97.5C 144.121,95.5426 146.621,95.0426 149.5,96C 149.273,97.1353 148.94,98.302 148.5,99.5C 145.568,99.3671 142.568,99.3671 139.5,99.5C 138.548,97.9547 138.215,96.288 138.5,94.5 Z"/></g>
<g><path style="opacity:1" fill="#cccccc" d="M 167.5,94.5 C 170.038,95.208 172.538,95.5414 175,95.5C 175.492,97.8245 174.492,99.1579 172,99.5C 170.105,99.3852 168.438,98.7185 167,97.5C 166.309,99.8912 165.309,99.8912 164,97.5C 163.692,98.3081 163.192,98.9747 162.5,99.5C 160.591,98.6518 158.591,98.3184 156.5,98.5C 156.5,97.5 156.5,96.5 156.5,95.5C 159.119,95.2317 161.619,95.565 164,96.5C 165.302,95.9152 166.469,95.2485 167.5,94.5 Z"/></g>
<g><path style="opacity:1" fill="#d2d2d2" d="M 238.5,94.5 C 241.855,95.6182 245.188,95.6182 248.5,94.5C 249.631,96.0745 249.798,97.7412 249,99.5C 245.801,99.4463 242.634,99.4463 239.5,99.5C 237.296,98.218 236.962,96.5514 238.5,94.5 Z"/></g>
<g><path style="opacity:1" fill="#cacaca" d="M 267.5,94.5 C 269.705,94.8518 271.538,95.8518 273,97.5C 273.333,96.5 273.667,95.5 274,94.5C 274.494,96.1341 274.66,97.8008 274.5,99.5C 271.728,99.78 269.228,99.1134 267,97.5C 266.667,98.1667 266.333,98.8333 266,99.5C 264.887,98.2889 263.72,98.2889 262.5,99.5C 259.691,99.1484 257.358,97.9817 255.5,96C 259.688,95.8238 263.688,95.3238 267.5,94.5 Z"/></g>
<g><path style="opacity:1" fill="#c8c8c8" d="M 367.5,94.5 C 369.117,95.038 370.784,95.3713 372.5,95.5C 372.643,100.117 370.976,100.784 367.5,97.5C 366.483,100.028 365.316,100.028 364,97.5C 363,100.167 362,100.167 361,97.5C 359.644,98.3802 358.144,98.7135 356.5,98.5C 356.5,97.5 356.5,96.5 356.5,95.5C 360.371,95.815 364.038,95.4816 367.5,94.5 Z"/></g>
<g><path style="opacity:1" fill="#696969" d="M 12.5,94.5 C 13.3764,94.3691 14.0431,94.7025 14.5,95.5C 13.3523,97.1487 12.019,98.6487 10.5,100C 8.88657,100.089 7.7199,99.2552 7,97.5C 5.83333,98.6667 4.66667,99.8333 3.5,101C 2.66828,101.688 2.00161,101.521 1.5,100.5C 3.5,99.1667 5.16667,97.5 6.5,95.5C 9.14043,98.5006 11.1404,98.1673 12.5,94.5 Z"/></g>
<g><path style="opacity:1" fill="#a6a3a6" d="M 29.5,96.5 C 31.8211,96.6583 33.6545,97.6583 35,99.5C 35.3333,98.8333 35.6667,98.1667 36,97.5C 36.6667,98.8333 37.3333,98.8333 38,97.5C 38.7805,98.9437 38.6139,100.277 37.5,101.5C 36.5,100.167 35.5,100.167 34.5,101.5C 33.8076,100.975 33.3076,100.308 33,99.5C 31.0692,102.105 29.2358,102.105 27.5,99.5C 28.1925,98.4822 28.8592,97.4822 29.5,96.5 Z"/></g>
<g><path style="opacity:1" fill="#d3d3d3" d="M 118.5,94.5 C 122.768,95.3726 127.102,95.7059 131.5,95.5C 131.5,96.5 131.5,97.5 131.5,98.5C 128.881,98.2317 126.381,98.565 124,99.5C 123.085,98.6721 122.419,97.6721 122,96.5C 121.333,99.1667 120.667,99.1667 120,96.5C 119.667,97.1667 119.333,97.8333 119,98.5C 118.51,97.2068 118.343,95.8734 118.5,94.5 Z"/></g>
<g><path style="opacity:1" fill="#d1d1d1" d="M 219.5,93.5 C 223.36,94.8042 227.36,95.4709 231.5,95.5C 231.5,96.5 231.5,97.5 231.5,98.5C 229.876,98.6399 228.71,97.9733 228,96.5C 225.594,99.8089 223.594,99.8089 222,96.5C 221.333,99.1667 220.667,99.1667 220,96.5C 219.667,97.1667 219.333,97.8333 219,98.5C 218.36,96.735 218.527,95.0683 219.5,93.5 Z"/></g>
<g><path style="opacity:1" fill="#d0d0d0" d="M 318.5,95.5 C 322.833,95.5 327.167,95.5 331.5,95.5C 331.5,96.5 331.5,97.5 331.5,98.5C 327.129,99.5376 322.795,99.5376 318.5,98.5C 318.5,97.5 318.5,96.5 318.5,95.5 Z"/></g>
<g><path style="opacity:1" fill="#cbcbcb" d="M 340.5,94.5 C 341.268,95.2625 341.768,96.2625 342,97.5C 344.121,95.5426 346.621,95.0426 349.5,96C 349.018,97.0084 348.852,98.175 349,99.5C 346.568,99.5234 344.068,99.1901 341.5,98.5C 340.571,97.3112 340.238,95.9778 340.5,94.5 Z"/></g>
<g><path style="opacity:1" fill="#928e8d" d="M 19.5,95.5 C 20.8734,95.3433 22.2068,95.51 23.5,96C 19.4916,96.4904 18.8249,97.9904 21.5,100.5C 23.0046,97.8694 23.6713,98.2027 23.5,101.5C 18.7398,101.799 17.4064,99.7993 19.5,95.5 Z"/></g>
<g><path style="opacity:1" fill="#848589" d="M 471.5,101.5 C 472.675,101.281 473.675,101.614 474.5,102.5C 472.65,103.242 471.984,104.242 472.5,105.5C 471.571,104.311 471.238,102.978 471.5,101.5 Z"/></g>
<g><path style="opacity:1" fill="#959391" d="M 437.5,100.5 C 438.762,103.071 440.095,103.071 441.5,100.5C 442.192,101.025 442.692,101.692 443,102.5C 447.575,101.786 452.075,101.453 456.5,101.5C 456.5,102.833 456.5,104.167 456.5,105.5C 454.833,105.5 453.167,105.5 451.5,105.5C 451.587,102.402 451.087,102.068 450,104.5C 448.913,102.068 448.413,102.402 448.5,105.5C 445.212,105.927 442.212,105.26 439.5,103.5C 438.808,104.025 438.308,104.692 438,105.5C 437.506,103.866 437.34,102.199 437.5,100.5 Z"/></g>
<g><path style="opacity:1" fill="#969694" d="M 458.5,101.5 C 462.523,101.707 466.523,101.707 470.5,101.5C 470.949,103.977 470.283,105.977 468.5,107.5C 467.749,106.624 467.249,105.624 467,104.5C 464.539,105.218 462.039,105.885 459.5,106.5C 458.548,104.955 458.215,103.288 458.5,101.5 Z"/></g>
<g><path style="opacity:1" fill="#dee6fd" d="M 527.5,109.5 C 540.171,109.333 552.838,109.5 565.5,110C 566,110.5 566.5,111 567,111.5C 567.667,115.833 567.667,120.167 567,124.5C 566.5,125 566,125.5 565.5,126C 552.838,126.5 540.171,126.667 527.5,126.5C 527.5,120.833 527.5,115.167 527.5,109.5 Z"/></g>
<g><path style="opacity:1" fill="#b8b4b3" d="M 441.5,116.5 C 442.94,117.363 444.274,117.363 445.5,116.5C 446.429,117.689 446.762,119.022 446.5,120.5C 444.876,120.64 443.71,119.973 443,118.5C 442.667,118.833 442.333,119.167 442,119.5C 441.517,118.552 441.351,117.552 441.5,116.5 Z"/></g>
<g><path style="opacity:1" fill="#c6c6c6" d="M 457.5,115.5 C 458.75,115.577 459.583,116.244 460,117.5C 460.333,116.833 460.667,116.167 461,115.5C 463.312,115.955 465.312,116.955 467,118.5C 468.667,117.5 470.333,116.5 472,115.5C 472.494,117.134 472.66,118.801 472.5,120.5C 468.97,121.011 465.804,120.344 463,118.5C 461.937,119.438 460.77,120.438 459.5,121.5C 456.571,120.52 453.404,120.52 450,121.5C 447.935,120.372 447.268,118.706 448,116.5C 450.823,117.367 453.823,117.701 457,117.5C 457.464,116.906 457.631,116.239 457.5,115.5 Z"/></g>
<g><path style="opacity:1" fill="#a4a5b7" d="M 545.5,116.5 C 547.582,116.624 549.082,117.624 550,119.5C 551.247,117.119 551.58,117.453 551,120.5C 549.167,120.667 547.333,120.833 545.5,121C 544.272,119.51 544.272,118.01 545.5,116.5 Z"/></g>
<g><path style="opacity:1" fill="#a2a6b4" d="M 552.5,116.5 C 554.441,116.869 556.275,117.536 558,118.5C 558.333,118.167 558.667,117.833 559,117.5C 559.154,119.705 558.488,121.705 557,123.5C 557.488,119.77 556.155,119.436 553,122.5C 552.505,120.527 552.338,118.527 552.5,116.5 Z"/></g>
<g><path style="opacity:1" fill="#b8b8b9" d="M 475.5,116.5 C 478.817,116.781 481.983,116.781 485,116.5C 486.396,118.527 488.062,118.86 490,117.5C 490.333,118.167 490.667,118.833 491,119.5C 491.991,118.061 493.324,117.061 495,116.5C 497.4,116.218 499.9,116.552 502.5,117.5C 503.994,117.709 505.161,118.376 506,119.5C 507.688,117.955 509.688,116.955 512,116.5C 513.706,117.308 514.539,118.641 514.5,120.5C 500.579,120.67 486.912,120.67 473.5,120.5C 473.538,118.364 474.205,117.031 475.5,116.5 Z"/></g>
<g><path style="opacity:1" fill="#696d78" d="M 539.5,114.5 C 543.491,116.81 543.157,118.976 538.5,121C 535.866,121.925 534.699,121.091 535,118.5C 536.397,116.93 537.897,115.596 539.5,114.5 Z"/></g>
<g><path style="opacity:1" fill="#c4c5c7" d="M 24.5,128.5 C 24.5,129.833 24.5,131.167 24.5,132.5C 25.8333,132.5 27.1667,132.5 28.5,132.5C 25.0681,132.879 21.7347,132.879 18.5,132.5C 18.4832,127.115 20.4832,125.782 24.5,128.5 Z"/></g>
<g><path style="opacity:1" fill="#6e6e6e" d="M 8.5,128.5 C 9.16667,129.833 10.1667,130.833 11.5,131.5C 11.6495,132.552 11.4828,133.552 11,134.5C 8,129.167 5,129.167 2,134.5C 1.37596,132.536 1.87596,130.869 3.5,129.5C 2.04654,127.356 2.37987,125.523 4.5,124C 8.32385,123.643 9.65718,125.143 8.5,128.5 Z"/></g>
<g><path style="opacity:1" fill="#ececec" d="M 8.5,128.5 C 7.16667,128.5 5.83333,128.5 4.5,128.5C 4.5,127.5 4.5,126.5 4.5,125.5C 6.97259,125.088 8.30592,126.088 8.5,128.5 Z"/></g>
<g><path style="opacity:1" fill="#676767" d="M 11.5,131.5 C 11.5394,130.417 11.8728,129.417 12.5,128.5C 9.86935,126.995 10.2027,126.329 13.5,126.5C 13.75,129.214 13.9167,131.881 14,134.5C 13.6232,133.058 12.7899,132.058 11.5,131.5 Z"/></g>
<g><path style="opacity:1" fill="#8b8c91" d="M 51.5,128.5 C 52.675,128.281 53.675,128.614 54.5,129.5C 51.4143,133.657 50.4143,133.324 51.5,128.5 Z"/></g>
<g><path style="opacity:1" fill="#a29e9c" d="M 28.5,132.5 C 27.1667,132.5 25.8333,132.5 24.5,132.5C 24.5,131.167 24.5,129.833 24.5,128.5C 25.7942,132.223 26.9609,132.223 28,128.5C 28.3333,128.833 28.6667,129.167 29,129.5C 33.0512,125.207 34.5512,126.207 33.5,132.5C 31.5248,132.178 29.8582,132.178 28.5,132.5 Z"/></g>
<g><path style="opacity:1" fill="#aaaaaf" d="M 34.5,128.5 C 39.3535,128.909 44.3535,129.076 49.5,129C 46.8333,130 46.8333,131 49.5,132C 47.8659,132.494 46.1992,132.66 44.5,132.5C 44.4042,128.689 43.7376,128.689 42.5,132.5C 40.1667,133.833 37.8333,133.833 35.5,132.5C 34.5713,131.311 34.238,129.978 34.5,128.5 Z"/></g>
<g><path style="opacity:1" fill="#fefefe" d="M 594.5,280.5 C 596.882,279.454 599.215,279.454 601.5,280.5C 601.5,281.167 601.5,281.833 601.5,282.5C 568.427,282.826 535.427,282.492 502.5,281.5C 501.141,280.993 500.141,279.993 499.5,278.5C 498.833,279.5 498.167,280.5 497.5,281.5C 496.719,280.263 495.719,279.263 494.5,278.5C 493.28,279.711 492.113,279.711 491,278.5C 489.686,279.313 488.519,280.313 487.5,281.5C 487.331,280.603 486.998,279.603 486.5,278.5C 477.856,278.841 469.189,279.174 460.5,279.5C 458.675,278.349 456.675,277.682 454.5,277.5C 453.833,282.833 453.167,282.833 452.5,277.5C 450.833,277.5 449.167,277.5 447.5,277.5C 447.503,282.592 446.67,282.592 445,277.5C 443.812,278.563 443.312,279.897 443.5,281.5C 343.5,281.5 243.5,281.5 143.5,281.5C 132.167,281.5 120.833,281.5 109.5,281.5C 109.5,233.5 109.5,185.5 109.5,137.5C 209.167,137.333 308.834,137.5 408.5,138C 409.331,185.429 409.831,232.929 410,280.5C 410.833,89.8345 411.333,89.8345 411.5,280.5C 417.167,280.5 422.833,280.5 428.5,280.5C 428.5,264.167 428.5,247.833 428.5,231.5C 477.833,231.5 527.167,231.5 576.5,231.5C 576.5,247.833 576.5,264.167 576.5,280.5C 582.5,280.5 588.5,280.5 594.5,280.5 Z"/></g>
<g><path style="opacity:1" fill="#fdfdfd" d="M 429.5,143.5 C 478.168,143.333 526.834,143.5 575.5,144C 576.495,170.759 576.828,197.592 576.5,224.5C 527.499,224.667 478.499,224.5 429.5,224C 428.171,197.167 428.171,170.333 429.5,143.5 Z"/></g>
<g><path style="opacity:1" fill="#fbeef5" d="M -0.5,150.5 C 29.1667,150.5 58.8333,150.5 88.5,150.5C 88.826,169.41 88.4927,188.243 87.5,207C 58.1686,207.5 28.8352,207.667 -0.5,207.5C -0.5,188.5 -0.5,169.5 -0.5,150.5 Z"/></g>
<g><path style="opacity:1" fill="#717072" d="M 122.5,151.5 C 122.672,152.492 122.338,153.158 121.5,153.5C 117.921,153.234 117.587,151.901 120.5,149.5C 121.182,150.243 121.849,150.909 122.5,151.5 Z"/></g>
<g><path style="opacity:1" fill="#82766b" d="M 126.5,150.5 C 128.646,150.696 128.812,151.696 127,153.5C 126,150.833 125,150.833 124,153.5C 123.536,152.906 123.369,152.239 123.5,151.5C 124.209,150.596 125.209,150.263 126.5,150.5 Z"/></g>
<g><path style="opacity:1" fill="#bcbebe" d="M 121.5,153.5 C 122.338,153.158 122.672,152.492 122.5,151.5C 122.833,151.5 123.167,151.5 123.5,151.5C 123.369,152.239 123.536,152.906 124,153.5C 125,150.833 126,150.833 127,153.5C 128.812,151.696 128.646,150.696 126.5,150.5C 127.261,149.609 128.261,148.942 129.5,148.5C 131.868,150.223 134.534,150.89 137.5,150.5C 137.5,151.833 137.5,153.167 137.5,154.5C 135.876,154.64 134.71,153.973 134,152.5C 133,155.167 132,155.167 131,152.5C 129.647,153.704 127.981,154.371 126,154.5C 124.293,154.492 122.793,154.158 121.5,153.5 Z"/></g>
<g><path style="opacity:1" fill="#97989a" d="M 140.5,149.5 C 142.741,150.3 143.741,151.966 143.5,154.5C 142.448,154.649 141.448,154.483 140.5,154C 141.413,152.586 141.413,151.086 140.5,149.5 Z"/></g>
<g><path style="opacity:1" fill="#a7a6a8" d="M 147.5,148.5 C 149.1,149.252 150.6,150.252 152,151.5C 155.912,150.926 159.745,149.926 163.5,148.5C 165.136,149.304 166.636,150.304 168,151.5C 170.719,150.556 173.552,150.223 176.5,150.5C 176.328,154.971 175.494,155.304 174,151.5C 172.471,152.583 170.971,153.583 169.5,154.5C 166.947,154.055 164.28,154.055 161.5,154.5C 161.167,150.5 160.833,150.5 160.5,154.5C 155.067,153.636 149.734,153.636 144.5,154.5C 144.343,153.127 144.51,151.793 145,150.5C 145.333,151.167 145.667,151.833 146,152.5C 146.791,151.255 147.291,149.922 147.5,148.5 Z"/></g>
<g><path style="opacity:1" fill="#e77fb0" d="M 31.5,155.5 C 44.5043,155.333 57.5043,155.5 70.5,156C 71,156.5 71.5,157 72,157.5C 72.6667,161.167 72.6667,164.833 72,168.5C 58.5752,169.656 45.0752,169.822 31.5,169C 30.1943,164.501 30.1943,160.001 31.5,155.5 Z"/></g>
<g><path style="opacity:1" fill="#aeafad" d="M 437.5,154.5 C 440.73,154.561 442.563,156.228 443,159.5C 444.043,155.774 444.543,156.107 444.5,160.5C 442.5,160.5 440.5,160.5 438.5,160.5C 438.167,158.5 437.833,156.5 437.5,154.5 Z"/></g>
<g><path style="opacity:1" fill="#939597" d="M 459.5,155.5 C 460.75,155.577 461.583,156.244 462,157.5C 462.718,156.549 463.551,156.383 464.5,157C 463.359,157.741 463.359,158.575 464.5,159.5C 461.833,160.833 459.167,160.833 456.5,159.5C 457.172,157.84 458.172,156.507 459.5,155.5 Z"/></g>
<g><path style="opacity:1" fill="#a29d9d" d="M 454.5,154.5 C 455.622,156.288 455.789,158.288 455,160.5C 454.374,158.009 453.541,158.009 452.5,160.5C 450.345,160.162 448.011,160.162 445.5,160.5C 445.5,159.167 445.5,157.833 445.5,156.5C 447.467,156.261 449.301,156.594 451,157.5C 452.729,157.026 453.895,156.026 454.5,154.5 Z"/></g>
<g><path style="opacity:1" fill="#e0e0e0" d="M 176.5,159.5 C 181.203,161.585 186.037,161.585 191,159.5C 195.247,161.694 199.414,162.027 203.5,160.5C 204.833,161.833 204.833,163.167 203.5,164.5C 202.833,163.833 202.167,163.167 201.5,162.5C 200.449,163.885 199.116,164.885 197.5,165.5C 196.167,164.167 194.833,164.167 193.5,165.5C 191.566,165.099 190.066,164.099 189,162.5C 188.517,163.448 188.351,164.448 188.5,165.5C 182.537,165.359 176.537,165.359 170.5,165.5C 168.833,161.167 170.167,159.833 174.5,161.5C 175.713,161.253 176.38,160.586 176.5,159.5 Z"/></g>
<g><path style="opacity:1" fill="#70787d" d="M 11.5,159.5 C 13.6348,159.147 14.9681,159.98 15.5,162C 11.9425,166.783 10.6092,165.95 11.5,159.5 Z"/></g>
<g><path style="opacity:1" fill="#837b89" d="M 22.5,161.5 C 23.8333,161.5 25.1667,161.5 26.5,161.5C 26.6567,162.873 26.49,164.207 26,165.5C 25,162.833 24,162.833 23,165.5C 22.51,164.207 22.3433,162.873 22.5,161.5 Z"/></g>
<g><path style="opacity:1" fill="#f0adcd" d="M 47.5,160.5 C 53.1675,161.786 58.8342,161.786 64.5,160.5C 69.6728,162.565 69.3394,164.231 63.5,165.5C 60.263,163.985 57.263,164.319 54.5,166.5C 53.3175,164.355 51.8175,164.355 50,166.5C 49.6667,165.5 49.3333,164.5 49,163.5C 48.6667,163.833 48.3333,164.167 48,164.5C 47.51,163.207 47.3433,161.873 47.5,160.5 Z"/></g>
<g><path style="opacity:1" fill="#dcdcdc" d="M 118.5,159.5 C 121.39,159.278 124.057,159.945 126.5,161.5C 130.039,161.757 133.706,161.424 137.5,160.5C 137.33,161.822 137.663,162.989 138.5,164C 137.975,164.692 137.308,165.192 136.5,165.5C 134.291,164.894 132.124,164.227 130,163.5C 128.984,164.634 128.317,164.301 128,162.5C 126.667,165.167 125.333,165.167 124,162.5C 122.732,165.062 120.898,165.728 118.5,164.5C 119.052,162.997 119.052,161.331 118.5,159.5 Z"/></g>
<g><path style="opacity:1" fill="#ec579e" d="M 362.5,160.5 C 363.5,160.5 364.5,160.5 365.5,160.5C 365.5,161.5 365.5,162.5 365.5,163.5C 364.5,163.5 363.5,163.5 362.5,163.5C 362.5,162.5 362.5,161.5 362.5,160.5 Z"/></g>
<g><path style="opacity:1" fill="#d0d0d0" d="M 369.5,159.5 C 370.915,161.474 372.415,162.807 374,163.5C 374.347,161.82 375.347,160.82 377,160.5C 384.56,160.64 392.393,160.64 400.5,160.5C 400.5,161.833 400.5,163.167 400.5,164.5C 395.678,165.065 391.178,164.399 387,162.5C 386.5,163 386,163.5 385.5,164C 380.167,164.667 374.833,164.667 369.5,164C 369.966,162.701 369.966,161.201 369.5,159.5 Z"/></g>
<g><path style="opacity:1" fill="#8a8086" d="M 16.5,159.5 C 17.29,160.609 17.79,161.942 18,163.5C 18.7096,162.027 19.8762,161.36 21.5,161.5C 21.5,162.833 21.5,164.167 21.5,165.5C 19.8333,165.5 18.1667,165.5 16.5,165.5C 16.5,163.5 16.5,161.5 16.5,159.5 Z"/></g>
<g><path style="opacity:1" fill="#f8d9e7" d="M 38.5,159.5 C 39.452,160.452 40.452,161.452 41.5,162.5C 40.5197,163.981 39.353,165.315 38,166.5C 37.3828,165.551 37.5494,164.718 38.5,164C 37.6919,163.692 37.0253,163.192 36.5,162.5C 37.1925,161.482 37.8592,160.482 38.5,159.5 Z"/></g>
<g><path style="opacity:1" fill="#cfcfcf" d="M 440.5,166.5 C 444.5,166.5 448.5,166.5 452.5,166.5C 452.5,167.5 452.5,168.5 452.5,169.5C 450.549,169.773 449.049,169.107 448,167.5C 446.695,170.306 444.528,171.14 441.5,170C 440.663,168.989 440.33,167.822 440.5,166.5 Z"/></g>
<g><path style="opacity:1" fill="#cecece" d="M 454.5,166.5 C 458.167,166.5 461.833,166.5 465.5,166.5C 465.5,167.5 465.5,168.5 465.5,169.5C 463.856,169.714 462.356,169.38 461,168.5C 459.172,170.807 457.506,170.474 456,167.5C 454.913,169.932 454.413,169.598 454.5,166.5 Z"/></g>
<g><path style="opacity:1" fill="#c7c7c7" d="M 554.5,165.5 C 557.063,166.998 557.063,168.665 554.5,170.5C 552.884,169.885 551.551,168.885 550.5,167.5C 547.918,171.8 546.584,171.467 546.5,166.5C 549.385,166.806 552.052,166.473 554.5,165.5 Z"/></g>
<g><path style="opacity:1" fill="#c9c9c9" d="M 475.5,166.5 C 478.167,166.5 480.833,166.5 483.5,166.5C 483.657,167.873 483.49,169.207 483,170.5C 481.732,170.384 480.398,170.051 479,169.5C 476.934,172.298 475.434,171.965 474.5,168.5C 474.863,167.817 475.196,167.15 475.5,166.5 Z"/></g>
<g><path style="opacity:1" fill="#c8c8c8" d="M 495.5,165.5 C 497.441,165.869 499.275,166.536 501,167.5C 504.164,164.855 505.331,165.855 504.5,170.5C 501.863,169.768 499.363,169.768 497,170.5C 496.751,169.376 496.251,168.376 495.5,167.5C 494.646,168.522 493.646,169.355 492.5,170C 490.343,170.078 488.343,170.245 486.5,170.5C 485.571,169.311 485.238,167.978 485.5,166.5C 489.042,166.813 492.375,166.479 495.5,165.5 Z"/></g>
<g><path style="opacity:1" fill="#cccccc" d="M 515.5,165.5 C 517.017,165.511 518.184,166.177 519,167.5C 522.333,166.167 525.667,166.167 529,167.5C 529.689,166.643 530.522,165.977 531.5,165.5C 534.777,166.254 538.11,166.754 541.5,167C 543.985,168.223 544.152,169.723 542,171.5C 541.161,170.376 539.994,169.709 538.5,169.5C 534.114,169.539 529.781,169.872 525.5,170.5C 523.971,170.471 522.804,169.804 522,168.5C 521.692,169.308 521.192,169.975 520.5,170.5C 519.5,169.167 518.5,169.167 517.5,170.5C 515.783,169.332 515.116,167.665 515.5,165.5 Z"/></g>
<g><path style="opacity:1" fill="#d3b3c1" d="M 3.5,173.5 C 6.14261,173.262 8.80927,173.262 11.5,173.5C 12.2508,174.376 12.7508,175.376 13,176.5C 16.3688,170.876 17.8688,171.543 17.5,178.5C 13.0655,177.726 8.73213,177.393 4.5,177.5C 4.76781,175.901 4.43448,174.568 3.5,173.5 Z"/></g>
<g><path style="opacity:1" fill="#cdcdcd" d="M 440.5,174.5 C 444.376,174.537 448.376,175.037 452.5,176C 451.359,176.741 451.359,177.575 452.5,178.5C 447.58,178.849 442.58,178.849 437.5,178.5C 437.413,175.402 437.913,175.068 439,177.5C 439.513,176.473 440.013,175.473 440.5,174.5 Z"/></g>
<g><path style="opacity:1" fill="#d9bdc9" d="M 26.5,172.5 C 28.1703,172.751 29.6703,173.418 31,174.5C 35.105,173.653 39.2717,172.987 43.5,172.5C 43.3433,173.873 43.51,175.207 44,176.5C 44.5,175.333 45.3333,174.5 46.5,174C 49.146,173.503 51.8127,173.336 54.5,173.5C 54.7852,175.288 54.4519,176.955 53.5,178.5C 52.2624,174.689 51.5958,174.689 51.5,178.5C 48.9885,178.162 46.6552,178.162 44.5,178.5C 42.5658,178.099 41.0658,177.099 40,175.5C 39.6532,177.18 38.6532,178.18 37,178.5C 32.8919,177.385 28.7252,177.385 24.5,178.5C 23.3861,177.277 23.2195,175.944 24,174.5C 24.3333,175.167 24.6667,175.833 25,176.5C 25.7914,175.255 26.2914,173.922 26.5,172.5 Z"/></g>
<g><path style="opacity:1" fill="#cecece" d="M 501.5,174.5 C 504.389,175.008 507.222,175.675 510,176.5C 511.77,174.582 513.937,174.082 516.5,175C 518.848,176.688 519.015,178.522 517,180.5C 515.649,179.039 514.149,177.706 512.5,176.5C 512.331,177.397 511.998,178.397 511.5,179.5C 510.268,178.855 508.935,178.689 507.5,179C 506.874,178.25 506.374,177.416 506,176.5C 504.23,178.418 502.063,178.918 499.5,178C 500.167,177.667 500.833,177.333 501.5,177C 500.402,176.23 500.402,175.397 501.5,174.5 Z"/></g>
<g><path style="opacity:1" fill="#d1d1d1" d="M 520.5,174.5 C 525.103,175.383 529.77,175.717 534.5,175.5C 534.5,176.5 534.5,177.5 534.5,178.5C 529.529,179.766 524.862,179.766 520.5,178.5C 520.5,177.167 520.5,175.833 520.5,174.5 Z"/></g>
<g><path style="opacity:1" fill="#cecece" d="M 474.5,174.5 C 481.419,174.554 488.419,175.22 495.5,176.5C 496.167,177.167 496.833,177.833 497.5,178.5C 494.23,180.214 491.73,179.548 490,176.5C 489.3,178.032 488.134,179.032 486.5,179.5C 484.039,178.398 481.539,178.398 479,179.5C 476.581,178.664 475.081,176.997 474.5,174.5 Z"/></g>
<g><path style="opacity:1" fill="#cccccc" d="M 451.5,183.5 C 456.468,184.164 461.468,184.664 466.5,185C 465.031,188.93 463.864,189.097 463,185.5C 458.142,187.414 452.975,188.081 447.5,187.5C 447.5,186.5 447.5,185.5 447.5,184.5C 449.099,184.768 450.432,184.434 451.5,183.5 Z"/></g>
<g><path style="opacity:1" fill="#e7e1e8" d="M 2.5,183.5 C 29.1687,183.333 55.8354,183.5 82.5,184C 83.9255,185.714 83.5922,187.047 81.5,188C 55.8333,188.667 30.1667,188.667 4.5,188C 2.89339,186.951 2.22672,185.451 2.5,183.5 Z"/></g>
<g><path style="opacity:1" fill="#c3c3c3" d="M 437.5,183.5 C 440.141,185.514 442.974,185.514 446,183.5C 446.167,183.833 446.333,184.167 446.5,184.5C 445.855,185.732 445.689,187.065 446,188.5C 443.176,186.902 440.342,186.568 437.5,187.5C 437.5,186.167 437.5,184.833 437.5,183.5 Z"/></g>
<g><path style="opacity:1" fill="#c6c6c6" d="M 467.5,183.5 C 472.128,183.232 476.795,183.565 481.5,184.5C 481.587,187.598 481.087,187.932 480,185.5C 479.333,188.167 478.667,188.167 478,185.5C 474.851,187.362 471.351,188.029 467.5,187.5C 467.5,186.167 467.5,184.833 467.5,183.5 Z"/></g>
<g><path style="opacity:1" fill="#d2b4c1" d="M 27.5,193.5 C 28.8016,194.807 30.135,194.807 31.5,193.5C 33.0981,195.973 34.5981,195.973 36,193.5C 38.1027,195.737 37.9361,197.737 35.5,199.5C 32.4931,199.16 29.4931,199.16 26.5,199.5C 26.3253,197.379 26.6586,195.379 27.5,193.5 Z"/></g>
<g><path style="opacity:1" fill="#cdacb9" d="M 45.5,193.5 C 47.3694,195.889 49.2028,195.889 51,193.5C 51.3333,194.5 51.6667,195.5 52,196.5C 54.5697,195.991 56.9031,194.991 59,193.5C 59.4955,195.473 59.6621,197.473 59.5,199.5C 57.5165,199.617 55.8498,198.95 54.5,197.5C 53.3044,197.846 53.3044,198.346 54.5,199C 53.5,199.167 52.5,199.333 51.5,199.5C 47.414,199.335 43.414,199.335 39.5,199.5C 39.5,198.167 39.5,196.833 39.5,195.5C 40.8221,195.33 41.9887,195.663 43,196.5C 44.417,195.922 45.2504,194.922 45.5,193.5 Z"/></g>
<g><path style="opacity:1" fill="#d5b7c5" d="M 18.5,193.5 C 19.9403,194.363 21.2736,194.363 22.5,193.5C 25.1667,195.5 25.1667,197.5 22.5,199.5C 20.9974,198.948 19.3307,198.948 17.5,199.5C 17.3253,197.379 17.6586,195.379 18.5,193.5 Z"/></g>
<g><path style="opacity:1" fill="#f9cde5" d="M 438.5,200.5 C 453.504,200.333 468.504,200.5 483.5,201C 484.632,205.413 484.799,209.913 484,214.5C 483.5,215 483,215.5 482.5,216C 468.167,216.667 453.833,216.667 439.5,216C 439,215.5 438.5,215 438,214.5C 437.227,209.748 437.393,205.081 438.5,200.5 Z"/></g>
<g><path style="opacity:1" fill="#ebebeb" d="M 92.5,203.5 C 92.8333,203.5 93.1667,203.5 93.5,203.5C 95.1667,203.5 96.8333,203.5 98.5,203.5C 98.8333,203.5 99.1667,203.5 99.5,203.5C 99.4595,229.666 99.4595,255.666 99.5,281.5C 102.833,281.5 106.167,281.5 109.5,281.5C 120.833,281.5 132.167,281.5 143.5,281.5C 143.5,281.833 143.5,282.167 143.5,282.5C 143.5,283.167 143.5,283.833 143.5,284.5C 100.833,284.5 58.1667,284.5 15.5,284.5C 10.6042,282.554 5.27087,281.887 -0.5,282.5C -0.5,282.167 -0.5,281.833 -0.5,281.5C 30.5,281.5 61.5,281.5 92.5,281.5C 92.5,255.5 92.5,229.5 92.5,203.5 Z"/></g>
<g><path style="opacity:1" fill="#d29eb8" d="M 444.5,205.5 C 447.05,205.561 448.55,206.894 449,209.5C 451.176,205.893 453.843,205.559 457,208.5C 458.333,207.167 459.667,207.167 461,208.5C 465.333,205.577 467.166,206.577 466.5,211.5C 463.655,211.167 461.155,210.167 459,208.5C 458.009,209.939 456.676,210.939 455,211.5C 451.929,210.862 448.763,210.862 445.5,211.5C 445.483,209.435 445.15,207.435 444.5,205.5 Z"/></g>
<g><path style="opacity:1" fill="#757575" d="M 6.5,221.5 C 12.849,222.027 15.0157,225.361 13,231.5C 7.66083,235.825 4.16083,234.659 2.5,228C 2.66667,226.833 2.83333,225.667 3,224.5C 4.51845,223.837 5.68512,222.837 6.5,221.5 Z"/></g>
<g><path style="opacity:1" fill="#efeff0" d="M 594.5,-0.5 C 596.833,-0.5 599.167,-0.5 601.5,-0.5C 601.5,1.16667 601.5,2.83333 601.5,4.5C 599.5,4.5 597.5,4.5 595.5,4.5C 595.5,77.1667 595.5,149.833 595.5,222.5C 597.5,222.5 599.5,222.5 601.5,222.5C 601.5,241.833 601.5,261.167 601.5,280.5C 599.215,279.454 596.882,279.454 594.5,280.5C 594.5,186.833 594.5,93.1667 594.5,-0.5 Z"/></g>
<g><path style="opacity:1" fill="#f4f4f4" d="M 9.5,225.5 C 8.5,225.5 7.5,225.5 6.5,225.5C 7.26007,223.015 8.26007,223.015 9.5,225.5 Z"/></g>
<g><path style="opacity:1" fill="#a1a2a5" d="M 19.5,224.5 C 22.7181,224.651 23.0515,225.484 20.5,227C 22.0368,228.11 22.7035,229.61 22.5,231.5C 18.1074,231.543 17.7741,231.043 21.5,230C 18.7669,228.772 18.1002,226.939 19.5,224.5 Z"/></g>
<g><path style="opacity:1" fill="#b5adb8" d="M 33.5,224.5 C 34.7251,225.152 35.3917,226.319 35.5,228C 35.6069,232.447 34.7736,232.614 33,228.5C 32.3507,231.937 31.8507,232.104 31.5,229C 32.0735,227.393 32.7402,225.893 33.5,224.5 Z"/></g>
<g><path style="opacity:1" fill="#9a979c" d="M 42.5,226.5 C 44.8896,226.685 45.8896,228.018 45.5,230.5C 45.7394,233.946 44.4061,234.946 41.5,233.5C 42.325,232.614 43.325,232.281 44.5,232.5C 44.762,231.022 44.4287,229.689 43.5,228.5C 42.2888,229.274 42.2888,230.107 43.5,231C 41.1403,230.36 40.807,228.86 42.5,226.5 Z"/></g>
<g><path style="opacity:1" fill="#e7e7e7" d="M 6.5,225.5 C 4.88943,227.833 5.38943,229.5 8,230.5C 10.6106,229.5 11.1106,227.833 9.5,225.5C 10.552,225.351 11.552,225.517 12.5,226C 11.1667,227.333 11.1667,228.667 12.5,230C 9.5,233.333 6.5,233.333 3.5,230C 4.83333,228.667 4.83333,227.333 3.5,226C 4.44802,225.517 5.44802,225.351 6.5,225.5 Z"/></g>
<g><path style="opacity:1" fill="#8c8c8c" d="M 6.5,225.5 C 7.5,225.5 8.5,225.5 9.5,225.5C 11.1106,227.833 10.6106,229.5 8,230.5C 5.38943,229.5 4.88943,227.833 6.5,225.5 Z"/></g>
<g><path style="opacity:1" fill="#b8bbbb" d="M 24.5,226.5 C 26.3888,227.38 28.3888,227.38 30.5,226.5C 30.5,228.167 30.5,229.833 30.5,231.5C 24.7155,233.963 22.7155,232.296 24.5,226.5 Z"/></g>
<g><path style="opacity:1" fill="#9aa3a6" d="M 36.5,226.5 C 40.0714,226.408 41.2381,228.074 40,231.5C 39,227.5 38,227.5 37,231.5C 36.5065,229.866 36.3398,228.199 36.5,226.5 Z"/></g>
<g><path style="opacity:1" fill="#a8a9ac" d="M 47.5,226.5 C 49.256,227.552 49.9227,229.219 49.5,231.5C 48.448,231.649 47.448,231.483 46.5,231C 46.4698,229.571 46.8031,228.071 47.5,226.5 Z"/></g>
<g><path style="opacity:1" fill="#b4b0b6" d="M 258.5,229.5 C 261.986,230.953 265.653,231.619 269.5,231.5C 269.949,233.977 269.283,235.977 267.5,237.5C 267.268,235.668 266.102,234.002 264,232.5C 262.432,234.237 260.432,235.237 258,235.5C 255.333,235.5 252.667,235.5 250,235.5C 247.659,234.993 247.159,233.826 248.5,232C 249.784,231.316 250.951,231.483 252,232.5C 252.959,230.342 254.459,230.009 256.5,231.5C 257.713,231.253 258.38,230.586 258.5,229.5 Z"/></g>
<g><path style="opacity:1" fill="#939092" d="M 440.5,242.5 C 441.931,242.881 442.764,243.881 443,245.5C 444.333,244.167 445.667,244.167 447,245.5C 449.367,244.953 451.533,243.953 453.5,242.5C 454.466,244.396 454.799,246.396 454.5,248.5C 452.516,248.617 450.85,247.95 449.5,246.5C 449.167,247.167 448.833,247.833 448.5,248.5C 447.5,247.833 446.5,247.167 445.5,246.5C 445.167,247.167 444.833,247.833 444.5,248.5C 443.5,247.167 442.5,247.167 441.5,248.5C 440.808,247.975 440.308,247.308 440,246.5C 438.768,249.23 437.935,249.063 437.5,246C 438.408,244.402 439.408,243.236 440.5,242.5 Z"/></g>
<g><path style="opacity:1" fill="#98989a" d="M 457.5,242.5 C 459.927,246.197 462.594,246.197 465.5,242.5C 466.328,243.415 467.328,244.081 468.5,244.5C 470.056,243.453 471.723,242.786 473.5,242.5C 473.313,244.564 472.813,246.564 472,248.5C 471.667,247.5 471.333,246.5 471,245.5C 469.086,250.377 466.586,250.71 463.5,246.5C 463.167,247.167 462.833,247.833 462.5,248.5C 460.866,248.032 459.7,247.032 459,245.5C 458.667,246.167 458.333,246.833 458,247.5C 457.506,245.866 457.34,244.199 457.5,242.5 Z"/></g>
<g><path style="opacity:1" fill="#989394" d="M 18.5,256.5 C 19.9663,257.347 20.7996,258.68 21,260.5C 21.3333,259.5 21.6667,258.5 22,257.5C 22.6543,256.304 23.1543,256.304 23.5,257.5C 20.9781,264.291 19.3115,263.958 18.5,256.5 Z"/></g>
<g><path style="opacity:1" fill="#9c9b9b" d="M 27.5,257.5 C 29.1703,257.751 30.6703,258.418 32,259.5C 33.8333,259.333 35.6667,259.167 37.5,259C 36.9288,260.205 36.2621,261.372 35.5,262.5C 34.8076,261.975 34.3076,261.308 34,260.5C 33.6924,261.308 33.1924,261.975 32.5,262.5C 31.1456,260.816 29.4789,260.316 27.5,261C 28.6956,261.654 28.6956,262.154 27.5,262.5C 26.3336,260.833 26.3336,259.166 27.5,257.5 Z"/></g>
<g><path style="opacity:1" fill="#c4c2c3" d="M 41.5,255.5 C 42.9403,256.363 44.2736,256.363 45.5,255.5C 47.4396,257.045 48.6062,259.045 49,261.5C 49.6152,259.884 50.6152,258.551 52,257.5C 52.6924,258.025 53.1924,258.692 53.5,259.5C 52.1218,261.213 50.4552,262.547 48.5,263.5C 46.1667,262.167 43.8333,262.167 41.5,263.5C 38.9244,262.117 39.2577,261.283 42.5,261C 41.5,260.167 40.5,259.333 39.5,258.5C 40.1925,257.482 40.8592,256.482 41.5,255.5 Z"/></g>
<g><path style="opacity:1" fill="#dcdcdc" d="M 4.5,258.5 C 5.16667,259.5 5.83333,260.5 6.5,261.5C 5.92317,262.773 5.2565,262.773 4.5,261.5C 3.34732,260.313 3.34732,259.313 4.5,258.5 Z"/></g>
<g><path style="opacity:1" fill="#606060" d="M 3.5,256.5 C 3.83333,257.167 4.16667,257.833 4.5,258.5C 3.34732,259.313 3.34732,260.313 4.5,261.5C 5.2565,262.773 5.92317,262.773 6.5,261.5C 7.40397,262.209 7.73731,263.209 7.5,264.5C 5.60963,264.703 4.10963,264.037 3,262.5C 2.21086,260.288 2.37753,258.288 3.5,256.5 Z"/></g>
<g><path style="opacity:1" fill="#212121" d="M 11.5,255.5 C 14.8446,260.335 13.5113,263.335 7.5,264.5C 7.73731,263.209 7.40397,262.209 6.5,261.5C 5.83333,260.5 5.16667,259.5 4.5,258.5C 4.16667,257.833 3.83333,257.167 3.5,256.5C 5.85912,253.024 8.52579,252.691 11.5,255.5 Z"/></g>
<g><path style="opacity:1" fill="#d6d6d6" d="M 11.5,255.5 C 13.0643,261.937 11.3976,262.937 6.5,258.5C 7.42091,256.244 9.08757,255.244 11.5,255.5 Z"/></g>
<g><path style="opacity:1" fill="#9b9b9b" d="M 494.5,262.5 C 493.761,262.631 493.094,262.464 492.5,262C 493.337,260.989 493.67,259.822 493.5,258.5C 494.5,258.5 495.5,258.5 496.5,258.5C 496.473,260.199 495.806,261.533 494.5,262.5 Z"/></g>
<g><path style="opacity:1" fill="#b6b3b4" d="M 443.5,259.5 C 445.827,259.665 447.993,260.331 450,261.5C 451.945,260.308 453.945,260.308 456,261.5C 457.285,261.05 458.452,260.383 459.5,259.5C 461.717,261.679 463.717,261.679 465.5,259.5C 466.192,260.025 466.692,260.692 467,261.5C 468.799,261.279 470.632,260.946 472.5,260.5C 473.429,261.689 473.762,263.022 473.5,264.5C 471.278,264.178 469.444,264.845 468,266.5C 467.667,265.5 467.333,264.5 467,263.5C 463.053,264.156 459.053,264.489 455,264.5C 454.667,263.833 454.333,263.167 454,262.5C 452,265.167 450,265.167 448,262.5C 447.323,264.689 446.156,265.022 444.5,263.5C 443.571,262.311 443.238,260.978 443.5,259.5 Z"/></g>
<g><path style="opacity:1" fill="#b3adaf" d="M 475.5,259.5 C 477.017,259.511 478.184,260.177 479,261.5C 481.447,261.039 483.947,260.706 486.5,260.5C 487.833,261.833 487.833,263.167 486.5,264.5C 482.858,264.243 479.192,264.243 475.5,264.5C 475.5,262.833 475.5,261.167 475.5,259.5 Z"/></g>
<g><path style="opacity:1" fill="#9b9b9b" d="M 494.5,262.5 C 495.043,262.56 495.376,262.893 495.5,263.5C 493.955,264.452 492.288,264.785 490.5,264.5C 490.215,262.712 490.548,261.045 491.5,259.5C 491.906,260.557 491.906,261.891 491.5,263.5C 492.791,263.737 493.791,263.404 494.5,262.5 Z"/></g>
<g><path style="opacity:1" fill="#555555" d="M 502.5,277.5 C 504.337,277.639 504.67,278.306 503.5,279.5C 502.702,279.043 502.369,278.376 502.5,277.5 Z"/></g>
<g><path style="opacity:1" fill="#b3b6b7" d="M 502.5,281.5 C 486.675,282.496 470.675,282.83 454.5,282.5C 401.833,282.5 349.167,282.5 296.5,282.5C 289.5,282.5 282.5,282.5 275.5,282.5C 231.5,282.5 187.5,282.5 143.5,282.5C 143.5,282.167 143.5,281.833 143.5,281.5C 243.5,281.5 343.5,281.5 443.5,281.5C 443.312,279.897 443.812,278.563 445,277.5C 446.67,282.592 447.503,282.592 447.5,277.5C 449.167,277.5 450.833,277.5 452.5,277.5C 453.167,282.833 453.833,282.833 454.5,277.5C 456.675,277.682 458.675,278.349 460.5,279.5C 469.189,279.174 477.856,278.841 486.5,278.5C 486.998,279.603 487.331,280.603 487.5,281.5C 488.519,280.313 489.686,279.313 491,278.5C 492.113,279.711 493.28,279.711 494.5,278.5C 495.719,279.263 496.719,280.263 497.5,281.5C 498.167,280.5 498.833,279.5 499.5,278.5C 500.141,279.993 501.141,280.993 502.5,281.5 Z"/></g>
<g><path style="opacity:1" fill="#2b3f48" d="M 143.5,282.5 C 187.5,282.5 231.5,282.5 275.5,282.5C 275.5,283.167 275.5,283.833 275.5,284.5C 231.5,284.5 187.5,284.5 143.5,284.5C 143.5,283.833 143.5,283.167 143.5,282.5 Z"/></g>
<g><path style="opacity:1" fill="#354552" d="M 296.5,282.5 C 349.167,282.5 401.833,282.5 454.5,282.5C 409.5,283.167 364.5,283.833 319.5,284.5C 311.833,284.5 304.167,284.5 296.5,284.5C 296.5,283.833 296.5,283.167 296.5,282.5 Z"/></g>
<g><path style="opacity:1" fill="#243943" d="M -0.5,282.5 C 5.27087,281.887 10.6042,282.554 15.5,284.5C 10.1667,284.5 4.83333,284.5 -0.5,284.5C -0.5,283.833 -0.5,283.167 -0.5,282.5 Z"/></g>
<g><path style="opacity:1" fill="#a66833" d="M 275.5,282.5 C 282.5,282.5 289.5,282.5 296.5,282.5C 296.5,283.167 296.5,283.833 296.5,284.5C 289.5,284.5 282.5,284.5 275.5,284.5C 275.5,283.833 275.5,283.167 275.5,282.5 Z"/></g>
<g><path style="opacity:1" fill="#1c2c3f" d="M 502.5,281.5 C 535.427,282.492 568.427,282.826 601.5,282.5C 601.5,283.167 601.5,283.833 601.5,284.5C 507.5,284.5 413.5,284.5 319.5,284.5C 364.5,283.833 409.5,283.167 454.5,282.5C 470.675,282.83 486.675,282.496 502.5,281.5 Z"/></g>
</svg>
