<?xml version="1.0" encoding="UTF-8"?>
<!DOCTYPE svg PUBLIC "-//W3C//DTD SVG 1.1//EN" "http://www.w3.org/Graphics/SVG/1.1/DTD/svg11.dtd">
<svg xmlns="http://www.w3.org/2000/svg" version="1.1" width="602px" height="284px" style="shape-rendering:geometricPrecision; text-rendering:geometricPrecision; image-rendering:optimizeQuality; fill-rule:evenodd; clip-rule:evenodd" xmlns:xlink="http://www.w3.org/1999/xlink">
<g><path style="opacity:1" fill="#fefefe" d="M -0.5,-0.5 C 184.167,-0.5 368.833,-0.5 553.5,-0.5C 551.374,2.09614 551.041,4.92947 552.5,8C 559.833,8.66667 567.167,8.66667 574.5,8C 575.959,4.92947 575.626,2.09614 573.5,-0.5C 581.167,-0.5 588.833,-0.5 596.5,-0.5C 596.5,3.83333 596.5,8.16667 596.5,12.5C 405.127,12.1691 213.793,12.5024 22.5,13.5C 14.8252,13.6802 7.15848,14.0135 -0.5,14.5C -0.5,9.5 -0.5,4.5 -0.5,-0.5 Z"/></g>
<g><path style="opacity:1" fill="#4e4e4e" d="M 3.5,0.5 C 6.24649,0.927598 7.91315,2.59426 8.5,5.5C 7.18448,9.47892 5.85115,9.47892 4.5,5.5C 2.91464,8.2724 1.91464,8.10573 1.5,5C 1.51857,3.16698 2.18523,1.66698 3.5,0.5 Z"/></g>
<g><path style="opacity:1" fill="#bcbab9" d="M 274.5,2.5 C 277.716,3.02953 280.883,3.69619 284,4.5C 285.342,3.09773 286.176,3.43107 286.5,5.5C 285.637,7.87176 284.471,7.87176 283,5.5C 280.25,6.29111 277.417,6.29111 274.5,5.5C 274.5,4.5 274.5,3.5 274.5,2.5 Z"/></g>
<g><path style="opacity:1" fill="#c3c2c3" d="M 322.5,2.5 C 325.127,3.10487 327.793,3.60487 330.5,4C 330.957,4.41395 331.291,4.91395 331.5,5.5C 328.07,6.0093 324.737,6.34263 321.5,6.5C 321.433,5.04125 321.766,3.70792 322.5,2.5 Z"/></g>
<g><path style="opacity:1" fill="#c0c0c0" d="M 601.5,3.5 C 601.5,29.5 601.5,55.5 601.5,81.5C 600.167,81.5 598.833,81.5 597.5,81.5C 597.5,55.5 597.5,29.5 597.5,3.5C 598.833,3.5 600.167,3.5 601.5,3.5 Z"/></g>
<g><path style="opacity:1" fill="#bbbbbc" d="M 295.5,2.5 C 298.516,3.05869 301.516,3.72535 304.5,4.5C 307.421,3.59339 310.421,3.26006 313.5,3.5C 313.5,4.5 313.5,5.5 313.5,6.5C 308.307,6.11358 302.974,5.94692 297.5,6C 296.027,5.29044 295.36,4.12377 295.5,2.5 Z"/></g>
<g><path style="opacity:1" fill="#9562fd" d="M 579.5,0.5 C 581.527,0.337876 583.527,0.504543 585.5,1C 588.119,3.25653 588.119,5.4232 585.5,7.5C 583.38,6.59665 583.046,5.26332 584.5,3.5C 583.675,2.61432 582.675,2.28099 581.5,2.5C 581.884,4.66485 581.217,6.33152 579.5,7.5C 578.286,5.14135 578.286,2.80801 579.5,0.5 Z"/></g>
<g><path style="opacity:1" fill="#9e9ba2" d="M 34.5,3.5 C 38.3404,4.56784 38.5071,6.23451 35,8.5C 33.9887,7.66337 32.8221,7.33003 31.5,7.5C 31.5,6.5 31.5,5.5 31.5,4.5C 32.791,4.73731 33.791,4.40397 34.5,3.5 Z"/></g>
<g><path style="opacity:1" fill="#b5b3b3" d="M 250.5,3.5 C 253.711,3.01202 256.544,3.67869 259,5.5C 260.754,3.74999 262.921,3.08332 265.5,3.5C 265.5,4.5 265.5,5.5 265.5,6.5C 261.314,6.20838 256.98,6.04172 252.5,6C 251.244,5.58309 250.577,4.74975 250.5,3.5 Z"/></g>
<g><path style="opacity:1" fill="#aaa9a6" d="M 14.5,3.5 C 15.7498,3.57735 16.5831,4.24402 17,5.5C 18,2.83333 19,2.83333 20,5.5C 21.9939,4.33582 24.1605,3.66915 26.5,3.5C 29.7084,3.18837 30.7084,4.35503 29.5,7C 24.5111,7.49926 19.5111,7.66593 14.5,7.5C 14.5,6.16667 14.5,4.83333 14.5,3.5 Z"/></g>
<g><path style="opacity:1" fill="#2d7cf1" d="M 553.5,-0.5 C 560.167,-0.5 566.833,-0.5 573.5,-0.5C 575.626,2.09614 575.959,4.92947 574.5,8C 567.167,8.66667 559.833,8.66667 552.5,8C 551.041,4.92947 551.374,2.09614 553.5,-0.5 Z"/></g>
<g><path style="opacity:1" fill="#6aaff6" d="M 565.5,3.5 C 567.833,3.5 570.167,3.5 572.5,3.5C 572.5,4.5 572.5,5.5 572.5,6.5C 570.167,6.5 567.833,6.5 565.5,6.5C 565.5,5.5 565.5,4.5 565.5,3.5 Z"/></g>
<g><path style="opacity:1" fill="#6eabf6" d="M 555.5,2.5 C 558.203,2.95186 560.87,3.61852 563.5,4.5C 559.588,7.853 556.921,7.18633 555.5,2.5 Z"/></g>
<g><path style="opacity:1" fill="#f6f4fe" d="M 596.5,12.5 C 596.5,102.167 596.5,191.833 596.5,281.5C 397.5,281.5 198.5,281.5 -0.5,281.5C -0.5,198.833 -0.5,116.167 -0.5,33.5C 3.81468,30.1907 8.14801,26.8574 12.5,23.5C 13.7982,29.1032 14.7982,34.7699 15.5,40.5C 16.4287,39.3112 16.762,37.9778 16.5,36.5C 17.2926,32.2983 18.1259,27.9649 19,23.5C 19.8159,24.8228 20.9826,25.4894 22.5,25.5C 25.2393,28.3842 28.2393,31.0509 31.5,33.5C 32.521,32.9984 32.6877,32.3317 32,31.5C 28.643,27.6438 25.4763,23.6438 22.5,19.5C 28.2835,18.9561 33.9501,17.9561 39.5,16.5C 33.7297,15.2999 28.063,14.2999 22.5,13.5C 213.793,12.5024 405.127,12.1691 596.5,12.5 Z"/></g>
<g><path style="opacity:1" fill="#d488c9" d="M 22.5,13.5 C 28.063,14.2999 33.7297,15.2999 39.5,16.5C 33.9501,17.9561 28.2835,18.9561 22.5,19.5C 25.4763,23.6438 28.643,27.6438 32,31.5C 32.6877,32.3317 32.521,32.9984 31.5,33.5C 28.2393,31.0509 25.2393,28.3842 22.5,25.5C 21.5994,23.2729 19.9328,22.2729 17.5,22.5C 16.7705,27.1304 16.4372,31.7971 16.5,36.5C 16.762,37.9778 16.4287,39.3112 15.5,40.5C 14.7982,34.7699 13.7982,29.1032 12.5,23.5C 8.14801,26.8574 3.81468,30.1907 -0.5,33.5C -0.5,32.5 -0.5,31.5 -0.5,30.5C 2.11846,27.2148 5.11846,24.2148 8.5,21.5C 9.38568,20.675 9.71901,19.675 9.5,18.5C 6.16667,18.5 2.83333,18.5 -0.5,18.5C -0.5,17.1667 -0.5,15.8333 -0.5,14.5C 7.15848,14.0135 14.8252,13.6802 22.5,13.5 Z"/></g>
<g><path style="opacity:1" fill="#eeedf6" d="M -0.5,18.5 C 2.83333,18.5 6.16667,18.5 9.5,18.5C 9.71901,19.675 9.38568,20.675 8.5,21.5C 5.11846,24.2148 2.11846,27.2148 -0.5,30.5C -0.5,26.5 -0.5,22.5 -0.5,18.5 Z"/></g>
<g><path style="opacity:1" fill="#a38aac" d="M 22.5,25.5 C 20.9826,25.4894 19.8159,24.8228 19,23.5C 18.1259,27.9649 17.2926,32.2983 16.5,36.5C 16.4372,31.7971 16.7705,27.1304 17.5,22.5C 19.9328,22.2729 21.5994,23.2729 22.5,25.5 Z"/></g>
<g><path style="opacity:1" fill="#eeeeee" d="M 596.5,-0.5 C 598.167,-0.5 599.833,-0.5 601.5,-0.5C 601.5,0.833333 601.5,2.16667 601.5,3.5C 600.167,3.5 598.833,3.5 597.5,3.5C 597.5,29.5 597.5,55.5 597.5,81.5C 598.833,81.5 600.167,81.5 601.5,81.5C 601.5,148.167 601.5,214.833 601.5,281.5C 599.833,281.5 598.167,281.5 596.5,281.5C 596.5,191.833 596.5,102.167 596.5,12.5C 596.5,8.16667 596.5,3.83333 596.5,-0.5 Z"/></g>
<g><path style="opacity:1" fill="#727175" d="M 293.5,90.5 C 293.265,89.9033 292.765,89.5699 292,89.5C 290.989,90.0556 290.156,90.7222 289.5,91.5C 289.5,90.5 289.5,89.5 289.5,88.5C 291.288,88.2148 292.955,88.5481 294.5,89.5C 294.376,90.1067 294.043,90.44 293.5,90.5 Z"/></g>
<g><path style="opacity:1" fill="#807f84" d="M 387.5,89.5 C 384.167,89.5 380.833,89.5 377.5,89.5C 377.5,90.5 377.5,91.5 377.5,92.5C 376.833,92.5 376.167,92.5 375.5,92.5C 375.5,91.5 375.5,90.5 375.5,89.5C 371.833,89.5 368.167,89.5 364.5,89.5C 364.5,93.8333 364.5,98.1667 364.5,102.5C 368.167,102.5 371.833,102.5 375.5,102.5C 371.702,103.483 367.702,103.817 363.5,103.5C 363.815,99.6286 363.482,95.9619 362.5,92.5C 362.5,91.5 362.5,90.5 362.5,89.5C 358.167,89.5 353.833,89.5 349.5,89.5C 349.5,90.5 349.5,91.5 349.5,92.5C 349.167,92.5 348.833,92.5 348.5,92.5C 348.5,91.5 348.5,90.5 348.5,89.5C 344.167,89.5 339.833,89.5 335.5,89.5C 335.5,90.5 335.5,91.5 335.5,92.5C 335.167,92.5 334.833,92.5 334.5,92.5C 334.5,91.5 334.5,90.5 334.5,89.5C 330.5,89.5 326.5,89.5 322.5,89.5C 322.5,93.8333 322.5,98.1667 322.5,102.5C 321.833,102.5 321.167,102.5 320.5,102.5C 320.5,101.5 320.5,100.5 320.5,99.5C 321.482,96.0381 321.815,92.3714 321.5,88.5C 343.673,88.1693 365.673,88.5026 387.5,89.5 Z"/></g>
<g><path style="opacity:1" fill="#080808" d="M 210.5,92.5 C 208.833,92.5 207.167,92.5 205.5,92.5C 205.5,95.8333 205.5,99.1667 205.5,102.5C 204.5,102.5 203.5,102.5 202.5,102.5C 202.5,99.1667 202.5,95.8333 202.5,92.5C 200.833,92.5 199.167,92.5 197.5,92.5C 197.5,91.5 197.5,90.5 197.5,89.5C 201.833,89.5 206.167,89.5 210.5,89.5C 210.5,90.5 210.5,91.5 210.5,92.5 Z"/></g>
<g><path style="opacity:1" fill="#070708" d="M 215.5,89.5 C 215.5,90.8333 215.5,92.1667 215.5,93.5C 217.607,94.4682 219.941,94.8016 222.5,94.5C 222.5,92.8333 222.5,91.1667 222.5,89.5C 223.5,89.5 224.5,89.5 225.5,89.5C 225.5,93.8333 225.5,98.1667 225.5,102.5C 224.5,102.5 223.5,102.5 222.5,102.5C 222.5,100.833 222.5,99.1667 222.5,97.5C 220.167,97.5 217.833,97.5 215.5,97.5C 215.5,99.1667 215.5,100.833 215.5,102.5C 214.5,102.5 213.5,102.5 212.5,102.5C 212.5,98.1667 212.5,93.8333 212.5,89.5C 213.5,89.5 214.5,89.5 215.5,89.5 Z"/></g>
<g><path style="opacity:1" fill="#0a0a0b" d="M 239.5,89.5 C 239.5,90.5 239.5,91.5 239.5,92.5C 236.833,92.5 234.167,92.5 231.5,92.5C 230.957,92.56 230.624,92.8933 230.5,93.5C 233.086,94.48 235.753,94.8134 238.5,94.5C 238.5,95.5 238.5,96.5 238.5,97.5C 235.753,97.1866 233.086,97.52 230.5,98.5C 233.428,99.4841 236.428,99.8174 239.5,99.5C 239.5,100.5 239.5,101.5 239.5,102.5C 235.5,102.5 231.5,102.5 227.5,102.5C 227.5,98.1667 227.5,93.8333 227.5,89.5C 231.5,89.5 235.5,89.5 239.5,89.5 Z"/></g>
<g><path style="opacity:1" fill="#b1b0b7" d="M 247.5,89.5 C 246.167,89.5 244.833,89.5 243.5,89.5C 243.5,93.8333 243.5,98.1667 243.5,102.5C 242.514,98.03 242.181,93.3633 242.5,88.5C 244.415,88.2155 246.081,88.5489 247.5,89.5 Z"/></g>
<g><path style="opacity:1" fill="#101010" d="M 247.5,89.5 C 249.47,91.6467 251.303,93.98 253,96.5C 253.497,94.1902 253.663,91.8568 253.5,89.5C 254.5,89.5 255.5,89.5 256.5,89.5C 256.5,93.8333 256.5,98.1667 256.5,102.5C 255.5,102.5 254.5,102.5 253.5,102.5C 251.863,100.525 250.196,98.5248 248.5,96.5C 248.44,95.9569 248.107,95.6236 247.5,95.5C 246.526,97.7427 246.192,100.076 246.5,102.5C 245.5,102.5 244.5,102.5 243.5,102.5C 243.5,98.1667 243.5,93.8333 243.5,89.5C 244.833,89.5 246.167,89.5 247.5,89.5 Z"/></g>
<g><path style="opacity:1" fill="#101010" d="M 258.5,89.5 C 262.5,89.5 266.5,89.5 270.5,89.5C 270.5,90.5 270.5,91.5 270.5,92.5C 259.833,93.1667 259.833,93.8333 270.5,94.5C 270.5,95.5 270.5,96.5 270.5,97.5C 259.833,98.1667 259.833,98.8333 270.5,99.5C 270.5,100.5 270.5,101.5 270.5,102.5C 266.5,102.5 262.5,102.5 258.5,102.5C 258.5,98.1667 258.5,93.8333 258.5,89.5 Z"/></g>
<g><path style="opacity:1" fill="#8a898f" d="M 258.5,89.5 C 264.167,88.1667 269.833,88.1667 275.5,89.5C 274.5,89.5 273.5,89.5 272.5,89.5C 272.5,90.8333 272.5,92.1667 272.5,93.5C 271.833,93.1667 271.167,92.8333 270.5,92.5C 270.5,91.5 270.5,90.5 270.5,89.5C 266.5,89.5 262.5,89.5 258.5,89.5 Z"/></g>
<g><path style="opacity:1" fill="#131314" d="M 275.5,89.5 C 276.451,90.9187 276.784,92.5853 276.5,94.5C 277.167,99.8333 277.833,99.8333 278.5,94.5C 279.301,92.9582 279.634,91.2915 279.5,89.5C 281.833,89.5 284.167,89.5 286.5,89.5C 286.993,91.8056 287.326,94.139 287.5,96.5C 287.369,97.3764 287.702,98.0431 288.5,98.5C 289.466,96.604 289.799,94.604 289.5,92.5C 289.5,92.1667 289.5,91.8333 289.5,91.5C 290.156,90.7222 290.989,90.0556 292,89.5C 292.765,89.5699 293.265,89.9033 293.5,90.5C 292.619,94.4543 291.952,98.4543 291.5,102.5C 289.5,102.5 287.5,102.5 285.5,102.5C 285.405,100.214 284.738,98.2143 283.5,96.5C 283.657,95.1266 283.49,93.7932 283,92.5C 281.476,95.6103 280.642,98.9436 280.5,102.5C 277.789,102.815 275.456,102.148 273.5,100.5C 273.702,98.0504 273.369,95.717 272.5,93.5C 272.5,92.1667 272.5,90.8333 272.5,89.5C 273.5,89.5 274.5,89.5 275.5,89.5 Z"/></g>
<g><path style="opacity:1" fill="#161617" d="M 307.5,91.5 C 307.53,92.4972 307.03,93.1639 306,93.5C 303.479,92.3267 300.979,92.3267 298.5,93.5C 301.391,94.6781 304.391,95.3447 307.5,95.5C 307.5,97.1667 307.5,98.8333 307.5,100.5C 303.542,103.157 299.542,103.157 295.5,100.5C 295.821,98.9519 296.821,98.2852 298.5,98.5C 300.364,99.7928 302.364,99.7928 304.5,98.5C 303.311,97.5713 301.978,97.238 300.5,97.5C 299.432,96.5655 298.099,96.2322 296.5,96.5C 293.591,93.3003 294.258,90.8003 298.5,89C 302.1,87.9271 305.1,88.7605 307.5,91.5 Z"/></g>
<g><path style="opacity:1" fill="#040405" d="M 320.5,99.5 C 320.5,100.5 320.5,101.5 320.5,102.5C 316.833,102.5 313.167,102.5 309.5,102.5C 309.5,98.1667 309.5,93.8333 309.5,89.5C 310.5,89.5 311.5,89.5 312.5,89.5C 312.5,92.8333 312.5,96.1667 312.5,99.5C 315.167,99.5 317.833,99.5 320.5,99.5 Z"/></g>
<g><path style="opacity:1" fill="#0a0a0b" d="M 334.5,92.5 C 331.428,92.1826 328.428,92.5159 325.5,93.5C 328.086,94.48 330.753,94.8134 333.5,94.5C 333.5,95.5 333.5,96.5 333.5,97.5C 322.833,98.1667 322.833,98.8333 333.5,99.5C 333.5,100.5 333.5,101.5 333.5,102.5C 329.833,102.5 326.167,102.5 322.5,102.5C 322.5,98.1667 322.5,93.8333 322.5,89.5C 326.5,89.5 330.5,89.5 334.5,89.5C 334.5,90.5 334.5,91.5 334.5,92.5 Z"/></g>
<g><path style="opacity:1" fill="#090909" d="M 348.5,92.5 C 346.833,92.5 345.167,92.5 343.5,92.5C 343.5,95.8333 343.5,99.1667 343.5,102.5C 342.5,102.5 341.5,102.5 340.5,102.5C 340.5,99.1667 340.5,95.8333 340.5,92.5C 338.833,92.5 337.167,92.5 335.5,92.5C 335.5,91.5 335.5,90.5 335.5,89.5C 339.833,89.5 344.167,89.5 348.5,89.5C 348.5,90.5 348.5,91.5 348.5,92.5 Z"/></g>
<g><path style="opacity:1" fill="#0a0a0a" d="M 362.5,92.5 C 360.833,92.5 359.167,92.5 357.5,92.5C 357.5,95.8333 357.5,99.1667 357.5,102.5C 356.5,102.5 355.5,102.5 354.5,102.5C 354.5,99.1667 354.5,95.8333 354.5,92.5C 352.833,92.5 351.167,92.5 349.5,92.5C 349.5,91.5 349.5,90.5 349.5,89.5C 353.833,89.5 358.167,89.5 362.5,89.5C 362.5,90.5 362.5,91.5 362.5,92.5 Z"/></g>
<g><path style="opacity:1" fill="#090909" d="M 375.5,92.5 C 364.833,93.1667 364.833,93.8333 375.5,94.5C 375.5,95.5 375.5,96.5 375.5,97.5C 364.833,98.1667 364.833,98.8333 375.5,99.5C 375.5,100.5 375.5,101.5 375.5,102.5C 371.833,102.5 368.167,102.5 364.5,102.5C 364.5,98.1667 364.5,93.8333 364.5,89.5C 368.167,89.5 371.833,89.5 375.5,89.5C 375.5,90.5 375.5,91.5 375.5,92.5 Z"/></g>
<g><path style="opacity:1" fill="#131313" d="M 387.5,89.5 C 388.496,89.4142 389.329,89.7476 390,90.5C 390.839,93.1396 390.339,95.4729 388.5,97.5C 389.167,98.8333 389.833,100.167 390.5,101.5C 388.124,102.817 386.457,102.15 385.5,99.5C 384.311,98.5713 382.978,98.238 381.5,98.5C 380.566,99.5676 380.232,100.901 380.5,102.5C 379.5,102.5 378.5,102.5 377.5,102.5C 377.5,99.1667 377.5,95.8333 377.5,92.5C 377.5,91.5 377.5,90.5 377.5,89.5C 380.833,89.5 384.167,89.5 387.5,89.5 Z"/></g>
<g><path style="opacity:1" fill="#9b9aa1" d="M 239.5,89.5 C 235.5,89.5 231.5,89.5 227.5,89.5C 227.5,93.8333 227.5,98.1667 227.5,102.5C 231.5,102.5 235.5,102.5 239.5,102.5C 233.833,103.833 228.167,103.833 222.5,102.5C 223.5,102.5 224.5,102.5 225.5,102.5C 225.5,98.1667 225.5,93.8333 225.5,89.5C 224.5,89.5 223.5,89.5 222.5,89.5C 222.5,91.1667 222.5,92.8333 222.5,94.5C 219.941,94.8016 217.607,94.4682 215.5,93.5C 217.5,93.5 219.5,93.5 221.5,93.5C 221.5,91.8333 221.5,90.1667 221.5,88.5C 227.69,88.1771 233.69,88.5104 239.5,89.5 Z"/></g>
<g><path style="opacity:1" fill="#67666a" d="M 253.5,89.5 C 254.568,88.5655 255.901,88.2322 257.5,88.5C 257.5,93.5 257.5,98.5 257.5,103.5C 255.901,103.768 254.568,103.434 253.5,102.5C 254.5,102.5 255.5,102.5 256.5,102.5C 256.5,98.1667 256.5,93.8333 256.5,89.5C 255.5,89.5 254.5,89.5 253.5,89.5 Z"/></g>
<g><path style="opacity:1" fill="#a7a6ac" d="M 320.5,99.5 C 317.833,99.5 315.167,99.5 312.5,99.5C 312.5,96.1667 312.5,92.8333 312.5,89.5C 311.5,89.5 310.5,89.5 309.5,89.5C 309.5,93.8333 309.5,98.1667 309.5,102.5C 308.833,101.833 308.167,101.167 307.5,100.5C 307.5,98.8333 307.5,97.1667 307.5,95.5C 304.391,95.3447 301.391,94.6781 298.5,93.5C 300.979,92.3267 303.479,92.3267 306,93.5C 307.03,93.1639 307.53,92.4972 307.5,91.5C 308.404,90.791 308.737,89.791 308.5,88.5C 310.167,88.5 311.833,88.5 313.5,88.5C 313.5,91.8333 313.5,95.1667 313.5,98.5C 316.059,98.1984 318.393,98.5318 320.5,99.5 Z"/></g>
<g><path style="opacity:1" fill="#727276" d="M 215.5,89.5 C 214.5,89.5 213.5,89.5 212.5,89.5C 212.5,93.8333 212.5,98.1667 212.5,102.5C 213.5,102.5 214.5,102.5 215.5,102.5C 214.432,103.434 213.099,103.768 211.5,103.5C 211.815,99.6286 211.482,95.9619 210.5,92.5C 210.5,91.5 210.5,90.5 210.5,89.5C 206.167,89.5 201.833,89.5 197.5,89.5C 197.5,90.5 197.5,91.5 197.5,92.5C 196.566,91.4324 196.232,90.099 196.5,88.5C 203.022,88.1765 209.355,88.5098 215.5,89.5 Z"/></g>
<g><path style="opacity:1" fill="#94939a" d="M 231.5,92.5 C 233.833,93.1667 236.167,93.8333 238.5,94.5C 235.753,94.8134 233.086,94.48 230.5,93.5C 230.624,92.8933 230.957,92.56 231.5,92.5 Z"/></g>
<g><path style="opacity:1" fill="#f8f7fa" d="M 381.5,92.5 C 383.781,92.0773 385.448,92.744 386.5,94.5C 384.219,94.9227 382.552,94.256 381.5,92.5 Z"/></g>
<g><path style="opacity:1" fill="#cfcdd4" d="M 270.5,92.5 C 271.167,92.8333 271.833,93.1667 272.5,93.5C 273.369,95.717 273.702,98.0504 273.5,100.5C 273.586,101.496 273.252,102.329 272.5,103C 267.648,103.815 262.981,103.648 258.5,102.5C 262.5,102.5 266.5,102.5 270.5,102.5C 270.5,101.5 270.5,100.5 270.5,99.5C 259.833,98.8333 259.833,98.1667 270.5,97.5C 270.5,96.5 270.5,95.5 270.5,94.5C 259.833,93.8333 259.833,93.1667 270.5,92.5 Z"/></g>
<g><path style="opacity:1" fill="#bfbec5" d="M 375.5,92.5 C 376.167,92.5 376.833,92.5 377.5,92.5C 377.5,95.8333 377.5,99.1667 377.5,102.5C 376.833,102.5 376.167,102.5 375.5,102.5C 375.5,101.5 375.5,100.5 375.5,99.5C 364.833,98.8333 364.833,98.1667 375.5,97.5C 375.5,96.5 375.5,95.5 375.5,94.5C 364.833,93.8333 364.833,93.1667 375.5,92.5 Z"/></g>
<g><path style="opacity:1" fill="#88878c" d="M 381.5,92.5 C 382.552,94.256 384.219,94.9227 386.5,94.5C 384.735,95.4614 382.735,95.7947 380.5,95.5C 380.263,94.209 380.596,93.209 381.5,92.5 Z"/></g>
<g><path style="opacity:1" fill="#929197" d="M 276.5,94.5 C 277.167,94.5 277.833,94.5 278.5,94.5C 277.833,99.8333 277.167,99.8333 276.5,94.5 Z"/></g>
<g><path style="opacity:1" fill="#7e7d82" d="M 248.5,96.5 C 247.532,98.6074 247.198,100.941 247.5,103.5C 245.901,103.768 244.568,103.434 243.5,102.5C 244.5,102.5 245.5,102.5 246.5,102.5C 246.192,100.076 246.526,97.7427 247.5,95.5C 248.107,95.6236 248.44,95.9569 248.5,96.5 Z"/></g>
<g><path style="opacity:1" fill="#656468" d="M 289.5,92.5 C 289.799,94.604 289.466,96.604 288.5,98.5C 287.702,98.0431 287.369,97.3764 287.5,96.5C 288.167,95.1667 288.833,93.8333 289.5,92.5 Z"/></g>
<g><path style="opacity:1" fill="#67666a" d="M 296.5,96.5 C 298.099,96.2322 299.432,96.5655 300.5,97.5C 299.508,97.3284 298.842,97.6618 298.5,98.5C 296.821,98.2852 295.821,98.9519 295.5,100.5C 294.903,100.265 294.57,99.7648 294.5,99C 295.056,97.9889 295.722,97.1556 296.5,96.5 Z"/></g>
<g><path style="opacity:1" fill="#c0bec4" d="M 300.5,97.5 C 301.978,97.238 303.311,97.5713 304.5,98.5C 302.364,99.7928 300.364,99.7928 298.5,98.5C 298.842,97.6618 299.508,97.3284 300.5,97.5 Z"/></g>
<g><path style="opacity:1" fill="#b3b1b9" d="M 283.5,96.5 C 284.738,98.2143 285.405,100.214 285.5,102.5C 287.5,102.5 289.5,102.5 291.5,102.5C 289.393,103.468 287.059,103.802 284.5,103.5C 284.007,101.194 283.674,98.861 283.5,96.5 Z"/></g>
<g><path style="opacity:1" fill="#8d8c92" d="M 333.5,99.5 C 334.434,100.568 334.768,101.901 334.5,103.5C 330.298,103.817 326.298,103.483 322.5,102.5C 326.167,102.5 329.833,102.5 333.5,102.5C 333.5,101.5 333.5,100.5 333.5,99.5 Z"/></g>
<g><path style="opacity:1" fill="#949299" d="M 381.5,98.5 C 381.5,100.167 381.5,101.833 381.5,103.5C 379.901,103.768 378.568,103.434 377.5,102.5C 378.5,102.5 379.5,102.5 380.5,102.5C 380.232,100.901 380.566,99.5676 381.5,98.5 Z"/></g>
<g><path style="opacity:1" fill="#707074" d="M 373.5,120.5 C 377.97,119.514 382.637,119.181 387.5,119.5C 387.768,121.099 387.434,122.432 386.5,123.5C 386.5,122.5 386.5,121.5 386.5,120.5C 382.167,120.5 377.833,120.5 373.5,120.5 Z"/></g>
<g><path style="opacity:1" fill="#0f0f0f" d="M 211.5,120.5 C 212.5,120.833 213.167,121.5 213.5,122.5C 213.5,124.167 213.5,125.833 213.5,127.5C 213.167,128.5 212.5,129.167 211.5,129.5C 209.167,129.5 206.833,129.5 204.5,129.5C 204.5,130.833 204.5,132.167 204.5,133.5C 203.5,133.5 202.5,133.5 201.5,133.5C 201.5,129.167 201.5,124.833 201.5,120.5C 204.833,120.5 208.167,120.5 211.5,120.5 Z"/></g>
<g><path style="opacity:1" fill="#171617" d="M 215.5,133.5 C 215.5,129.167 215.5,124.833 215.5,120.5C 216.5,120.5 217.5,120.5 218.5,120.5C 218.5,123.833 218.5,127.167 218.5,130.5C 221.167,130.5 223.833,130.5 226.5,130.5C 227.302,131.885 227.969,131.718 228.5,130C 230.27,126.634 231.603,123.134 232.5,119.5C 234.792,119.244 236.959,119.577 239,120.5C 241.089,124.668 242.589,129.002 243.5,133.5C 242.167,133.5 240.833,133.5 239.5,133.5C 239.5,132.5 239.5,131.5 239.5,130.5C 231.868,132.788 223.868,133.788 215.5,133.5 Z"/></g>
<g><path style="opacity:1" fill="#1a1a1b" d="M 258.5,123.5 C 256.833,123.5 255.167,123.5 253.5,123.5C 253.5,126.833 253.5,130.167 253.5,133.5C 252.167,133.5 250.833,133.5 249.5,133.5C 249.5,130.167 249.5,126.833 249.5,123.5C 248.167,123.5 246.833,123.5 245.5,123.5C 245.5,122.5 245.5,121.5 245.5,120.5C 249.833,120.5 254.167,120.5 258.5,120.5C 258.5,121.5 258.5,122.5 258.5,123.5 Z"/></g>
<g><path style="opacity:1" fill="#0b0b0c" d="M 271.5,120.5 C 271.5,121.5 271.5,122.5 271.5,123.5C 268.428,123.183 265.428,123.516 262.5,124.5C 265.086,125.48 267.753,125.813 270.5,125.5C 270.5,126.5 270.5,127.5 270.5,128.5C 267.833,128.5 265.167,128.5 262.5,128.5C 262.5,130.167 262.5,131.833 262.5,133.5C 261.5,133.5 260.5,133.5 259.5,133.5C 259.5,129.167 259.5,124.833 259.5,120.5C 263.5,120.5 267.5,120.5 271.5,120.5 Z"/></g>
<g><path style="opacity:1" fill="#181818" d="M 276.5,119.5 C 286.273,119.012 289.273,123.178 285.5,132C 276.598,135.651 272.432,132.818 273,123.5C 274.376,122.295 275.542,120.962 276.5,119.5 Z"/></g>
<g><path style="opacity:1" fill="#0f0f0f" d="M 299.5,120.5 C 300.167,120.833 300.833,121.167 301.5,121.5C 302.987,124.212 302.321,126.379 299.5,128C 300.639,129.78 301.639,131.614 302.5,133.5C 299.167,134.167 297.167,132.833 296.5,129.5C 295.311,128.571 293.978,128.238 292.5,128.5C 292.5,130.167 292.5,131.833 292.5,133.5C 291.5,133.5 290.5,133.5 289.5,133.5C 289.5,129.167 289.5,124.833 289.5,120.5C 292.833,120.5 296.167,120.5 299.5,120.5 Z"/></g>
<g><path style="opacity:1" fill="#121213" d="M 308.5,120.5 C 310.333,122.832 311.666,125.498 312.5,128.5C 313.659,125.652 314.992,122.985 316.5,120.5C 318.167,120.5 319.833,120.5 321.5,120.5C 321.5,124.833 321.5,129.167 321.5,133.5C 320.5,133.5 319.5,133.5 318.5,133.5C 318.664,130.813 318.497,128.146 318,125.5C 316.961,126.244 316.461,127.244 316.5,128.5C 315.766,129.708 315.433,131.041 315.5,132.5C 311.187,133.513 308.854,131.846 308.5,127.5C 308.217,126.711 307.717,126.044 307,125.5C 306.503,128.146 306.336,130.813 306.5,133.5C 305.5,133.5 304.5,133.5 303.5,133.5C 303.5,129.167 303.5,124.833 303.5,120.5C 305.167,120.5 306.833,120.5 308.5,120.5 Z"/></g>
<g><path style="opacity:1" fill="#0f0f10" d="M 337.5,120.5 C 338.886,122.613 338.552,124.613 336.5,126.5C 337.325,127.386 338.325,127.719 339.5,127.5C 339.822,129.722 339.155,131.556 337.5,133C 333.848,133.499 330.182,133.665 326.5,133.5C 326.5,129.167 326.5,124.833 326.5,120.5C 330.167,120.5 333.833,120.5 337.5,120.5 Z"/></g>
<g><path style="opacity:1" fill="#0f0f0f" d="M 344.5,128.5 C 346.265,129.461 348.265,129.795 350.5,129.5C 351.166,126.642 351.833,123.642 352.5,120.5C 353.487,123.768 353.82,127.102 353.5,130.5C 352.308,132.922 350.308,133.922 347.5,133.5C 344.114,134.099 342.114,132.766 341.5,129.5C 341.183,126.428 341.516,123.428 342.5,120.5C 343.168,123.306 343.834,125.972 344.5,128.5 Z"/></g>
<g><path style="opacity:1" fill="#070607" d="M 372.5,130.5 C 372.5,131.5 372.5,132.5 372.5,133.5C 368.833,133.5 365.167,133.5 361.5,133.5C 361.5,129.167 361.5,124.833 361.5,120.5C 362.5,120.5 363.5,120.5 364.5,120.5C 364.5,123.833 364.5,127.167 364.5,130.5C 367.167,130.5 369.833,130.5 372.5,130.5 Z"/></g>
<g><path style="opacity:1" fill="#19191a" d="M 373.5,120.5 C 377.833,120.5 382.167,120.5 386.5,120.5C 386.5,121.5 386.5,122.5 386.5,123.5C 385.167,123.5 383.833,123.5 382.5,123.5C 382.5,126.833 382.5,130.167 382.5,133.5C 381.167,133.5 379.833,133.5 378.5,133.5C 378.5,130.167 378.5,126.833 378.5,123.5C 376.833,123.5 375.167,123.5 373.5,123.5C 373.5,122.5 373.5,121.5 373.5,120.5 Z"/></g>
<g><path style="opacity:1" fill="#9b9aa1" d="M 211.5,120.5 C 208.167,120.5 204.833,120.5 201.5,120.5C 201.5,124.833 201.5,129.167 201.5,133.5C 200.514,129.03 200.181,124.363 200.5,119.5C 204.371,119.185 208.038,119.518 211.5,120.5 Z"/></g>
<g><path style="opacity:1" fill="#a4a3a9" d="M 316.5,120.5 C 318.265,119.539 320.265,119.205 322.5,119.5C 322.819,124.363 322.486,129.03 321.5,133.5C 321.5,129.167 321.5,124.833 321.5,120.5C 319.833,120.5 318.167,120.5 316.5,120.5 Z"/></g>
<g><path style="opacity:1" fill="#6e6d71" d="M 337.5,120.5 C 333.833,120.5 330.167,120.5 326.5,120.5C 326.5,124.833 326.5,129.167 326.5,133.5C 325.514,129.03 325.181,124.363 325.5,119.5C 329.702,119.183 333.702,119.517 337.5,120.5 Z"/></g>
<g><path style="opacity:1" fill="#3a3a3d" d="M 354.5,119.5 C 354.5,122.833 354.5,126.167 354.5,129.5C 354.5,130.167 354.167,130.5 353.5,130.5C 353.82,127.102 353.487,123.768 352.5,120.5C 351.833,123.642 351.166,126.642 350.5,129.5C 350.5,126.167 350.5,122.833 350.5,119.5C 351.833,119.5 353.167,119.5 354.5,119.5 Z"/></g>
<g><path style="opacity:1" fill="#a7a5ac" d="M 354.5,119.5 C 358.167,119.5 361.833,119.5 365.5,119.5C 365.5,122.833 365.5,126.167 365.5,129.5C 368.059,129.198 370.393,129.532 372.5,130.5C 369.833,130.5 367.167,130.5 364.5,130.5C 364.5,127.167 364.5,123.833 364.5,120.5C 363.5,120.5 362.5,120.5 361.5,120.5C 361.5,124.833 361.5,129.167 361.5,133.5C 360.833,133.5 360.167,133.5 359.5,133.5C 359.5,129.167 359.5,124.833 359.5,120.5C 358.5,120.5 357.5,120.5 356.5,120.5C 356.5,124.833 356.5,129.167 356.5,133.5C 355.833,132.167 355.167,130.833 354.5,129.5C 354.5,126.167 354.5,122.833 354.5,119.5 Z"/></g>
<g><path style="opacity:1" fill="#141314" d="M 359.5,133.5 C 358.5,133.5 357.5,133.5 356.5,133.5C 356.5,129.167 356.5,124.833 356.5,120.5C 357.5,120.5 358.5,120.5 359.5,120.5C 359.5,124.833 359.5,129.167 359.5,133.5 Z"/></g>
<g><path style="opacity:1" fill="#919096" d="M 271.5,120.5 C 267.5,120.5 263.5,120.5 259.5,120.5C 259.5,124.833 259.5,129.167 259.5,133.5C 258.521,130.375 258.187,127.042 258.5,123.5C 258.5,122.5 258.5,121.5 258.5,120.5C 254.167,120.5 249.833,120.5 245.5,120.5C 245.5,121.5 245.5,122.5 245.5,123.5C 244.566,122.432 244.232,121.099 244.5,119.5C 253.682,119.173 262.682,119.507 271.5,120.5 Z"/></g>
<g><path style="opacity:1" fill="#c8c7cd" d="M 292.5,123.5 C 294.5,123.5 296.5,123.5 298.5,123.5C 298.5,124.5 298.5,125.5 298.5,126.5C 296.5,126.5 294.5,126.5 292.5,126.5C 292.5,125.5 292.5,124.5 292.5,123.5 Z"/></g>
<g><path style="opacity:1" fill="#444346" d="M 344.5,128.5 C 343.834,125.972 343.168,123.306 342.5,120.5C 341.516,123.428 341.183,126.428 341.5,129.5C 340.521,126.375 340.187,123.042 340.5,119.5C 341.833,119.5 343.167,119.5 344.5,119.5C 344.5,122.5 344.5,125.5 344.5,128.5 Z"/></g>
<g><path style="opacity:1" fill="#69696d" d="M 299.5,120.5 C 296.167,120.5 292.833,120.5 289.5,120.5C 289.5,124.833 289.5,129.167 289.5,133.5C 288.514,129.03 288.181,124.363 288.5,119.5C 292.371,119.185 296.038,119.518 299.5,120.5 Z"/></g>
<g><path style="opacity:1" fill="#a7a6ac" d="M 329.5,123.5 C 331.604,123.201 333.604,123.534 335.5,124.5C 334.5,124.833 333.5,125.167 332.5,125.5C 330.97,125.36 329.97,124.693 329.5,123.5 Z"/></g>
<g><path style="opacity:1" fill="#dbdadf" d="M 204.5,123.5 C 206.5,123.5 208.5,123.5 210.5,123.5C 210.5,124.5 210.5,125.5 210.5,126.5C 208.5,126.5 206.5,126.5 204.5,126.5C 204.5,125.5 204.5,124.5 204.5,123.5 Z"/></g>
<g><path style="opacity:1" fill="#e3e1e8" d="M 277.5,123.5 C 279.5,123.5 281.5,123.5 283.5,123.5C 284.844,129.662 282.678,131.662 277,129.5C 276.322,127.402 276.489,125.402 277.5,123.5 Z"/></g>
<g><path style="opacity:1" fill="#c4c3c8" d="M 234.5,123.5 C 236.121,123.787 237.121,124.787 237.5,126.5C 236.675,127.386 235.675,127.719 234.5,127.5C 234.5,126.167 234.5,124.833 234.5,123.5 Z"/></g>
<g><path style="opacity:1" fill="#7c7b80" d="M 318.5,133.5 C 317.833,131.833 317.167,130.167 316.5,128.5C 316.461,127.244 316.961,126.244 318,125.5C 318.497,128.146 318.664,130.813 318.5,133.5 Z"/></g>
<g><path style="opacity:1" fill="#8d8c91" d="M 270.5,125.5 C 271.434,126.568 271.768,127.901 271.5,129.5C 268.833,129.5 266.167,129.5 263.5,129.5C 263.768,131.099 263.434,132.432 262.5,133.5C 262.5,131.833 262.5,130.167 262.5,128.5C 265.167,128.5 267.833,128.5 270.5,128.5C 270.5,127.5 270.5,126.5 270.5,125.5 Z"/></g>
<g><path style="opacity:1" fill="#908f94" d="M 226.5,130.5 C 223.833,130.5 221.167,130.5 218.5,130.5C 218.5,127.167 218.5,123.833 218.5,120.5C 217.5,120.5 216.5,120.5 215.5,120.5C 215.5,124.833 215.5,129.167 215.5,133.5C 214.833,131.5 214.167,129.5 213.5,127.5C 213.5,125.833 213.5,124.167 213.5,122.5C 214.404,121.791 214.737,120.791 214.5,119.5C 216.167,119.5 217.833,119.5 219.5,119.5C 219.5,122.833 219.5,126.167 219.5,129.5C 222.059,129.198 224.393,129.532 226.5,130.5 Z"/></g>
<g><path style="opacity:1" fill="#bfbec5" d="M 308.5,120.5 C 306.833,120.5 305.167,120.5 303.5,120.5C 303.5,124.833 303.5,129.167 303.5,133.5C 303.167,133.5 302.833,133.5 302.5,133.5C 301.639,131.614 300.639,129.78 299.5,128C 302.321,126.379 302.987,124.212 301.5,121.5C 303.66,119.436 305.993,119.102 308.5,120.5 Z"/></g>
<g><path style="opacity:1" fill="#9f9fa2" d="M 329.5,128.5 C 331.924,128.192 334.257,128.526 336.5,129.5C 335.333,129.833 334.167,130.167 333,130.5C 331.319,130.392 330.152,129.725 329.5,128.5 Z"/></g>
<g><path style="opacity:1" fill="#6c6a6f" d="M 308.5,127.5 C 307.833,129.5 307.167,131.5 306.5,133.5C 306.336,130.813 306.503,128.146 307,125.5C 307.717,126.044 308.217,126.711 308.5,127.5 Z"/></g>
<g><path style="opacity:1" fill="#7e7d82" d="M 211.5,129.5 C 209.735,130.461 207.735,130.795 205.5,130.5C 205.737,131.791 205.404,132.791 204.5,133.5C 204.5,132.167 204.5,130.833 204.5,129.5C 206.833,129.5 209.167,129.5 211.5,129.5 Z"/></g>
<g><path style="opacity:1" fill="#f6f4fe" d="M 519.5,131.5 C 527.486,132.494 535.153,134.494 542.5,137.5C 545.594,146.948 548.594,156.448 551.5,166C 544.971,174.027 537.971,181.693 530.5,189C 526.445,189.156 522.445,188.656 518.5,187.5C 511.912,186.228 505.412,184.561 499,182.5C 495.791,173.174 492.957,163.674 490.5,154C 490.667,153.167 490.833,152.333 491,151.5C 497.5,144.333 504,137.167 510.5,130C 513.502,130.158 516.502,130.658 519.5,131.5 Z"/></g>
<g><path style="opacity:1" fill="#d3c7ea" d="M 519.5,131.5 C 520.568,130.566 521.901,130.232 523.5,130.5C 530.567,131.941 537.4,133.941 544,136.5C 547.944,146.943 550.611,157.61 552,168.5C 545.167,176 538.333,183.5 531.5,191C 527.168,190.837 522.834,190.337 518.5,189.5C 518.5,188.833 518.5,188.167 518.5,187.5C 522.445,188.656 526.445,189.156 530.5,189C 537.971,181.693 544.971,174.027 551.5,166C 548.594,156.448 545.594,146.948 542.5,137.5C 535.153,134.494 527.486,132.494 519.5,131.5 Z"/></g>
<g><path style="opacity:1" fill="#0b0b0c" d="M 208.5,154.5 C 210.635,156.369 213.302,157.036 216.5,156.5C 216.5,157.5 216.5,158.5 216.5,159.5C 213.833,159.5 211.167,159.5 208.5,159.5C 208.5,161.167 208.5,162.833 208.5,164.5C 207.5,164.5 206.5,164.5 205.5,164.5C 205.5,160.167 205.5,155.833 205.5,151.5C 209.226,151.177 212.893,151.511 216.5,152.5C 213.694,153.168 211.028,153.834 208.5,154.5 Z"/></g>
<g><path style="opacity:1" fill="#181819" d="M 218.5,160.5 C 218.5,158.5 218.5,156.5 218.5,154.5C 221.774,150.545 225.774,149.711 230.5,152C 234.802,156.797 234.136,160.797 228.5,164C 224.128,165.419 220.794,164.252 218.5,160.5 Z"/></g>
<g><path style="opacity:1" fill="#1a1a1a" d="M 241.5,160.5 C 240.432,159.566 239.099,159.232 237.5,159.5C 237.5,161.167 237.5,162.833 237.5,164.5C 236.5,164.5 235.5,164.5 234.5,164.5C 234.5,159.833 234.5,155.167 234.5,150.5C 238.911,150.021 243.078,150.688 247,152.5C 248.14,155.528 247.306,157.695 244.5,159C 246.607,160.264 247.607,162.097 247.5,164.5C 246.022,164.762 244.689,164.429 243.5,163.5C 243.058,162.261 242.391,161.261 241.5,160.5 Z"/></g>
<g><path style="opacity:1" fill="#191518" d="M 377.5,154.5 C 375.965,153.212 374.299,153.212 372.5,154.5C 372.624,155.107 372.957,155.44 373.5,155.5C 376.606,156.047 379.606,157.047 382.5,158.5C 382.88,160.698 382.213,162.365 380.5,163.5C 377.555,164.468 374.555,164.634 371.5,164C 368.997,162.216 368.997,160.549 371.5,159C 370.619,158.292 369.953,157.458 369.5,156.5C 369.5,155.5 369.5,154.5 369.5,153.5C 372.871,149.858 376.705,149.525 381,152.5C 381.483,153.448 381.649,154.448 381.5,155.5C 380.041,155.567 378.708,155.234 377.5,154.5 Z"/></g>
<g><path style="opacity:1" fill="#5a595c" d="M 217.5,154.5 C 214.5,154.5 211.5,154.5 208.5,154.5C 211.028,153.834 213.694,153.168 216.5,152.5C 212.893,151.511 209.226,151.177 205.5,151.5C 205.5,155.833 205.5,160.167 205.5,164.5C 204.514,160.03 204.181,155.363 204.5,150.5C 208.833,150.5 213.167,150.5 217.5,150.5C 217.5,151.833 217.5,153.167 217.5,154.5 Z"/></g>
<g><path style="opacity:1" fill="#fcfbfe" d="M 238.5,154.5 C 240.288,154.215 241.955,154.548 243.5,155.5C 242.667,155.833 241.833,156.167 241,156.5C 239.624,156.316 238.791,155.649 238.5,154.5 Z"/></g>
<g><path style="opacity:1" fill="#c3c2c8" d="M 208.5,154.5 C 211.5,154.5 214.5,154.5 217.5,154.5C 217.833,154.5 218.167,154.5 218.5,154.5C 218.5,156.5 218.5,158.5 218.5,160.5C 217.833,160.167 217.167,159.833 216.5,159.5C 216.5,158.5 216.5,157.5 216.5,156.5C 213.302,157.036 210.635,156.369 208.5,154.5 Z"/></g>
<g><path style="opacity:1" fill="#e3e2e9" d="M 222.5,154.5 C 229.19,153.331 230.857,155.497 227.5,161C 226.167,161.667 224.833,161.667 223.5,161C 222.577,158.959 222.244,156.792 222.5,154.5 Z"/></g>
<g><path style="opacity:1" fill="#dfd4ef" d="M 533.5,165.5 C 532.226,164.811 532.226,163.977 533.5,163C 530.998,161.663 528.998,159.829 527.5,157.5C 527.167,158.167 526.833,158.833 526.5,159.5C 524.684,158.185 523.017,156.685 521.5,155C 520.833,154.333 520.167,154.333 519.5,155C 522.274,157.064 524.107,159.564 525,162.5C 522.851,159.306 520.018,157.472 516.5,157C 518.833,158.667 520.833,160.667 522.5,163C 522.167,163.167 521.833,163.333 521.5,163.5C 518.315,160.115 514.648,157.449 510.5,155.5C 510.833,155.167 511.167,154.833 511.5,154.5C 516.189,157.153 516.523,156.653 512.5,153C 512.833,152.833 513.167,152.667 513.5,152.5C 514.869,154.124 516.536,154.624 518.5,154C 517.421,153.044 516.255,152.211 515,151.5C 514.333,150.833 514.333,150.167 515,149.5C 517.149,151.661 519.649,152.828 522.5,153C 519.027,151.143 516.361,148.643 514.5,145.5C 514.962,144.12 515.962,143.453 517.5,143.5C 527.009,146.342 533.676,152.342 537.5,161.5C 536.606,163.279 535.273,164.612 533.5,165.5 Z"/></g>
<g><path style="opacity:1" fill="#717074" d="M 241.5,160.5 C 240.5,160.5 239.5,160.5 238.5,160.5C 238.768,162.099 238.434,163.432 237.5,164.5C 237.5,162.833 237.5,161.167 237.5,159.5C 239.099,159.232 240.432,159.566 241.5,160.5 Z"/></g>
<g><path style="opacity:1" fill="#edbcdd" d="M 383.5,155.5 C 383.5,156.167 383.5,156.833 383.5,157.5C 382.833,157.5 382.5,157.833 382.5,158.5C 379.606,157.047 376.606,156.047 373.5,155.5C 374.568,154.566 375.901,154.232 377.5,154.5C 378.708,155.234 380.041,155.567 381.5,155.5C 381.649,154.448 381.483,153.448 381,152.5C 376.705,149.525 372.871,149.858 369.5,153.5C 368.596,152.791 368.263,151.791 368.5,150.5C 364.167,150.5 359.833,150.5 355.5,150.5C 355.806,153.385 355.473,156.052 354.5,158.5C 351.763,156.801 348.763,155.467 345.5,154.5C 346.333,154.167 347.167,153.833 348,153.5C 350.086,154.418 352.253,155.085 354.5,155.5C 354.67,154.178 354.337,153.011 353.5,152C 350.594,150.682 347.594,150.348 344.5,151C 340.634,153.755 340.634,156.421 344.5,159C 341.997,160.549 341.997,162.216 344.5,164C 348.463,165.137 351.796,164.303 354.5,161.5C 355.167,162.5 355.833,163.5 356.5,164.5C 360.5,164.5 364.5,164.5 368.5,164.5C 368.5,163.5 368.5,162.5 368.5,161.5C 365.428,161.817 362.428,161.484 359.5,160.5C 362.086,159.52 364.753,159.187 367.5,159.5C 367.5,158.167 367.5,156.833 367.5,155.5C 364.615,155.806 361.948,155.473 359.5,154.5C 363.179,154.06 366.512,154.727 369.5,156.5C 369.953,157.458 370.619,158.292 371.5,159C 368.997,160.549 368.997,162.216 371.5,164C 374.555,164.634 377.555,164.468 380.5,163.5C 379.321,165.507 379.821,165.84 382,164.5C 382.483,165.448 382.649,166.448 382.5,167.5C 338.499,167.667 294.499,167.5 250.5,167C 254.167,166.667 257.833,166.333 261.5,166C 257.644,165.823 253.977,165.323 250.5,164.5C 249.513,159.695 249.179,154.695 249.5,149.5C 253.182,149.665 256.848,149.499 260.5,149C 257.167,148.667 253.833,148.333 250.5,148C 294.499,147.5 338.499,147.333 382.5,147.5C 382.194,150.385 382.527,153.052 383.5,155.5 Z"/></g>
<g><path style="opacity:1" fill="#785f6f" d="M 369.5,153.5 C 369.5,154.5 369.5,155.5 369.5,156.5C 366.512,154.727 363.179,154.06 359.5,154.5C 362.028,153.834 364.694,153.168 367.5,152.5C 363.893,151.511 360.226,151.177 356.5,151.5C 356.5,155.833 356.5,160.167 356.5,164.5C 355.833,163.5 355.167,162.5 354.5,161.5C 354.5,160.5 354.5,159.5 354.5,158.5C 355.473,156.052 355.806,153.385 355.5,150.5C 359.833,150.5 364.167,150.5 368.5,150.5C 368.263,151.791 368.596,152.791 369.5,153.5 Z"/></g>
<g><path style="opacity:1" fill="#584552" d="M 318.5,154.5 C 320.833,155.167 323.167,155.833 325.5,156.5C 322.753,156.813 320.086,156.48 317.5,155.5C 317.624,154.893 317.957,154.56 318.5,154.5 Z"/></g>
<g><path style="opacity:1" fill="#b490a9" d="M 294.5,150.5 C 294.5,155.167 294.5,159.833 294.5,164.5C 293.833,163.833 293.167,163.167 292.5,162.5C 292.785,160.712 292.452,159.045 291.5,157.5C 288.828,156.499 286.161,155.499 283.5,154.5C 286.206,153.207 288.706,153.541 291,155.5C 292.03,155.164 292.53,154.497 292.5,153.5C 293.167,152.5 293.833,151.5 294.5,150.5 Z"/></g>
<g><path style="opacity:1" fill="#a7849b" d="M 278.5,150.5 C 279.167,151.167 279.833,151.833 280.5,152.5C 280.261,154.467 280.594,156.301 281.5,158C 284.362,158.27 287.028,159.104 289.5,160.5C 286.826,161.782 284.326,161.449 282,159.5C 280.97,159.836 280.47,160.503 280.5,161.5C 279.833,161.167 279.167,160.833 278.5,160.5C 278.5,157.167 278.5,153.833 278.5,150.5 Z"/></g>
<g><path style="opacity:1" fill="#6d5564" d="M 309.5,151.5 C 310.568,150.566 311.901,150.232 313.5,150.5C 313.819,155.363 313.486,160.03 312.5,164.5C 312.5,160.167 312.5,155.833 312.5,151.5C 311.5,151.5 310.5,151.5 309.5,151.5 Z"/></g>
<g><path style="opacity:1" fill="#ba92ac" d="M 297.5,150.5 C 298.167,150.5 298.833,150.5 299.5,150.5C 299.5,155.167 299.5,159.833 299.5,164.5C 298.833,164.5 298.167,164.5 297.5,164.5C 297.5,159.833 297.5,155.167 297.5,150.5 Z"/></g>
<g><path style="opacity:1" fill="#141012" d="M 359.5,154.5 C 361.948,155.473 364.615,155.806 367.5,155.5C 367.5,156.833 367.5,158.167 367.5,159.5C 364.753,159.187 362.086,159.52 359.5,160.5C 362.428,161.484 365.428,161.817 368.5,161.5C 368.5,162.5 368.5,163.5 368.5,164.5C 364.5,164.5 360.5,164.5 356.5,164.5C 356.5,160.167 356.5,155.833 356.5,151.5C 360.226,151.177 363.893,151.511 367.5,152.5C 364.694,153.168 362.028,153.834 359.5,154.5 Z"/></g>
<g><path style="opacity:1" fill="#181416" d="M 354.5,158.5 C 354.5,159.5 354.5,160.5 354.5,161.5C 351.796,164.303 348.463,165.137 344.5,164C 341.997,162.216 341.997,160.549 344.5,159C 340.634,156.421 340.634,153.755 344.5,151C 347.594,150.348 350.594,150.682 353.5,152C 354.337,153.011 354.67,154.178 354.5,155.5C 352.253,155.085 350.086,154.418 348,153.5C 347.167,153.833 346.333,154.167 345.5,154.5C 348.763,155.467 351.763,156.801 354.5,158.5 Z"/></g>
<g><path style="opacity:1" fill="#1a1618" d="M 330.5,150.5 C 334.192,149.971 337.358,150.971 340,153.5C 340.591,154.483 340.257,155.15 339,155.5C 336.547,154.507 334.047,154.34 331.5,155C 334.018,156.149 336.684,156.982 339.5,157.5C 341.362,162.488 339.529,164.821 334,164.5C 330.958,164.63 328.791,163.297 327.5,160.5C 328.376,159.749 329.376,159.249 330.5,159C 326.733,156.21 326.733,153.377 330.5,150.5 Z"/></g>
<g><path style="opacity:1" fill="#1a1619" d="M 318.5,154.5 C 317.957,154.56 317.624,154.893 317.5,155.5C 320.086,156.48 322.753,156.813 325.5,156.5C 326.404,157.209 326.737,158.209 326.5,159.5C 315.833,160.167 315.833,160.833 326.5,161.5C 326.5,162.5 326.5,163.5 326.5,164.5C 322.5,164.5 318.5,164.5 314.5,164.5C 314.5,159.833 314.5,155.167 314.5,150.5C 318.5,150.5 322.5,150.5 326.5,150.5C 326.5,151.833 326.5,153.167 326.5,154.5C 323.833,154.5 321.167,154.5 318.5,154.5 Z"/></g>
<g><path style="opacity:1" fill="#0f0c0e" d="M 299.5,150.5 C 300.873,150.343 302.207,150.51 303.5,151C 305.333,153.5 307.167,156 309,158.5C 309.497,156.19 309.663,153.857 309.5,151.5C 310.5,151.5 311.5,151.5 312.5,151.5C 312.5,155.833 312.5,160.167 312.5,164.5C 308.662,163.671 305.995,161.338 304.5,157.5C 304.44,156.957 304.107,156.624 303.5,156.5C 302.52,159.086 302.187,161.753 302.5,164.5C 301.5,164.5 300.5,164.5 299.5,164.5C 299.5,159.833 299.5,155.167 299.5,150.5 Z"/></g>
<g><path style="opacity:1" fill="#735b6b" d="M 304.5,157.5 C 303.833,159.833 303.167,162.167 302.5,164.5C 302.187,161.753 302.52,159.086 303.5,156.5C 304.107,156.624 304.44,156.957 304.5,157.5 Z"/></g>
<g><path style="opacity:1" fill="#080607" d="M 294.5,150.5 C 295.5,150.5 296.5,150.5 297.5,150.5C 297.5,155.167 297.5,159.833 297.5,164.5C 296.5,164.5 295.5,164.5 294.5,164.5C 294.5,159.833 294.5,155.167 294.5,150.5 Z"/></g>
<g><path style="opacity:1" fill="#141012" d="M 292.5,153.5 C 292.53,154.497 292.03,155.164 291,155.5C 288.706,153.541 286.206,153.207 283.5,154.5C 286.161,155.499 288.828,156.499 291.5,157.5C 292.452,159.045 292.785,160.712 292.5,162.5C 288.042,165.501 284.042,165.168 280.5,161.5C 280.47,160.503 280.97,159.836 282,159.5C 284.326,161.449 286.826,161.782 289.5,160.5C 287.028,159.104 284.362,158.27 281.5,158C 280.594,156.301 280.261,154.467 280.5,152.5C 284.81,149.641 288.81,149.975 292.5,153.5 Z"/></g>
<g><path style="opacity:1" fill="#1b171a" d="M 278.5,150.5 C 278.5,153.833 278.5,157.167 278.5,160.5C 275.751,164.171 272.084,165.337 267.5,164C 266.299,163.097 265.465,161.931 265,160.5C 264.502,157.183 264.335,153.85 264.5,150.5C 265.833,150.5 267.167,150.5 268.5,150.5C 268.5,153.833 268.5,157.167 268.5,160.5C 270.792,160.756 272.959,160.423 275,159.5C 275.498,156.518 275.665,153.518 275.5,150.5C 276.5,150.5 277.5,150.5 278.5,150.5 Z"/></g>
<g><path style="opacity:1" fill="#120e10" d="M 250.5,164.5 C 250.5,159.833 250.5,155.167 250.5,150.5C 253.85,150.335 257.183,150.502 260.5,151C 264.5,153 264.5,155 260.5,157C 263.199,158.577 263.866,160.743 262.5,163.5C 258.571,164.433 254.571,164.766 250.5,164.5 Z"/></g>
<g><path style="opacity:1" fill="#81687a" d="M 253.5,153.5 C 255.5,153.5 257.5,153.5 259.5,153.5C 259.5,154.5 259.5,155.5 259.5,156.5C 257.5,156.5 255.5,156.5 253.5,156.5C 253.5,155.5 253.5,154.5 253.5,153.5 Z"/></g>
<g><path style="opacity:1" fill="#f3d2f2" d="M 523.5,130.5 C 521.901,130.232 520.568,130.566 519.5,131.5C 516.502,130.658 513.502,130.158 510.5,130C 504,137.167 497.5,144.333 491,151.5C 490.833,152.333 490.667,153.167 490.5,154C 492.957,163.674 495.791,173.174 499,182.5C 505.412,184.561 511.912,186.228 518.5,187.5C 518.5,188.167 518.5,188.833 518.5,189.5C 512.287,187.574 505.954,186.074 499.5,185C 499,184.5 498.5,184 498,183.5C 494.221,173.722 491.054,163.722 488.5,153.5C 494.907,144.918 501.907,136.752 509.5,129C 512.518,128.501 515.518,128.668 518.5,129.5C 520.044,129.21 521.377,128.544 522.5,127.5C 523.386,128.325 523.719,129.325 523.5,130.5 Z"/></g>
<g><path style="opacity:1" fill="#fdc8eb" d="M 383.5,155.5 C 382.527,153.052 382.194,150.385 382.5,147.5C 338.499,147.333 294.499,147.5 250.5,148C 253.833,148.333 257.167,148.667 260.5,149C 256.848,149.499 253.182,149.665 249.5,149.5C 249.179,154.695 249.513,159.695 250.5,164.5C 253.977,165.323 257.644,165.823 261.5,166C 257.833,166.333 254.167,166.667 250.5,167C 294.499,167.5 338.499,167.667 382.5,167.5C 382.649,166.448 382.483,165.448 382,164.5C 379.821,165.84 379.321,165.507 380.5,163.5C 382.213,162.365 382.88,160.698 382.5,158.5C 382.5,157.833 382.833,157.5 383.5,157.5C 383.5,161.5 383.5,165.5 383.5,169.5C 338.5,169.5 293.5,169.5 248.5,169.5C 248.5,161.833 248.5,154.167 248.5,146.5C 293.5,146.5 338.5,146.5 383.5,146.5C 383.5,149.5 383.5,152.5 383.5,155.5 Z"/></g>
<g><path style="opacity:1" fill="#bc95af" d="M 373.5,159.5 C 375.288,159.215 376.955,159.548 378.5,160.5C 377.667,160.833 376.833,161.167 376,161.5C 374.624,161.316 373.791,160.649 373.5,159.5 Z"/></g>
<g><path style="opacity:1" fill="#af8ba3" d="M 345.5,159.5 C 347.604,159.201 349.604,159.534 351.5,160.5C 350.5,160.833 349.5,161.167 348.5,161.5C 346.97,161.36 345.97,160.693 345.5,159.5 Z"/></g>
<g><path style="opacity:1" fill="#ac88a0" d="M 331.5,159.5 C 333.604,159.201 335.604,159.534 337.5,160.5C 336.5,160.833 335.5,161.167 334.5,161.5C 332.97,161.36 331.97,160.693 331.5,159.5 Z"/></g>
<g><path style="opacity:1" fill="#907387" d="M 253.5,158.5 C 255.527,158.338 257.527,158.505 259.5,159C 259.957,159.414 260.291,159.914 260.5,160.5C 258.257,161.474 255.924,161.808 253.5,161.5C 253.5,160.5 253.5,159.5 253.5,158.5 Z"/></g>
<g><path style="opacity:1" fill="#816577" d="M 377.5,154.5 C 375.901,154.232 374.568,154.566 373.5,155.5C 372.957,155.44 372.624,155.107 372.5,154.5C 374.299,153.212 375.965,153.212 377.5,154.5 Z"/></g>
<g><path style="opacity:1" fill="#e9daf2" d="M 526.5,173.5 C 524.238,175.893 521.572,176.06 518.5,174C 512.285,170.619 507.618,165.786 504.5,159.5C 505.404,158.791 505.737,157.791 505.5,156.5C 508.897,157.374 512.23,158.541 515.5,160C 519.612,164.382 523.279,168.882 526.5,173.5 Z"/></g>
<g><path style="opacity:1" fill="#d1bbe4" d="M 514.5,145.5 C 516.361,148.643 519.027,151.143 522.5,153C 519.649,152.828 517.149,151.661 515,149.5C 514.333,150.167 514.333,150.833 515,151.5C 516.255,152.211 517.421,153.044 518.5,154C 516.536,154.624 514.869,154.124 513.5,152.5C 513.167,152.667 512.833,152.833 512.5,153C 516.523,156.653 516.189,157.153 511.5,154.5C 511.167,154.833 510.833,155.167 510.5,155.5C 514.648,157.449 518.315,160.115 521.5,163.5C 521.833,163.333 522.167,163.167 522.5,163C 520.833,160.667 518.833,158.667 516.5,157C 520.018,157.472 522.851,159.306 525,162.5C 524.107,159.564 522.274,157.064 519.5,155C 520.167,154.333 520.833,154.333 521.5,155C 523.017,156.685 524.684,158.185 526.5,159.5C 526.833,158.833 527.167,158.167 527.5,157.5C 528.998,159.829 530.998,161.663 533.5,163C 532.226,163.977 532.226,164.811 533.5,165.5C 531.906,168.764 529.573,171.431 526.5,173.5C 523.279,168.882 519.612,164.382 515.5,160C 512.23,158.541 508.897,157.374 505.5,156.5C 505.737,157.791 505.404,158.791 504.5,159.5C 504.343,158.127 504.51,156.793 505,155.5C 508.399,152.271 511.565,148.938 514.5,145.5 Z"/></g>
<g><path style="opacity:1" fill="#b1b0b7" d="M 270.5,180.5 C 273.381,181.484 276.048,182.151 278.5,182.5C 277.826,184.517 276.659,186.183 275,187.5C 275,186.167 275,184.833 275,183.5C 273.89,185.037 272.39,185.703 270.5,185.5C 270.5,183.833 270.5,182.167 270.5,180.5 Z"/></g>
<g><path style="opacity:1" fill="#afaeb5" d="M 294.5,180.5 C 299.038,181.078 303.538,181.745 308,182.5C 308.414,182.043 308.914,181.709 309.5,181.5C 309.906,182.557 309.906,183.891 309.5,185.5C 307.167,185.5 304.833,185.5 302.5,185.5C 302.307,181.551 301.807,181.551 301,185.5C 300.692,184.692 300.192,184.025 299.5,183.5C 296.911,186.105 294.411,186.105 292,183.5C 290.271,186.079 288.438,186.079 286.5,183.5C 284.833,186.167 283.167,186.167 281.5,183.5C 280.808,184.025 280.308,184.692 280,185.5C 279.51,184.207 279.343,182.873 279.5,181.5C 284.602,182.155 289.602,181.822 294.5,180.5 Z"/></g>
<g><path style="opacity:1" fill="#b6b5bc" d="M 327.5,180.5 C 329.117,181.038 330.784,181.371 332.5,181.5C 332.769,183.429 332.269,185.095 331,186.5C 324.966,185.42 318.966,185.42 313,186.5C 312.506,184.866 312.34,183.199 312.5,181.5C 317.387,182.259 322.221,182.593 327,182.5C 327.464,181.906 327.631,181.239 327.5,180.5 Z"/></g>
<g><path style="opacity:1" fill="#bbb9c1" d="M 255.5,180.5 C 259.822,181.726 264.155,181.726 268.5,180.5C 268.5,182.167 268.5,183.833 268.5,185.5C 264.167,185.5 259.833,185.5 255.5,185.5C 255.5,183.833 255.5,182.167 255.5,180.5 Z"/></g>
<g><path style="opacity:1" fill="#1673f0" d="M 276.5,192.5 C 288.171,192.333 299.838,192.5 311.5,193C 312.798,197.118 312.798,201.285 311.5,205.5C 299.88,206.645 288.213,206.812 276.5,206C 275.194,201.501 275.194,197.001 276.5,192.5 Z"/></g>
<g><path style="opacity:1" fill="#77b0f6" d="M 291.5,197.5 C 295.835,198.767 300.168,198.767 304.5,197.5C 305.429,198.689 305.762,200.022 305.5,201.5C 300.833,201.5 296.167,201.5 291.5,201.5C 291.5,200.167 291.5,198.833 291.5,197.5 Z"/></g>
<g><path style="opacity:1" fill="#76b0f6" d="M 283.5,197.5 C 285.5,197.833 287.5,198.167 289.5,198.5C 289.5,199.5 289.5,200.5 289.5,201.5C 287.473,201.662 285.473,201.495 283.5,201C 282.316,199.855 282.316,198.688 283.5,197.5 Z"/></g>
<g><path style="opacity:1" fill="#efdef5" d="M 71.5,186.5 C 72.6594,187.456 73.8261,188.456 75,189.5C 76.1618,188.813 77.3284,188.647 78.5,189C 83.2714,192.138 87.7714,195.638 92,199.5C 91.9964,205.868 91.3297,212.201 90,218.5C 87.874,220.377 85.374,221.377 82.5,221.5C 82.6567,222.873 82.49,224.207 82,225.5C 81.2613,224.426 80.2613,223.759 79,223.5C 76.2704,224.861 73.4371,225.361 70.5,225C 66.3333,221.5 62.1667,218 58,214.5C 58.1122,208.146 58.7789,201.813 60,195.5C 63.5991,194.191 67.0991,192.691 70.5,191C 71.3802,189.644 71.7135,188.144 71.5,186.5 Z"/></g>
<g><path style="opacity:1" fill="#f6f3fd" d="M 75.5,190.5 C 80.7423,193.008 85.5756,196.341 90,200.5C 90.2706,206.55 89.7706,212.55 88.5,218.5C 82.9791,219.924 77.6458,221.924 72.5,224.5C 68.2944,220.13 63.6277,216.297 58.5,213C 59.5438,207.869 60.5438,202.702 61.5,197.5C 66.1857,195.157 70.8524,192.824 75.5,190.5 Z"/></g>
<g><path style="opacity:1" fill="#d8cbeb" d="M 75.5,197.5 C 81.9789,200.763 84.3123,205.93 82.5,213C 79.5682,214.145 76.5682,214.978 73.5,215.5C 73.7125,209.955 71.7125,205.455 67.5,202C 70.1915,200.395 72.8582,198.895 75.5,197.5 Z"/></g>
<g><path style="opacity:1" fill="#b9b7bf" d="M 311.5,213.5 C 314.041,214.623 314.041,215.956 311.5,217.5C 309.775,216.985 308.108,216.318 306.5,215.5C 308.291,214.83 309.958,214.163 311.5,213.5 Z"/></g>
<g><path style="opacity:1" fill="#c5c3cb" d="M 287.5,213.5 C 290.187,213.336 292.854,213.503 295.5,214C 296.973,214.71 297.64,215.876 297.5,217.5C 292.985,217.346 288.652,217.346 284.5,217.5C 283.479,216.998 283.312,216.332 284,215.5C 285.552,215.989 286.719,215.322 287.5,213.5 Z"/></g>
<g><path style="opacity:1" fill="#9b9ea7" d="M -0.5,281.5 C 198.5,281.5 397.5,281.5 596.5,281.5C 598.167,281.5 599.833,281.5 601.5,281.5C 601.5,282.167 601.5,282.833 601.5,283.5C 400.833,283.5 200.167,283.5 -0.5,283.5C -0.5,282.833 -0.5,282.167 -0.5,281.5 Z"/></g>
</svg>
