<?xml version="1.0" encoding="UTF-8"?>
<!DOCTYPE svg PUBLIC "-//W3C//DTD SVG 1.1//EN" "http://www.w3.org/Graphics/SVG/1.1/DTD/svg11.dtd">
<svg xmlns="http://www.w3.org/2000/svg" version="1.1" width="602px" height="281px" style="shape-rendering:geometricPrecision; text-rendering:geometricPrecision; image-rendering:optimizeQuality; fill-rule:evenodd; clip-rule:evenodd" xmlns:xlink="http://www.w3.org/1999/xlink">
<g><path style="opacity:1" fill="#1c1f2e" d="M -0.5,-0.5 C 198.5,-0.5 397.5,-0.5 596.5,-0.5C 596.5,8.16667 596.5,16.8333 596.5,25.5C 436.5,25.5 276.5,25.5 116.5,25.5C 116.5,109.167 116.5,192.833 116.5,276.5C 84.4983,276.333 52.4983,276.5 20.5,277C 60.832,277.5 101.165,277.667 141.5,277.5C 141.5,277.833 141.5,278.167 141.5,278.5C 100.82,277.839 60.4862,278.506 20.5,280.5C 13.5,280.5 6.5,280.5 -0.5,280.5C -0.5,186.833 -0.5,93.1667 -0.5,-0.5 Z"/></g>
<g><path style="opacity:1" fill="#bfbfbf" d="M 601.5,1.5 C 601.5,81.5 601.5,161.5 601.5,241.5C 600.167,201.839 599.5,161.839 599.5,121.5C 599.5,81.1611 600.167,41.1611 601.5,1.5 Z"/></g>
<g><path style="opacity:1" fill="#e6e6e6" d="M 598.5,-0.5 C 599.5,-0.5 600.5,-0.5 601.5,-0.5C 601.5,0.166667 601.5,0.833333 601.5,1.5C 600.167,41.1611 599.5,81.1611 599.5,121.5C 599.5,161.839 600.167,201.839 601.5,241.5C 601.5,253.5 601.5,265.5 601.5,277.5C 600.5,277.5 599.5,277.5 598.5,277.5C 598.5,184.833 598.5,92.1667 598.5,-0.5 Z"/></g>
<g><path style="opacity:1" fill="#99b1e3" d="M 29.5,5.5 C 28.7703,7.04504 27.437,7.87838 25.5,8C 26.448,8.48278 27.448,8.64945 28.5,8.5C 28.5,9.5 28.5,10.5 28.5,11.5C 25.8728,12.0916 23.2062,12.4249 20.5,12.5C 20.552,10.0971 20.2186,7.76375 19.5,5.5C 22.8333,4.16667 26.1667,4.16667 29.5,5.5 Z"/></g>
<g><path style="opacity:1" fill="#704aee" d="M 568.5,14.5 C 568.047,13.5416 567.381,12.7083 566.5,12C 568,8.16667 566.833,7 563,8.5C 562.316,9.78387 562.483,10.9505 563.5,12C 562.619,12.7083 561.953,13.5416 561.5,14.5C 558.746,12.9472 557.913,10.6139 559,7.5C 563,2.16667 567,2.16667 571,7.5C 572.081,10.6939 571.247,13.0272 568.5,14.5 Z"/></g>
<g><path style="opacity:1" fill="#e0e0e2" d="M 95.5,7.5 C 95.5,9.5 95.5,11.5 95.5,13.5C 93.8333,13.5 92.1667,13.5 90.5,13.5C 89.8386,12.2825 89.1719,10.9492 88.5,9.5C 87.3554,10.7757 87.3554,12.109 88.5,13.5C 87.675,14.3857 86.675,14.719 85.5,14.5C 86.3722,9.54147 84.3722,7.37481 79.5,8C 80.5634,9.18819 81.8967,9.68819 83.5,9.5C 84.1584,13.6772 82.4918,15.1772 78.5,14C 77.2888,13.1072 77.2888,12.2739 78.5,11.5C 79.6086,12.5896 80.6086,12.5896 81.5,11.5C 77.9794,10.85 76.9794,9.01662 78.5,6C 82.6807,7.28037 87.0141,7.78037 91.5,7.5C 91.2148,9.28801 91.5481,10.9547 92.5,12.5C 93.0014,10.3449 94.0014,8.67824 95.5,7.5 Z"/></g>
<g><path style="opacity:1" fill="#8c8d95" d="M 73.5,8.5 C 70.5,8.5 67.5,8.5 64.5,8.5C 64.0773,10.7812 64.744,12.4479 66.5,13.5C 63.5,14.8333 60.5,14.8333 57.5,13.5C 58.7348,13.2786 59.7348,12.6119 60.5,11.5C 60.8333,12.1667 61.1667,12.8333 61.5,13.5C 62.4519,11.9547 62.7852,10.288 62.5,8.5C 66.2684,7.21335 69.9351,7.21335 73.5,8.5 Z"/></g>
<g><path style="opacity:1" fill="#e5e5e7" d="M 73.5,8.5 C 73.4019,14.373 72.4019,14.7064 70.5,9.5C 69.052,16.0784 67.8854,16.0784 67,9.5C 66.51,10.7932 66.3433,12.1266 66.5,13.5C 64.744,12.4479 64.0773,10.7812 64.5,8.5C 67.5,8.5 70.5,8.5 73.5,8.5 Z"/></g>
<g><path style="opacity:1" fill="#b8b9bd" d="M 90.5,13.5 C 92.1667,13.5 93.8333,13.5 95.5,13.5C 95.5,11.5 95.5,9.5 95.5,7.5C 96.1174,7.61071 96.6174,7.94404 97,8.5C 99.0344,7.1379 101.201,6.1379 103.5,5.5C 103.5,8.5 103.5,11.5 103.5,14.5C 99.0538,13.7661 94.7204,13.4327 90.5,13.5 Z"/></g>
<g><path style="opacity:1" fill="#dcdddf" d="M 34.5,5.5 C 36.4672,5.26057 38.3005,5.59391 40,6.5C 40.6877,7.33172 40.521,7.99839 39.5,8.5C 35.8049,7.74857 35.9715,8.41524 40,10.5C 40.6838,11.7839 40.5171,12.9505 39.5,14C 37.5594,14.7429 35.7261,14.5762 34,13.5C 33.3123,12.6683 33.479,12.0016 34.5,11.5C 35.891,12.6446 37.2243,12.6446 38.5,11.5C 34.1909,11.223 32.8576,9.22304 34.5,5.5 Z"/></g>
<g><path style="opacity:1" fill="#bfbfc4" d="M 62.5,8.5 C 62.7852,10.288 62.4519,11.9547 61.5,13.5C 61.1667,12.8333 60.8333,12.1667 60.5,11.5C 59.7348,12.6119 58.7348,13.2786 57.5,13.5C 53.5747,15.4794 50.7414,14.4794 49,10.5C 48.51,11.7932 48.3433,13.1266 48.5,14.5C 41.768,15.5184 39.768,12.8517 42.5,6.5C 45.3704,7.12201 48.2037,7.78868 51,8.5C 53.2672,7.06516 55.2672,7.3985 57,9.5C 58.6779,7.44677 60.5112,7.11343 62.5,8.5 Z"/></g>
<g><path style="opacity:1" fill="#c3c4c8" d="M 108.5,7.5 C 113.328,7.38524 114.661,9.55191 112.5,14C 107.57,14.427 106.237,12.2604 108.5,7.5 Z"/></g>
<g><path style="opacity:1" fill="#d3d3d6" d="M 104.5,5.5 C 105.765,6.51448 106.431,8.01448 106.5,10C 106.167,11.5 105.833,13 105.5,14.5C 104.516,11.5719 104.183,8.57186 104.5,5.5 Z"/></g>
<g><path style="opacity:1" fill="#3e65a9" d="M 29.5,5.5 C 30.8333,8.5 30.8333,11.5 29.5,14.5C 29.631,13.7611 29.4643,13.0944 29,12.5C 26.0635,13.8166 23.2301,13.8166 20.5,12.5C 23.2062,12.4249 25.8728,12.0916 28.5,11.5C 28.5,10.5 28.5,9.5 28.5,8.5C 27.448,8.64945 26.448,8.48278 25.5,8C 27.437,7.87838 28.7703,7.04504 29.5,5.5 Z"/></g>
<g><path style="opacity:1" fill="#e9e7f4" d="M 568.5,14.5 C 567.866,15.9468 566.699,16.6134 565,16.5C 563.301,16.6134 562.134,15.9468 561.5,14.5C 561.953,13.5416 562.619,12.7083 563.5,12C 562.483,10.9505 562.316,9.78387 563,8.5C 566.833,7 568,8.16667 566.5,12C 567.381,12.7083 568.047,13.5416 568.5,14.5 Z"/></g>
<g><path style="opacity:1" fill="#2f7be6" d="M 19.5,5.5 C 20.2186,7.76375 20.552,10.0971 20.5,12.5C 23.2301,13.8166 26.0635,13.8166 29,12.5C 29.4643,13.0944 29.631,13.7611 29.5,14.5C 19.7512,18.2412 16.4178,15.2412 19.5,5.5 Z"/></g>
<g><path style="opacity:1" fill="#929399" d="M 597.5,-0.5 C 597.833,-0.5 598.167,-0.5 598.5,-0.5C 598.5,92.1667 598.5,184.833 598.5,277.5C 599.5,277.5 600.5,277.5 601.5,277.5C 601.5,277.833 601.5,278.167 601.5,278.5C 600.167,278.5 598.833,278.5 597.5,278.5C 597.5,185.5 597.5,92.5 597.5,-0.5 Z"/></g>
<g><path style="opacity:1" fill="#161925" d="M 596.5,-0.5 C 596.833,-0.5 597.167,-0.5 597.5,-0.5C 597.5,92.5 597.5,185.5 597.5,278.5C 589.5,278.5 581.5,278.5 573.5,278.5C 573.831,248.995 573.498,219.662 572.5,190.5C 571.657,188.827 570.324,187.66 568.5,187C 537.5,186.333 506.5,186.333 475.5,187C 474.29,188.039 473.29,189.206 472.5,190.5C 471.502,219.662 471.169,248.995 471.5,278.5C 468.833,278.5 466.167,278.5 463.5,278.5C 463.831,248.995 463.498,219.662 462.5,190.5C 461.657,188.827 460.324,187.66 458.5,187C 427.5,186.333 396.5,186.333 365.5,187C 364.29,188.039 363.29,189.206 362.5,190.5C 361.502,219.662 361.169,248.995 361.5,278.5C 358.833,278.5 356.167,278.5 353.5,278.5C 353.831,249.329 353.498,220.329 352.5,191.5C 352.084,189.248 350.751,187.748 348.5,187C 317.5,186.333 286.5,186.333 255.5,187C 254,187.833 252.833,189 252,190.5C 251.5,219.498 251.333,248.498 251.5,277.5C 251.5,277.833 251.5,278.167 251.5,278.5C 248.5,278.5 245.5,278.5 242.5,278.5C 242.825,248.789 242.492,219.123 241.5,189.5C 240.5,188.667 239.5,187.833 238.5,187C 207.5,186.333 176.5,186.333 145.5,187C 144.333,188.167 143.167,189.333 142,190.5C 141.5,219.498 141.333,248.498 141.5,277.5C 101.165,277.667 60.832,277.5 20.5,277C 52.4983,276.5 84.4983,276.333 116.5,276.5C 116.5,192.833 116.5,109.167 116.5,25.5C 276.5,25.5 436.5,25.5 596.5,25.5C 596.5,16.8333 596.5,8.16667 596.5,-0.5 Z"/></g>
<g><path style="opacity:1" fill="#1277f5" d="M 11.5,43.5 C 42.5018,43.3334 73.5018,43.5 104.5,44C 105.649,52.4213 105.816,60.9213 105,69.5C 73.905,70.662 42.7384,70.8286 11.5,70C 10.18,61.1668 10.18,52.3335 11.5,43.5 Z"/></g>
<g><path style="opacity:1" fill="#d1e6fd" d="M 35.5,54.5 C 36.8499,57.106 38.3499,57.106 40,54.5C 40.6667,56.1667 40.6667,57.8333 40,59.5C 38.6667,56.8333 37.3333,56.8333 36,59.5C 35.5065,57.8659 35.3398,56.1992 35.5,54.5 Z"/></g>
<g><path style="opacity:1" fill="#559dfb" d="M 25.5,54.5 C 26.7251,55.1522 27.3917,56.3189 27.5,58C 27.1667,59.1667 26.8333,60.3333 26.5,61.5C 19.1716,64.1896 16.5049,61.8562 18.5,54.5C 21.0423,50.6829 23.3756,50.6829 25.5,54.5 Z"/></g>
<g><path style="opacity:1" fill="#1579f9" d="M 25.5,54.5 C 26.3414,56.3792 26.6747,58.3792 26.5,60.5C 24.857,60.5198 23.5237,59.8532 22.5,58.5C 20.9146,61.2724 19.9146,61.1057 19.5,58C 19.9717,54.0088 21.9717,52.8421 25.5,54.5 Z"/></g>
<g><path style="opacity:1" fill="#b4d1fd" d="M 41.5,55.5 C 44.5,55.1667 45.8333,56.5 45.5,59.5C 44.1667,59.5 42.8333,59.5 41.5,59.5C 41.5,58.1667 41.5,56.8333 41.5,55.5 Z"/></g>
<g><path style="opacity:1" fill="#accffd" d="M 46.5,55.5 C 50.315,56.1049 53.9817,56.1049 57.5,55.5C 57.8379,60.3313 55.8379,61.6646 51.5,59.5C 51.4042,55.6893 50.7376,55.6893 49.5,59.5C 48.4024,55.6395 47.5691,55.6395 47,59.5C 46.51,58.2068 46.3433,56.8734 46.5,55.5 Z"/></g>
<g><path style="opacity:1" fill="#50535c" d="M 161.5,63.5 C 201.501,63.3333 241.501,63.5 281.5,64C 282.639,69.4162 282.806,74.9162 282,80.5C 241.904,81.663 201.738,81.8297 161.5,81C 160.187,75.167 160.187,69.3337 161.5,63.5 Z"/></g>
<g><path style="opacity:1" fill="#a2a4a8" d="M 167.5,69.5 C 168.943,70.3351 169.943,71.6684 170.5,73.5C 171.167,72.1667 171.833,70.8333 172.5,69.5C 174.167,70.1667 175.833,70.8333 177.5,71.5C 180.167,71.5 182.833,71.5 185.5,71.5C 190.847,68.5959 195.68,69.2626 200,73.5C 200.333,72.8333 200.667,72.1667 201,71.5C 201.494,73.1341 201.66,74.8008 201.5,76.5C 200.5,76.5 199.5,76.5 198.5,76.5C 198.649,75.448 198.483,74.448 198,73.5C 197.667,73.8333 197.333,74.1667 197,74.5C 196.692,73.6919 196.192,73.0253 195.5,72.5C 193.562,75.0789 191.729,75.0789 190,72.5C 189.333,75.1667 188.667,75.1667 188,72.5C 186.934,74.0995 185.434,75.0995 183.5,75.5C 181.5,75.1667 179.5,74.8333 177.5,74.5C 176.252,75.0402 175.085,75.7069 174,76.5C 173.667,75.5 173.333,74.5 173,73.5C 171.333,76.1667 169.667,76.1667 168,73.5C 167.51,72.2068 167.343,70.8734 167.5,69.5 Z"/></g>
<g><path style="opacity:1" fill="#999ba0" d="M 233.5,70.5 C 236.247,70.1866 238.914,70.52 241.5,71.5C 240.975,72.1924 240.308,72.6924 239.5,73C 240.308,73.3076 240.975,73.8076 241.5,74.5C 238.914,75.48 236.247,75.8134 233.5,75.5C 233.5,73.8333 233.5,72.1667 233.5,70.5 Z"/></g>
<g><path style="opacity:1" fill="#9ea0a5" d="M 247.5,69.5 C 252.296,69.5983 256.962,69.765 261.5,70C 262.939,72.305 262.439,74.1384 260,75.5C 257.146,75.7703 254.313,75.2703 251.5,74C 256.509,72.7808 256.176,71.9475 250.5,71.5C 250.5,72.8333 250.5,74.1667 250.5,75.5C 246.921,75.2343 246.587,73.901 249.5,71.5C 249.154,70.3044 248.654,70.3044 248,71.5C 247.536,70.9056 247.369,70.2389 247.5,69.5 Z"/></g>
<g><path style="opacity:1" fill="#b4b5b9" d="M 264.5,69.5 C 266.527,69.3379 268.527,69.5045 270.5,70C 271.126,70.7504 271.626,71.5838 272,72.5C 272.419,71.3279 273.085,70.3279 274,69.5C 274.494,71.1341 274.66,72.8008 274.5,74.5C 271.214,74.0712 268.047,74.0712 265,74.5C 264.506,72.8659 264.34,71.1992 264.5,69.5 Z"/></g>
<g><path style="opacity:1" fill="#a4a5aa" d="M 204.5,69.5 C 205.79,70.0577 206.623,71.0577 207,72.5C 207.981,69.3113 209.314,68.978 211,71.5C 213.333,71.5 215.667,71.5 218,71.5C 220.833,69.1733 223.833,69.1733 227,71.5C 228.356,70.6198 229.856,70.2865 231.5,70.5C 231.33,77.501 229.163,78.1677 225,72.5C 222.492,74.1742 219.658,75.1742 216.5,75.5C 213.042,75.4434 209.542,74.7767 206,73.5C 205.667,73.8333 205.333,74.1667 205,74.5C 204.506,72.8659 204.34,71.1992 204.5,69.5 Z"/></g>
<g><path style="opacity:1" fill="#8492ac" d="M 18.5,89.5 C 21.1873,89.3359 23.854,89.5026 26.5,90C 28.5598,91.4926 28.8932,93.3259 27.5,95.5C 24.7877,93.7397 21.7877,93.073 18.5,93.5C 18.5,95.1667 18.5,96.8333 18.5,98.5C 22.1716,99.0447 21.8383,99.3781 17.5,99.5C 17.2529,96.0613 17.5863,92.728 18.5,89.5 Z"/></g>
<g><path style="opacity:1" fill="#a5a7ac" d="M 38.5,90.5 C 42.0264,92.5689 45.6931,93.4022 49.5,93C 47.3553,93.7431 47.1886,94.5765 49,95.5C 50.4248,92.8023 52.4248,92.1356 55,93.5C 58.0185,93.0187 60.8518,92.0187 63.5,90.5C 66.8145,93.335 70.4812,94.0017 74.5,92.5C 74.5,94.5 74.5,96.5 74.5,98.5C 70.1635,99.4236 67.6635,97.7569 67,93.5C 66.51,94.7932 66.3433,96.1266 66.5,97.5C 64.5,97.5 62.5,97.5 60.5,97.5C 60.1667,92.1667 59.8333,92.1667 59.5,97.5C 52.0287,97.362 44.862,97.362 38,97.5C 36.1147,97.1379 35.2814,95.9713 35.5,94C 35.6667,93.1667 35.8333,92.3333 36,91.5C 37.4578,96.5945 38.2912,96.2611 38.5,90.5 Z"/></g>
<g><path style="opacity:1" fill="#fafafa" d="M 167.5,113.5 C 169.167,113.5 170.833,113.5 172.5,113.5C 172.5,120.833 172.5,128.167 172.5,135.5C 171.167,135.5 169.833,135.5 168.5,135.5C 168.829,129.794 168.495,124.128 167.5,118.5C 166.893,118.624 166.56,118.957 166.5,119.5C 162.785,122.477 161.619,121.477 163,116.5C 164.271,115.117 165.771,114.117 167.5,113.5 Z"/></g>
<g><path style="opacity:1" fill="#eaeaeb" d="M 182.5,112.5 C 187.447,111.628 191.613,112.961 195,116.5C 195.755,119.303 195.422,121.97 194,124.5C 191.833,126.667 189.667,128.833 187.5,131C 190.482,131.498 193.482,131.665 196.5,131.5C 196.5,133.167 196.5,134.833 196.5,136.5C 190.5,136.5 184.5,136.5 178.5,136.5C 178.34,134.801 178.506,133.134 179,131.5C 183.386,128.615 186.886,124.948 189.5,120.5C 189.5,118.5 188.5,117.5 186.5,117.5C 184.293,119.514 181.627,120.514 178.5,120.5C 178.343,119.127 178.51,117.793 179,116.5C 180.376,115.295 181.542,113.962 182.5,112.5 Z"/></g>
<g><path style="opacity:1" fill="#ebebec" d="M 213.5,112.5 C 215.5,112.5 217.5,112.5 219.5,112.5C 219.5,120.5 219.5,128.5 219.5,136.5C 217.5,136.5 215.5,136.5 213.5,136.5C 213.829,130.794 213.495,125.128 212.5,119.5C 209.157,122.095 207.99,121.095 209,116.5C 210.667,115.267 212.167,113.933 213.5,112.5 Z"/></g>
<g><path style="opacity:1" fill="#ebebec" d="M 229.5,112.5 C 240.279,112.45 244.779,117.783 243,128.5C 240.451,135.358 235.617,137.858 228.5,136C 226.077,134.429 224.744,132.263 224.5,129.5C 227.488,129.439 230.321,130.105 233,131.5C 236.218,131.029 237.385,129.362 236.5,126.5C 226.837,130.35 223.004,127.017 225,116.5C 226.397,114.93 227.897,113.596 229.5,112.5 Z"/></g>
<g><path style="opacity:1" fill="#8e8f95" d="M 264.5,113.5 C 260.833,113.5 257.167,113.5 253.5,113.5C 253.5,121.167 253.5,128.833 253.5,136.5C 252.508,128.684 252.174,120.684 252.5,112.5C 256.702,112.183 260.702,112.517 264.5,113.5 Z"/></g>
<g><path style="opacity:1" fill="#f1f2f2" d="M 264.5,113.5 C 270.087,114.591 272.254,117.924 271,123.5C 268.559,128.927 264.392,130.927 258.5,129.5C 258.5,131.833 258.5,134.167 258.5,136.5C 256.833,136.5 255.167,136.5 253.5,136.5C 253.5,128.833 253.5,121.167 253.5,113.5C 257.167,113.5 260.833,113.5 264.5,113.5 Z"/></g>
<g><path style="opacity:1" fill="#f7f7f7" d="M 280.5,113.5 C 282.515,117.825 284.681,122.159 287,126.5C 289.289,122.321 291.122,117.988 292.5,113.5C 294.833,113.5 297.167,113.5 299.5,113.5C 299.5,121.167 299.5,128.833 299.5,136.5C 297.833,136.5 296.167,136.5 294.5,136.5C 294.666,132.154 294.499,127.821 294,123.5C 292.961,124.244 292.461,125.244 292.5,126.5C 291.047,129.353 289.881,132.353 289,135.5C 287.644,136.38 286.144,136.714 284.5,136.5C 283.73,132.297 282.396,128.297 280.5,124.5C 280.631,123.624 280.298,122.957 279.5,122.5C 278.508,126.783 278.174,131.116 278.5,135.5C 277.167,135.5 275.833,135.5 274.5,135.5C 274.5,128.167 274.5,120.833 274.5,113.5C 276.5,113.5 278.5,113.5 280.5,113.5 Z"/></g>
<g><path style="opacity:1" fill="#c0c1c5" d="M 167.5,113.5 C 169.265,112.539 171.265,112.205 173.5,112.5C 173.5,120.5 173.5,128.5 173.5,136.5C 171.5,136.5 169.5,136.5 167.5,136.5C 167.822,130.642 167.489,124.975 166.5,119.5C 166.56,118.957 166.893,118.624 167.5,118.5C 168.495,124.128 168.829,129.794 168.5,135.5C 169.833,135.5 171.167,135.5 172.5,135.5C 172.5,128.167 172.5,120.833 172.5,113.5C 170.833,113.5 169.167,113.5 167.5,113.5 Z"/></g>
<g><path style="opacity:1" fill="#bdbec1" d="M 280.5,113.5 C 278.5,113.5 276.5,113.5 274.5,113.5C 274.5,120.833 274.5,128.167 274.5,135.5C 275.833,135.5 277.167,135.5 278.5,135.5C 278.174,131.116 278.508,126.783 279.5,122.5C 280.298,122.957 280.631,123.624 280.5,124.5C 279.517,128.298 279.183,132.298 279.5,136.5C 277.5,136.5 275.5,136.5 273.5,136.5C 273.5,128.5 273.5,120.5 273.5,112.5C 276.059,112.198 278.393,112.532 280.5,113.5 Z"/></g>
<g><path style="opacity:1" fill="#7c7e85" d="M 292.5,113.5 C 294.948,112.527 297.615,112.194 300.5,112.5C 300.826,120.684 300.492,128.684 299.5,136.5C 299.5,128.833 299.5,121.167 299.5,113.5C 297.167,113.5 294.833,113.5 292.5,113.5 Z"/></g>
<g><path style="opacity:1" fill="#e8e9ea" d="M 200.5,116.5 C 204.235,116.546 205.568,118.213 204.5,121.5C 199.732,122.889 198.398,121.223 200.5,116.5 Z"/></g>
<g><path style="opacity:1" fill="#1c1f2a" d="M 231.5,117.5 C 236.328,117.385 237.661,119.552 235.5,124C 230.57,124.427 229.237,122.26 231.5,117.5 Z"/></g>
<g><path style="opacity:1" fill="#252833" d="M 258.5,117.5 C 264.158,116.679 265.825,118.846 263.5,124C 261.866,124.494 260.199,124.66 258.5,124.5C 258.5,122.167 258.5,119.833 258.5,117.5 Z"/></g>
<g><path style="opacity:1" fill="#70727a" d="M 294.5,136.5 C 293.833,133.167 293.167,129.833 292.5,126.5C 292.461,125.244 292.961,124.244 294,123.5C 294.499,127.821 294.666,132.154 294.5,136.5 Z"/></g>
<g><path style="opacity:1" fill="#e8e8e9" d="M 199.5,128.5 C 201.199,128.34 202.866,128.506 204.5,129C 205.833,130.333 205.833,131.667 204.5,133C 202.866,133.494 201.199,133.66 199.5,133.5C 199.5,131.833 199.5,130.167 199.5,128.5 Z"/></g>
<g><path style="opacity:1" fill="#a3a4aa" d="M 52.5,127.5 C 53.9311,127.881 54.7645,128.881 55,130.5C 56.8886,129.903 58.7219,129.569 60.5,129.5C 61.7376,133.311 62.4042,133.311 62.5,129.5C 64.5,129.5 66.5,129.5 68.5,129.5C 68.7135,131.144 68.3802,132.644 67.5,134C 62.3404,133.867 57.5071,134.034 53,134.5C 52.6667,133.5 52.3333,132.5 52,131.5C 51.1305,134.763 49.7972,135.096 48,132.5C 46.951,134.107 45.451,134.773 43.5,134.5C 42.9473,130.544 42.1139,130.544 41,134.5C 39.7245,130.908 38.0579,130.908 36,134.5C 35.5045,132.527 35.3379,130.527 35.5,128.5C 40.6432,128.618 45.4765,129.618 50,131.5C 51.0848,130.264 51.9181,128.931 52.5,127.5 Z"/></g>
<g><path style="opacity:1" fill="#717c95" d="M 18.5,126.5 C 27.6999,125.036 30.6999,128.702 27.5,137.5C 24.2293,136.802 20.896,136.802 17.5,137.5C 17.244,133.731 17.5773,130.064 18.5,126.5 Z"/></g>
<g><path style="opacity:1" fill="#212434" d="M 18.5,130.5 C 21.1667,130.5 23.8333,130.5 26.5,130.5C 26.6567,131.873 26.49,133.207 26,134.5C 25.586,134.043 25.086,133.709 24.5,133.5C 22.8273,135.086 20.8273,135.753 18.5,135.5C 18.5,133.833 18.5,132.167 18.5,130.5 Z"/></g>
<g><path style="opacity:1" fill="#8d9bb6" d="M 250.5,147.5 C 251.833,147.5 253.167,147.5 254.5,147.5C 254.643,149.262 254.309,150.929 253.5,152.5C 256.276,154.279 255.943,155.279 252.5,155.5C 251.5,155.167 250.5,154.833 249.5,154.5C 250.833,152.833 252.167,151.167 253.5,149.5C 252.284,148.904 250.951,148.737 249.5,149C 250.056,148.617 250.389,148.117 250.5,147.5 Z"/></g>
<g><path style="opacity:1" fill="#8d9bb5" d="M 188.5,150.5 C 189.568,149.566 190.901,149.232 192.5,149.5C 192.5,151.5 192.5,153.5 192.5,155.5C 187.08,155.513 186.413,154.013 190.5,151C 189.906,150.536 189.239,150.369 188.5,150.5 Z"/></g>
<g><path style="opacity:1" fill="#8b99b3" d="M 162.5,147.5 C 164.288,147.215 165.955,147.548 167.5,148.5C 166.167,148.833 164.833,149.167 163.5,149.5C 167.021,150.15 168.021,151.983 166.5,155C 164.888,155.72 163.388,155.554 162,154.5C 161.333,153.833 161.333,153.167 162,152.5C 163.049,153.517 164.216,153.684 165.5,153C 162.334,152.066 161.334,150.233 162.5,147.5 Z"/></g>
<g><path style="opacity:1" fill="#a6b6d3" d="M 217.5,149.5 C 219.167,149.5 220.833,149.5 222.5,149.5C 222.66,151.199 222.494,152.866 222,154.5C 220.438,149.372 219.105,149.372 218,154.5C 217.506,152.866 217.34,151.199 217.5,149.5 Z"/></g>
<g><path style="opacity:1" fill="#8693ad" d="M 223.5,149.5 C 225.167,149.5 226.833,149.5 228.5,149.5C 228.5,150.5 228.5,151.5 228.5,152.5C 227.325,152.281 226.325,152.614 225.5,153.5C 226.397,153.669 227.397,154.002 228.5,154.5C 224.072,156.052 222.405,154.386 223.5,149.5 Z"/></g>
<g><path style="opacity:1" fill="#758199" d="M 233.5,147.5 C 234.5,147.5 235.5,147.5 236.5,147.5C 236.813,150.247 236.48,152.914 235.5,155.5C 234.964,153.031 233.964,150.864 232.5,149C 233.056,148.617 233.389,148.117 233.5,147.5 Z"/></g>
<g><path style="opacity:1" fill="#77839b" d="M 238.5,147.5 C 240.288,147.215 241.955,147.548 243.5,148.5C 243.521,150.602 243.187,152.768 242.5,155C 237.632,154.711 236.299,152.211 238.5,147.5 Z"/></g>
<g><path style="opacity:1" fill="#8e9cb7" d="M 257.5,147.5 C 262.068,147.083 263.568,149.083 262,153.5C 260.604,155.527 258.938,155.86 257,154.5C 256.297,152.071 256.463,149.738 257.5,147.5 Z"/></g>
<g><path style="opacity:1" fill="#212532" d="M 258.5,148.5 C 260.256,149.552 260.923,151.219 260.5,153.5C 259.5,153.5 258.5,153.5 257.5,153.5C 257.366,151.708 257.699,150.042 258.5,148.5 Z"/></g>
<g><path style="opacity:1" fill="#8b99b3" d="M 184.5,147.5 C 185.725,148.152 186.392,149.319 186.5,151C 186.167,152.167 185.833,153.333 185.5,154.5C 184.167,149.167 182.833,149.167 181.5,154.5C 180.833,154.833 180.167,155.167 179.5,155.5C 178.833,153.833 178.167,152.167 177.5,150.5C 175.598,155.706 174.598,155.373 174.5,149.5C 178.496,151.26 181.83,150.593 184.5,147.5 Z"/></g>
<g><path style="opacity:1" fill="#95a4bf" d="M 193.5,149.5 C 194.931,149.881 195.764,150.881 196,152.5C 196.249,151.376 196.749,150.376 197.5,149.5C 198.129,152.6 197.129,155.267 194.5,157.5C 194.763,155.039 194.429,152.372 193.5,149.5 Z"/></g>
<g><path style="opacity:1" fill="#9dadc9" d="M 272.5,147.5 C 274.12,148.841 275.12,150.674 275.5,153C 275,153.5 274.5,154 274,154.5C 272.491,153.91 270.991,153.244 269.5,152.5C 270.26,150.64 271.26,148.973 272.5,147.5 Z"/></g>
<g><path style="opacity:1" fill="#8492ab" d="M 168.5,149.5 C 169.161,150.718 169.828,152.051 170.5,153.5C 172.675,148.637 173.675,149.303 173.5,155.5C 169.092,155.938 167.425,153.938 168.5,149.5 Z"/></g>
<g><path style="opacity:1" fill="#7f8ca6" d="M 207.5,147.5 C 208.725,148.152 209.392,149.319 209.5,151C 209.826,153.271 208.992,154.771 207,155.5C 205.72,155.387 204.887,154.72 204.5,153.5C 205.274,152.289 206.107,152.289 207,153.5C 207.495,151.527 207.662,149.527 207.5,147.5 Z"/></g>
<g><path style="opacity:1" fill="#8390aa" d="M 210.5,149.5 C 211.943,150.335 212.943,151.668 213.5,153.5C 215.565,148.323 216.398,148.656 216,154.5C 211.325,156.334 209.492,154.667 210.5,149.5 Z"/></g>
<g><path style="opacity:1" fill="#8593ac" d="M 263.5,147.5 C 265.167,147.5 266.833,147.5 268.5,147.5C 268.822,149.722 268.155,151.556 266.5,153C 269.23,154.232 269.063,155.065 266,155.5C 265.167,155.167 264.333,154.833 263.5,154.5C 264.711,153.126 265.711,151.626 266.5,150C 265.99,148.174 265.156,148.007 264,149.5C 263.536,148.906 263.369,148.239 263.5,147.5 Z"/></g>
<g><path style="opacity:1" fill="#7e8ba5" d="M 18.5,164.5 C 21.5448,164.508 24.5448,164.841 27.5,165.5C 27.6567,166.873 27.49,168.207 27,169.5C 26.4444,167.405 25.9444,167.238 25.5,169C 25.9054,169.945 26.572,170.612 27.5,171C 19.0075,175.965 16.0075,173.799 18.5,164.5 Z"/></g>
<g><path style="opacity:1" fill="#1c1f2d" d="M 18.5,166.5 C 20.1667,166.5 21.8333,166.5 23.5,166.5C 23.5,168.167 23.5,169.833 23.5,171.5C 21.8333,171.5 20.1667,171.5 18.5,171.5C 18.5,169.833 18.5,168.167 18.5,166.5 Z"/></g>
<g><path style="opacity:1" fill="#a2a3a9" d="M 35.5,165.5 C 37.7224,165.178 39.5557,165.845 41,167.5C 42.5874,166.273 43.9207,166.606 45,168.5C 45.3879,167.572 46.0546,166.905 47,166.5C 51.9819,167.601 57.1486,167.268 62.5,165.5C 67.8118,167.151 73.1451,167.484 78.5,166.5C 78.5,168.167 78.5,169.833 78.5,171.5C 75.9105,171.396 73.5771,172.063 71.5,173.5C 69.1243,172.624 67.6243,170.958 67,168.5C 66.5172,169.448 66.3505,170.448 66.5,171.5C 63.5,171.5 60.5,171.5 57.5,171.5C 57.4042,167.689 56.7376,167.689 55.5,171.5C 48.8841,170.846 42.3841,170.846 36,171.5C 35.5045,169.527 35.3379,167.527 35.5,165.5 Z"/></g>
<g><path style="opacity:1" fill="#fc732e" d="M 242.5,278.5 C 211.167,278.5 179.833,278.5 148.5,278.5C 146.167,278.5 143.833,278.5 141.5,278.5C 141.5,278.167 141.5,277.833 141.5,277.5C 141.333,248.498 141.5,219.498 142,190.5C 143.167,189.333 144.333,188.167 145.5,187C 176.5,186.333 207.5,186.333 238.5,187C 239.5,187.833 240.5,188.667 241.5,189.5C 242.492,219.123 242.825,248.789 242.5,278.5 Z"/></g>
<g><path style="opacity:1" fill="#1077f7" d="M 352.5,191.5 C 352.5,220.167 352.5,248.833 352.5,277.5C 318.833,277.5 285.167,277.5 251.5,277.5C 251.333,248.498 251.5,219.498 252,190.5C 252.833,189 254,187.833 255.5,187C 286.5,186.333 317.5,186.333 348.5,187C 350.751,187.748 352.084,189.248 352.5,191.5 Z"/></g>
<g><path style="opacity:1" fill="#8311f8" d="M 462.5,190.5 C 462.5,219.5 462.5,248.5 462.5,277.5C 429.167,277.5 395.833,277.5 362.5,277.5C 362.5,248.5 362.5,219.5 362.5,190.5C 363.29,189.206 364.29,188.039 365.5,187C 396.5,186.333 427.5,186.333 458.5,187C 460.324,187.66 461.657,188.827 462.5,190.5 Z"/></g>
<g><path style="opacity:1" fill="#f7a911" d="M 572.5,190.5 C 572.5,219.5 572.5,248.5 572.5,277.5C 539.167,277.5 505.833,277.5 472.5,277.5C 472.5,248.5 472.5,219.5 472.5,190.5C 473.29,189.206 474.29,188.039 475.5,187C 506.5,186.333 537.5,186.333 568.5,187C 570.324,187.66 571.657,188.827 572.5,190.5 Z"/></g>
<g><path style="opacity:1" fill="#ff9762" d="M 150.5,197.5 C 156.176,197.334 161.843,197.501 167.5,198C 168,198.5 168.5,199 169,199.5C 169.667,205.167 169.667,210.833 169,216.5C 168.5,217 168,217.5 167.5,218C 161.833,218.667 156.167,218.667 150.5,218C 150,217.5 149.5,217 149,216.5C 148.333,210.833 148.333,205.167 149,199.5C 149.717,198.956 150.217,198.289 150.5,197.5 Z"/></g>
<g><path style="opacity:1" fill="#529cfb" d="M 260.5,197.5 C 266.176,197.334 271.843,197.501 277.5,198C 278,198.5 278.5,199 279,199.5C 279.79,205.552 279.624,211.552 278.5,217.5C 272.528,218.664 266.528,218.83 260.5,218C 260,217.5 259.5,217 259,216.5C 258.333,210.833 258.333,205.167 259,199.5C 259.717,198.956 260.217,198.289 260.5,197.5 Z"/></g>
<g><path style="opacity:1" fill="#acadb3" d="M 35.5,202.5 C 40.6222,204.014 45.9555,204.68 51.5,204.5C 56.4554,204.049 61.2887,204.049 66,204.5C 66.3076,203.692 66.8076,203.025 67.5,202.5C 68.4656,204.396 68.7989,206.396 68.5,208.5C 64.4767,210.492 61.4767,209.492 59.5,205.5C 58.6143,206.325 58.281,207.325 58.5,208.5C 55.1667,208.5 51.8333,208.5 48.5,208.5C 47.8333,204.5 47.1667,204.5 46.5,208.5C 43.7562,208.752 41.2562,208.085 39,206.5C 37.7387,206.759 36.7387,207.426 36,208.5C 35.5045,206.527 35.3379,204.527 35.5,202.5 Z"/></g>
<g><path style="opacity:1" fill="#a8a9af" d="M 70.5,202.5 C 73.7887,203.409 77.122,204.409 80.5,205.5C 84.4295,204.567 88.4295,204.234 92.5,204.5C 92.5,205.833 92.5,207.167 92.5,208.5C 91.1667,208.5 89.8333,208.5 88.5,208.5C 88.1667,204.5 87.8333,204.5 87.5,208.5C 82.0553,207.87 76.722,207.87 71.5,208.5C 70.5344,206.604 70.2011,204.604 70.5,202.5 Z"/></g>
<g><path style="opacity:1" fill="#97a6c2" d="M 21.5,200.5 C 23.256,201.552 23.9227,203.219 23.5,205.5C 28.8333,206.167 28.8333,206.833 23.5,207.5C 22.8333,212.833 22.1667,212.833 21.5,207.5C 16.1667,206.833 16.1667,206.167 21.5,205.5C 21.5,203.833 21.5,202.167 21.5,200.5 Z"/></g>
<g><path style="opacity:1" fill="#ffebe1" d="M 158.5,202.5 C 160.256,203.552 160.923,205.219 160.5,207.5C 167.167,208.167 167.167,208.833 160.5,209.5C 159.833,216.167 159.167,216.167 158.5,209.5C 151.833,208.833 151.833,208.167 158.5,207.5C 158.5,205.833 158.5,204.167 158.5,202.5 Z"/></g>
<g><path style="opacity:1" fill="#c8dffd" d="M 267.5,202.5 C 272.214,202.201 273.88,204.201 272.5,208.5C 268.907,208.742 266.241,210.409 264.5,213.5C 264.167,213.167 263.833,212.833 263.5,212.5C 264.5,211.167 265.5,209.833 266.5,208.5C 265.15,206.217 265.483,204.217 267.5,202.5 Z"/></g>
<g><path style="opacity:1" fill="#4e9bfb" d="M 268.5,203.5 C 271.956,204.536 272.29,206.203 269.5,208.5C 267.296,207.218 266.962,205.551 268.5,203.5 Z"/></g>
<g><path style="opacity:1" fill="#ffcbb0" d="M 201.5,251.5 C 206.273,254.018 211.273,254.685 216.5,253.5C 216.777,256.448 216.444,259.281 215.5,262C 214.167,262.667 212.833,262.667 211.5,262C 210.692,260.294 209.359,259.461 207.5,259.5C 207.167,254.167 206.833,254.167 206.5,259.5C 204.833,259.5 203.167,259.5 201.5,259.5C 201.5,256.833 201.5,254.167 201.5,251.5 Z"/></g>
<g><path style="opacity:1" fill="#ffd5bf" d="M 148.5,251.5 C 150.592,251.561 152.092,252.561 153,254.5C 153.483,253.552 153.649,252.552 153.5,251.5C 154.5,251.5 155.5,251.5 156.5,251.5C 156.351,252.552 156.517,253.552 157,254.5C 160.527,254.475 164.027,254.142 167.5,253.5C 168.192,254.025 168.692,254.692 169,255.5C 169.308,254.692 169.808,254.025 170.5,253.5C 171.231,255.401 171.231,257.401 170.5,259.5C 168.387,258.744 166.387,258.577 164.5,259C 163.118,254.295 162.451,254.461 162.5,259.5C 159.837,259.101 157.337,259.101 155,259.5C 153.739,259.241 152.739,258.574 152,257.5C 151.29,258.973 150.124,259.64 148.5,259.5C 148.5,256.833 148.5,254.167 148.5,251.5 Z"/></g>
<g><path style="opacity:1" fill="#ffd6c1" d="M 174.5,251.5 C 177.05,251.561 178.55,252.894 179,255.5C 181.201,250.514 182.868,250.514 184,255.5C 186,252.833 188,252.833 190,255.5C 191.733,253.398 193.733,253.065 196,254.5C 197.612,251.921 199.112,251.921 200.5,254.5C 199.253,256.042 199.253,257.542 200.5,259C 198.284,258.456 196.117,258.623 194,259.5C 192.289,259.561 190.956,258.894 190,257.5C 189.326,258.578 188.326,259.245 187,259.5C 185.331,258.834 183.831,258.834 182.5,259.5C 181.749,258.624 181.249,257.624 181,256.5C 179.667,260.5 178.333,260.5 177,256.5C 176.751,257.624 176.251,258.624 175.5,259.5C 174.52,256.914 174.187,254.247 174.5,251.5 Z"/></g>
<g><path style="opacity:1" fill="#599bfa" d="M 312.5,266.5 C 312.833,266.5 313.167,266.5 313.5,266.5C 313.34,268.199 313.506,269.866 314,271.5C 314.232,270.263 314.732,269.263 315.5,268.5C 315.5,269.833 315.5,271.167 315.5,272.5C 313.5,272.5 311.5,272.5 309.5,272.5C 308.815,269.74 308.481,267.073 308.5,264.5C 309.708,263.766 311.041,263.433 312.5,263.5C 312.5,264.5 312.5,265.5 312.5,266.5 Z"/></g>
<g><path style="opacity:1" fill="#c2dafd" d="M 271.5,266.5 C 273.308,267.918 273.975,269.918 273.5,272.5C 272.25,272.423 271.417,271.756 271,270.5C 268.88,273.08 266.713,273.08 264.5,270.5C 263.065,272.401 261.398,272.734 259.5,271.5C 260.325,270.614 261.325,270.281 262.5,270.5C 262.201,268.396 262.534,266.396 263.5,264.5C 264.251,265.376 264.751,266.376 265,267.5C 267.364,266.696 269.531,266.363 271.5,266.5 Z"/></g>
<g><path style="opacity:1" fill="#5ea1fb" d="M 279.5,266.5 C 277.833,266.5 276.167,266.5 274.5,266.5C 274.077,268.781 274.744,270.448 276.5,271.5C 275.791,272.404 274.791,272.737 273.5,272.5C 273.975,269.918 273.308,267.918 271.5,266.5C 271.5,265.5 271.5,264.5 271.5,263.5C 274.276,264.412 276.943,265.412 279.5,266.5 Z"/></g>
<g><path style="opacity:1" fill="#d7e8fe" d="M 279.5,266.5 C 280.793,268.364 280.793,270.364 279.5,272.5C 278.833,270.833 278.167,269.167 277.5,267.5C 276.571,268.689 276.238,270.022 276.5,271.5C 274.744,270.448 274.077,268.781 274.5,266.5C 276.167,266.5 277.833,266.5 279.5,266.5 Z"/></g>
<g><path style="opacity:1" fill="#c4dcfd" d="M 308.5,264.5 C 308.481,267.073 308.815,269.74 309.5,272.5C 308.504,272.586 307.671,272.252 307,271.5C 306.333,266.167 305.667,266.167 305,271.5C 304.439,272.022 303.772,272.355 303,272.5C 300.21,271.868 297.377,271.702 294.5,272C 292.73,266.939 294.397,265.439 299.5,267.5C 302.682,266.884 305.682,265.884 308.5,264.5 Z"/></g>
<g><path style="opacity:1" fill="#d0e4fd" d="M 312.5,266.5 C 312.785,268.288 312.452,269.955 311.5,271.5C 311.167,270.667 310.833,269.833 310.5,269C 310.684,267.624 311.351,266.791 312.5,266.5 Z"/></g>
<g><path style="opacity:1" fill="#c9dffe" d="M 283.5,264.5 C 285.911,264.137 287.411,265.137 288,267.5C 288.908,265.561 290.408,264.561 292.5,264.5C 292.813,267.247 292.48,269.914 291.5,272.5C 290.749,271.624 290.249,270.624 290,269.5C 288.846,271.957 287.512,271.957 286,269.5C 285.751,270.624 285.251,271.624 284.5,272.5C 283.52,269.914 283.187,267.247 283.5,264.5 Z"/></g>
<g><path style="opacity:1" fill="#d6e6fe" d="M 313.5,266.5 C 317.5,267.833 321.5,267.833 325.5,266.5C 325.663,268.857 325.497,271.19 325,273.5C 323.644,274.38 322.144,274.714 320.5,274.5C 320.62,271.795 319.62,271.128 317.5,272.5C 316.828,271.051 316.161,269.718 315.5,268.5C 314.732,269.263 314.232,270.263 314,271.5C 313.506,269.866 313.34,268.199 313.5,266.5 Z"/></g>
<g><path style="opacity:1" fill="#438ffa" d="M 321.5,267.5 C 323.465,267.948 323.798,268.948 322.5,270.5C 321.614,269.675 321.281,268.675 321.5,267.5 Z"/></g>
<g><path style="opacity:1" fill="#ffb996" d="M 149.5,269.5 C 151.5,269.833 153.5,270.167 155.5,270.5C 155.579,275.492 156.579,275.492 158.5,270.5C 160.115,271.154 161.782,271.654 163.5,272C 162.663,273.011 162.33,274.178 162.5,275.5C 159.833,276.833 157.167,276.833 154.5,275.5C 154.723,272.886 153.556,271.219 151,270.5C 151.931,272.004 152.598,273.671 153,275.5C 151.32,276.603 149.82,276.27 148.5,274.5C 148.579,272.872 148.912,271.205 149.5,269.5 Z"/></g>
<g><path style="opacity:1" fill="#ffc1a2" d="M 164.5,270.5 C 165.649,270.791 166.316,271.624 166.5,273C 166.167,273.833 165.833,274.667 165.5,275.5C 164.548,273.955 164.215,272.288 164.5,270.5 Z"/></g>
<g><path style="opacity:1" fill="#ffb794" d="M 180.5,269.5 C 182.865,270.008 185.199,270.675 187.5,271.5C 189.235,270.943 190.902,270.61 192.5,270.5C 193.281,271.729 193.781,273.062 194,274.5C 194.923,273.241 195.757,271.908 196.5,270.5C 199.24,270.673 201.907,270.673 204.5,270.5C 205.631,272.074 205.798,273.741 205,275.5C 204.333,271.5 203.667,271.5 203,275.5C 201.886,271.544 201.053,271.544 200.5,275.5C 195.395,275.854 190.395,275.854 185.5,275.5C 185.167,271.5 184.833,271.5 184.5,275.5C 183.167,275.5 181.833,275.5 180.5,275.5C 180.5,273.5 180.5,271.5 180.5,269.5 Z"/></g>
<g><path style="opacity:1" fill="#ffbb99" d="M 170.5,270.5 C 172.787,271.355 175.12,271.522 177.5,271C 178.747,272.494 178.747,273.994 177.5,275.5C 176.262,271.689 175.596,271.689 175.5,275.5C 173.396,275.799 171.396,275.466 169.5,274.5C 169.788,273.139 170.121,271.806 170.5,270.5 Z"/></g>
<g><path style="opacity:1" fill="#1e62b8" d="M 352.5,191.5 C 353.498,220.329 353.831,249.329 353.5,278.5C 336.167,278.5 318.833,278.5 301.5,278.5C 294.167,278.5 286.833,278.5 279.5,278.5C 270.167,278.5 260.833,278.5 251.5,278.5C 251.5,278.167 251.5,277.833 251.5,277.5C 285.167,277.5 318.833,277.5 352.5,277.5C 352.5,248.833 352.5,220.167 352.5,191.5 Z"/></g>
<g><path style="opacity:1" fill="#5b15ad" d="M 362.5,190.5 C 362.5,219.5 362.5,248.5 362.5,277.5C 395.833,277.5 429.167,277.5 462.5,277.5C 462.5,248.5 462.5,219.5 462.5,190.5C 463.498,219.662 463.831,248.995 463.5,278.5C 429.5,278.5 395.5,278.5 361.5,278.5C 361.169,248.995 361.502,219.662 362.5,190.5 Z"/></g>
<g><path style="opacity:1" fill="#ab5dfb" d="M 386.5,266.5 C 388.265,265.539 390.265,265.205 392.5,265.5C 392.065,267.297 392.065,269.297 392.5,271.5C 391.833,271.167 391.167,270.833 390.5,270.5C 389.5,270.5 388.5,270.5 387.5,270.5C 387.329,267.203 387.995,266.869 389.5,269.5C 390.386,268.675 390.719,267.675 390.5,266.5C 389.167,266.5 387.833,266.5 386.5,266.5 Z"/></g>
<g><path style="opacity:1" fill="#c995fc" d="M 384.5,267.5 C 384.833,267.5 385.167,267.5 385.5,267.5C 385.5,268.5 385.5,269.5 385.5,270.5C 384.469,271.355 383.303,272.022 382,272.5C 381.235,272.43 380.735,272.097 380.5,271.5C 380.578,270.345 380.912,269.012 381.5,267.5C 382.88,269.977 383.88,269.977 384.5,267.5 Z"/></g>
<g><path style="opacity:1" fill="#f6edfe" d="M 377.5,264.5 C 377.802,267.059 377.468,269.393 376.5,271.5C 376.322,267.898 375.322,267.898 373.5,271.5C 372.614,270.675 372.281,269.675 372.5,268.5C 373.853,266.807 375.52,265.474 377.5,264.5 Z"/></g>
<g><path style="opacity:1" fill="#ead5fe" d="M 398.5,266.5 C 400.5,266.5 402.5,266.5 404.5,266.5C 404.402,272.373 403.402,272.706 401.5,267.5C 399.613,273.995 398.613,273.662 398.5,266.5 Z"/></g>
<g><path style="opacity:1" fill="#bf83fb" d="M 377.5,264.5 C 378.167,265.5 378.833,266.5 379.5,267.5C 379.5,268.5 379.5,269.5 379.5,270.5C 378.849,271.091 378.182,271.757 377.5,272.5C 376.893,272.376 376.56,272.043 376.5,271.5C 377.468,269.393 377.802,267.059 377.5,264.5 Z"/></g>
<g><path style="opacity:1" fill="#ebd7fe" d="M 405.5,266.5 C 407.5,266.5 409.5,266.5 411.5,266.5C 411.768,269.119 411.435,271.619 410.5,274C 408.597,274.774 406.93,274.44 405.5,273C 407.095,273.617 408.428,273.284 409.5,272C 408.207,271.51 406.873,271.343 405.5,271.5C 405.5,269.833 405.5,268.167 405.5,266.5 Z"/></g>
<g><path style="opacity:1" fill="#a657fa" d="M 407.5,267.5 C 409.465,267.948 409.798,268.948 408.5,270.5C 407.614,269.675 407.281,268.675 407.5,267.5 Z"/></g>
<g><path style="opacity:1" fill="#e8d0fe" d="M 386.5,266.5 C 387.833,266.5 389.167,266.5 390.5,266.5C 390.719,267.675 390.386,268.675 389.5,269.5C 387.995,266.869 387.329,267.203 387.5,270.5C 388.5,270.5 389.5,270.5 390.5,270.5C 388.833,273.167 387.167,273.167 385.5,270.5C 385.5,269.5 385.5,268.5 385.5,267.5C 386.167,267.5 386.5,267.167 386.5,266.5 Z"/></g>
<g><path style="opacity:1" fill="#f0e3fe" d="M 384.5,267.5 C 383.88,269.977 382.88,269.977 381.5,267.5C 380.912,269.012 380.578,270.345 380.5,271.5C 379.833,271.5 379.5,271.167 379.5,270.5C 379.5,269.5 379.5,268.5 379.5,267.5C 381.05,266.28 382.716,266.28 384.5,267.5 Z"/></g>
<g><path style="opacity:1" fill="#c285fc" d="M 394.5,272.5 C 394.662,270.473 394.495,268.473 394,266.5C 393.617,265.944 393.117,265.611 392.5,265.5C 393.189,264.226 394.023,264.226 395,265.5C 395.308,264.692 395.808,264.025 396.5,263.5C 397.484,266.428 397.817,269.428 397.5,272.5C 396.5,272.5 395.5,272.5 394.5,272.5 Z"/></g>
<g><path style="opacity:1" fill="#f0e0fe" d="M 392.5,265.5 C 393.117,265.611 393.617,265.944 394,266.5C 394.495,268.473 394.662,270.473 394.5,272.5C 393.833,272.167 393.167,271.833 392.5,271.5C 392.065,269.297 392.065,267.297 392.5,265.5 Z"/></g>
<g><path style="opacity:1" fill="#f9f4fe" d="M 372.5,268.5 C 371.069,268.881 370.236,269.881 370,271.5C 369.186,269.098 369.353,266.765 370.5,264.5C 372.111,265.32 372.778,266.654 372.5,268.5 Z"/></g>
<g><path style="opacity:1" fill="#bc7cfc" d="M 400.5,250.5 C 401.167,251.167 401.833,251.833 402.5,252.5C 402.5,253.833 402.5,255.167 402.5,256.5C 400.683,258.51 398.683,258.843 396.5,257.5C 397.833,257.5 399.167,257.5 400.5,257.5C 400.5,255.167 400.5,252.833 400.5,250.5 Z"/></g>
<g><path style="opacity:1" fill="#f1e4fe" d="M 402.5,252.5 C 403.943,253.335 404.943,254.668 405.5,256.5C 406.172,255.051 406.839,253.718 407.5,252.5C 407.5,254.167 407.5,255.833 407.5,257.5C 406.167,257.5 404.833,257.5 403.5,257.5C 402.833,257.5 402.5,257.167 402.5,256.5C 402.5,255.167 402.5,253.833 402.5,252.5 Z"/></g>
<g><path style="opacity:1" fill="#e4c8fe" d="M 376.5,252.5 C 378.288,252.215 379.955,252.548 381.5,253.5C 380.726,254.711 379.893,254.711 379,253.5C 378.333,254.5 378.333,255.5 379,256.5C 379.893,255.289 380.726,255.289 381.5,256.5C 380.38,258.596 378.88,258.93 377,257.5C 376.506,255.866 376.34,254.199 376.5,252.5 Z"/></g>
<g><path style="opacity:1" fill="#ebd8fe" d="M 369.5,250.5 C 371.288,250.215 372.955,250.548 374.5,251.5C 373.603,251.669 372.603,252.002 371.5,252.5C 375.546,253.394 376.213,255.227 373.5,258C 370.56,258.886 369.56,258.052 370.5,255.5C 371.609,256.59 372.609,256.59 373.5,255.5C 370.658,254.996 369.325,253.329 369.5,250.5 Z"/></g>
<g><path style="opacity:1" fill="#b671fb" d="M 413.5,252.5 C 414.568,251.566 415.901,251.232 417.5,251.5C 417.795,253.735 417.461,255.735 416.5,257.5C 415.737,256.732 414.737,256.232 413.5,256C 414.448,255.517 415.448,255.351 416.5,255.5C 416.5,254.5 416.5,253.5 416.5,252.5C 415.5,252.5 414.5,252.5 413.5,252.5 Z"/></g>
<g><path style="opacity:1" fill="#e8d1fe" d="M 400.5,250.5 C 400.5,252.833 400.5,255.167 400.5,257.5C 399.167,257.5 397.833,257.5 396.5,257.5C 393.529,258.815 390.529,258.815 387.5,257.5C 386.167,252.167 384.833,252.167 383.5,257.5C 382.167,255.167 382.167,252.833 383.5,250.5C 384.88,251.976 386.547,252.976 388.5,253.5C 390.702,252.22 392.868,252.22 395,253.5C 397.099,252.869 398.932,251.869 400.5,250.5 Z"/></g>
<g><path style="opacity:1" fill="#9b41fa" d="M 397.5,253.5 C 399.465,253.948 399.798,254.948 398.5,256.5C 397.614,255.675 397.281,254.675 397.5,253.5 Z"/></g>
<g><path style="opacity:1" fill="#e8d2fd" d="M 413.5,252.5 C 414.5,252.5 415.5,252.5 416.5,252.5C 416.5,253.5 416.5,254.5 416.5,255.5C 415.448,255.351 414.448,255.517 413.5,256C 414.737,256.232 415.737,256.732 416.5,257.5C 413.075,258.583 411.575,257.249 412,253.5C 412.383,252.944 412.883,252.611 413.5,252.5 Z"/></g>
<g><path style="opacity:1" fill="#ca92fd" d="M 403.5,257.5 C 404.833,257.5 406.167,257.5 407.5,257.5C 407.5,255.833 407.5,254.167 407.5,252.5C 408.151,251.909 408.818,251.243 409.5,250.5C 410.48,253.086 410.813,255.753 410.5,258.5C 407.941,258.802 405.607,258.468 403.5,257.5 Z"/></g>
<g><path style="opacity:1" fill="#a34cfb" d="M 371.5,197.5 C 376.844,197.334 382.177,197.501 387.5,198C 388.333,198.833 389.167,199.667 390,200.5C 390.667,205.5 390.667,210.5 390,215.5C 389.626,216.416 389.126,217.25 388.5,218C 382.833,218.667 377.167,218.667 371.5,218C 371,217.5 370.5,217 370,216.5C 369.333,210.833 369.333,205.167 370,199.5C 370.717,198.956 371.217,198.289 371.5,197.5 Z"/></g>
<g><path style="opacity:1" fill="#e8d1fe" d="M 375.5,202.5 C 378.923,203.104 382.256,203.438 385.5,203.5C 385.5,206.833 385.5,210.167 385.5,213.5C 381.5,213.5 377.5,213.5 373.5,213.5C 373.036,209.498 373.702,205.831 375.5,202.5 Z"/></g>
<g><path style="opacity:1" fill="#a957fb" d="M 374.5,208.5 C 377.5,208.5 380.5,208.5 383.5,208.5C 383.5,209.833 383.5,211.167 383.5,212.5C 380.813,212.664 378.146,212.497 375.5,212C 374.663,210.989 374.33,209.822 374.5,208.5 Z"/></g>
<g><path style="opacity:1" fill="#b169fb" d="M 375.5,204.5 C 378.247,204.187 380.914,204.52 383.5,205.5C 382.167,205.833 380.833,206.167 379.5,206.5C 377.667,206.415 376.334,205.748 375.5,204.5 Z"/></g>
<g><path style="opacity:1" fill="#a5751a" d="M 472.5,190.5 C 472.5,219.5 472.5,248.5 472.5,277.5C 505.833,277.5 539.167,277.5 572.5,277.5C 572.5,248.5 572.5,219.5 572.5,190.5C 573.498,219.662 573.831,248.995 573.5,278.5C 539.5,278.5 505.5,278.5 471.5,278.5C 471.169,248.995 471.502,219.662 472.5,190.5 Z"/></g>
<g><path style="opacity:1" fill="#fee7bc" d="M 533.5,266.5 C 534.833,266.5 536.167,266.5 537.5,266.5C 538.508,271.678 536.841,273.178 532.5,271C 533.5,270.667 534.5,270.333 535.5,270C 533.061,269.467 532.395,268.3 533.5,266.5 Z"/></g>
<g><path style="opacity:1" fill="#ffe8c2" d="M 526.5,266.5 C 528.167,266.5 529.833,266.5 531.5,266.5C 531.663,268.857 531.497,271.19 531,273.5C 529.506,274.747 528.006,274.747 526.5,273.5C 525.743,271.371 525.743,269.038 526.5,266.5 Z"/></g>
<g><path style="opacity:1" fill="#ffe6bb" d="M 513.5,264.5 C 515.344,266.279 516.01,268.612 515.5,271.5C 511.169,273.601 509.336,272.267 510,267.5C 511.729,267.026 512.895,266.026 513.5,264.5 Z"/></g>
<g><path style="opacity:1" fill="#ffe5ba" d="M 493.5,266.5 C 496.828,267.646 500.161,267.813 503.5,267C 504.554,268.388 504.72,269.888 504,271.5C 501.211,271.62 498.378,271.953 495.5,272.5C 492.61,271.163 491.943,269.163 493.5,266.5 Z"/></g>
<g><path style="opacity:1" fill="#fef1d9" d="M 505.5,266.5 C 506.552,266.351 507.552,266.517 508.5,267C 506.772,273.048 505.772,272.882 505.5,266.5 Z"/></g>
<g><path style="opacity:1" fill="#fab333" d="M 494.5,267.5 C 498.88,268.099 499.214,269.099 495.5,270.5C 494.614,269.675 494.281,268.675 494.5,267.5 Z"/></g>
<g><path style="opacity:1" fill="#fff1d8" d="M 519.5,266.5 C 521.167,266.5 522.833,266.5 524.5,266.5C 524.291,272.261 523.458,272.594 522,267.5C 520.956,268.623 520.29,269.956 520,271.5C 519.506,269.866 519.34,268.199 519.5,266.5 Z"/></g>
<g><path style="opacity:1" fill="#fecb72" d="M 513.5,264.5 C 514.919,263.549 516.585,263.216 518.5,263.5C 518.817,266.572 518.484,269.572 517.5,272.5C 516.817,272.137 516.15,271.804 515.5,271.5C 516.01,268.612 515.344,266.279 513.5,264.5 Z"/></g>
<g><path style="opacity:1" fill="#feeed0" d="M 487.5,266.5 C 488.833,266.5 490.167,266.5 491.5,266.5C 491.349,269.718 490.516,270.051 489,267.5C 488.517,268.448 488.351,269.448 488.5,270.5C 492.276,270.469 492.443,271.136 489,272.5C 486.327,271.142 485.827,269.142 487.5,266.5 Z"/></g>
<g><path style="opacity:1" fill="#ffeed2" d="M 479.5,264.5 C 481.467,264.261 483.301,264.594 485,265.5C 484.872,267.445 485.038,269.278 485.5,271C 484.004,271.507 482.837,271.007 482,269.5C 481.692,270.308 481.192,270.975 480.5,271.5C 479.526,269.257 479.192,266.924 479.5,264.5 Z"/></g>
<g><path style="opacity:1" fill="#fff2dc" d="M 496.5,253.5 C 498.78,253.003 501.447,252.67 504.5,252.5C 504.617,254.484 503.95,256.15 502.5,257.5C 501.808,256.975 501.308,256.308 501,255.5C 500.311,256.357 499.478,257.023 498.5,257.5C 497.828,256.051 497.161,254.718 496.5,253.5 Z"/></g>
<g><path style="opacity:1" fill="#fff2db" d="M 479.5,250.5 C 481.093,251.348 482.26,252.681 483,254.5C 483.309,253.234 483.809,252.067 484.5,251C 485.332,250.312 485.998,250.479 486.5,251.5C 483.285,259.548 480.951,259.215 479.5,250.5 Z"/></g>
<g><path style="opacity:1" fill="#fee9c3" d="M 487.5,252.5 C 489.995,252.969 492.661,252.969 495.5,252.5C 496.322,258.209 494.489,259.543 490,256.5C 489.586,256.957 489.086,257.291 488.5,257.5C 487.548,255.955 487.215,254.288 487.5,252.5 Z"/></g>
<g><path style="opacity:1" fill="#fbbe4a" d="M 481.5,197.5 C 486.844,197.334 492.177,197.501 497.5,198C 498.333,198.833 499.167,199.667 500,200.5C 500.667,205.833 500.667,211.167 500,216.5C 499.5,217 499,217.5 498.5,218C 492.833,218.667 487.167,218.667 481.5,218C 481,217.5 480.5,217 480,216.5C 479.333,210.833 479.333,205.167 480,199.5C 480.717,198.956 481.217,198.289 481.5,197.5 Z"/></g>
<g><path style="opacity:1" fill="#fee5b7" d="M 484.5,203.5 C 487.685,203.02 490.519,203.686 493,205.5C 493.414,205.043 493.914,204.709 494.5,204.5C 495.474,206.743 495.808,209.076 495.5,211.5C 492.402,213.182 489.069,213.682 485.5,213C 483.25,210.072 482.916,206.906 484.5,203.5 Z"/></g>
<g><path style="opacity:1" fill="#fbc04e" d="M 485.5,205.5 C 487.5,205.5 489.5,205.5 491.5,205.5C 492.5,210.5 490.5,212.5 485.5,211.5C 485.5,209.5 485.5,207.5 485.5,205.5 Z"/></g>
<g><path style="opacity:1" fill="#d9d9d9" d="M 141.5,278.5 C 143.833,278.5 146.167,278.5 148.5,278.5C 148.5,279.167 148.5,279.833 148.5,280.5C 105.833,280.5 63.1667,280.5 20.5,280.5C 60.4862,278.506 100.82,277.839 141.5,278.5 Z"/></g>
<g><path style="opacity:1" fill="#243741" d="M 148.5,278.5 C 179.833,278.5 211.167,278.5 242.5,278.5C 245.5,278.5 248.5,278.5 251.5,278.5C 260.833,278.5 270.167,278.5 279.5,278.5C 279.5,279.167 279.5,279.833 279.5,280.5C 235.833,280.5 192.167,280.5 148.5,280.5C 148.5,279.833 148.5,279.167 148.5,278.5 Z"/></g>
<g><path style="opacity:1" fill="#a36634" d="M 279.5,278.5 C 286.833,278.5 294.167,278.5 301.5,278.5C 301.5,279.167 301.5,279.833 301.5,280.5C 294.167,280.5 286.833,280.5 279.5,280.5C 279.5,279.833 279.5,279.167 279.5,278.5 Z"/></g>
<g><path style="opacity:1" fill="#20343f" d="M 301.5,278.5 C 318.833,278.5 336.167,278.5 353.5,278.5C 356.167,278.5 358.833,278.5 361.5,278.5C 395.5,279.167 429.5,279.833 463.5,280.5C 409.5,280.5 355.5,280.5 301.5,280.5C 301.5,279.833 301.5,279.167 301.5,278.5 Z"/></g>
<g><path style="opacity:1" fill="#202a43" d="M 361.5,278.5 C 395.5,278.5 429.5,278.5 463.5,278.5C 466.167,278.5 468.833,278.5 471.5,278.5C 505.5,278.5 539.5,278.5 573.5,278.5C 581.5,278.5 589.5,278.5 597.5,278.5C 598.833,278.5 600.167,278.5 601.5,278.5C 601.5,279.167 601.5,279.833 601.5,280.5C 555.5,280.5 509.5,280.5 463.5,280.5C 429.5,279.833 395.5,279.167 361.5,278.5 Z"/></g>
</svg>
